<svg width="91" height="60" viewBox="0 0 91 60" fill="none" xmlns="http://www.w3.org/2000/svg">
<g clip-path="url(#clip0_5274_26319)">
<g clip-path="url(#clip1_5274_26319)">
<path d="M63.1121 0.325195H19.7014C18.845 0.325195 18.1509 1.01938 18.1509 1.87563C18.1509 53.7672 18.5386 50.8214 17.2362 52.1237C16.6575 52.706 15.8713 53.0351 15.0502 53.0384C14.1939 53.0384 13.4998 53.7325 13.4998 54.5889C13.4998 55.4451 14.1938 56.1391 15.0502 56.1391H58.4611C61.886 56.1391 64.6626 53.3627 64.6626 49.9377V1.87563C64.6626 1.01938 63.9685 0.325195 63.1121 0.325195Z" fill="#F2F2F2"/>
<path d="M29.0036 20.4805H33.6547C34.511 20.4805 35.2052 21.1745 35.2052 22.0309V26.6821C35.2052 27.5383 34.511 28.2324 33.6547 28.2324H29.0036C28.1473 28.2324 27.4531 27.5383 27.4531 26.6821V22.0309C27.4531 21.1745 28.1472 20.4805 29.0036 20.4805Z" fill="#F1BC7F"/>
<path d="M29.0036 31.333H33.6547C34.511 31.333 35.2052 32.027 35.2052 32.8833V37.5345C35.2052 38.3909 34.511 39.0849 33.6547 39.0849H29.0036C28.1473 39.0849 27.4531 38.3909 27.4531 37.5345V32.8833C27.4531 32.027 28.1472 31.333 29.0036 31.333Z" fill="#F1BC7F"/>
<path d="M29.0036 42.1865H33.6547C34.511 42.1865 35.2052 42.8807 35.2052 43.737V48.3881C35.2052 49.2444 34.511 49.9386 33.6547 49.9386H29.0036C28.1473 49.9386 27.4531 49.2444 27.4531 48.3881V43.737C27.4531 42.8807 28.1472 42.1865 29.0036 42.1865Z" fill="#F1BC7F"/>
<path d="M53.8091 25.131H39.8558C38.9994 25.131 38.3052 24.437 38.3052 23.5806C38.3052 22.7243 38.9994 22.0303 39.8558 22.0303H53.8091C54.6655 22.0303 55.3595 22.7243 55.3595 23.5806C55.3595 24.4368 54.6655 25.131 53.8091 25.131Z" fill="#F1CBA8"/>
<path d="M53.8097 15.8292H29.0036C28.1473 15.8292 27.4531 15.1352 27.4531 14.2788C27.4531 13.4226 28.1472 12.7285 29.0036 12.7285H53.8098C54.6662 12.7285 55.3602 13.4226 55.3602 14.2788C55.3601 15.1351 54.6661 15.8292 53.8097 15.8292Z" fill="#F1CBA8"/>
<path d="M53.8091 35.9847H39.8558C38.9994 35.9847 38.3052 35.2905 38.3052 34.4342C38.3052 33.578 38.9994 32.8838 39.8558 32.8838H53.8091C54.6655 32.8838 55.3595 33.578 55.3595 34.4342C55.3595 35.2905 54.6655 35.9847 53.8091 35.9847Z" fill="#F1CBA8"/>
<path d="M53.8091 46.8371H39.8558C38.9994 46.8371 38.3052 46.143 38.3052 45.2868C38.3052 44.4304 38.9994 43.7363 39.8558 43.7363H53.8091C54.6655 43.7363 55.3595 44.4304 55.3595 45.2868C55.3595 46.1429 54.6655 46.8371 53.8091 46.8371Z" fill="#F1CBA8"/>
<path d="M13.5015 56.1392C10.9328 56.1392 8.85034 54.057 8.85034 51.4881V48.3873C8.85034 47.5311 9.54438 46.8369 10.4008 46.8369H18.1527V51.4881C18.1527 54.057 16.0703 56.1392 13.5015 56.1392Z" fill="#D7D7D7"/>
</g>
<path d="M58.4233 43.6459C60.5178 47.2939 61.2569 52.361 61.505 54.8757C61.5241 55.0706 61.5839 55.2592 61.6807 55.4295C61.7774 55.5998 61.9088 55.7479 62.0665 55.8643C62.2242 55.9807 62.4045 56.0628 62.596 56.1052C62.7874 56.1477 62.9856 56.1495 63.1778 56.1107L67.5315 55.2339C67.8505 55.1696 68.1372 54.9967 68.3426 54.7447C68.548 54.4927 68.6594 54.1773 68.6576 53.8525C68.6127 46.915 65.6841 41.0674 65.6841 41.0674L58.4233 43.6459Z" fill="#D39364"/>
<path d="M58.5902 49.7378C55.9263 50.8224 52.6224 48.9005 51.2107 45.4451C49.7991 41.9898 50.8152 38.3097 53.4791 37.224L59.0066 34.8857L64.1484 47.474L58.5902 49.7378Z" fill="#FF7918"/>
<path d="M59.3061 34.8534C56.6419 35.938 55.6681 39.6167 57.0794 43.0745C58.4907 46.5323 61.753 48.4518 64.4172 47.3675C72.5835 44.0427 81.4549 49.2763 84.9564 47.7623L73.7117 20.2324C70.1479 21.5947 67.4724 31.5289 59.3061 34.8534Z" fill="white"/>
<path d="M69.3361 25.1859C69.1162 28.1815 69.9854 32.6202 71.8851 37.2714C73.6382 41.5629 75.8921 45.115 78.0021 47.2002C80.9845 47.823 83.461 48.4076 84.9568 47.7609L73.712 20.2324C72.2506 20.7913 70.9386 22.7912 69.3361 25.1859Z" fill="#D68F5B"/>
<path d="M84.9555 47.7699C87.6198 46.6856 87.2629 39.6437 84.1583 32.0414C81.0537 24.4392 76.377 19.1554 73.7126 20.2397C71.0483 21.3241 71.4052 28.366 74.5098 35.9682C77.6145 43.5705 82.2911 48.8543 84.9555 47.7699Z" fill="#ECAF83"/>
<path d="M55.9772 37.2089L52.1025 38.7859C52.0081 38.8243 51.9628 38.9318 52.0013 39.026L52.0827 39.2253C52.1212 39.3195 52.2288 39.3648 52.3232 39.3263L56.1979 37.7494C56.2923 37.711 56.3376 37.6035 56.2991 37.5093L56.2177 37.31C56.1793 37.2158 56.0716 37.1705 55.9772 37.2089Z" fill="#FFB876"/>
<path d="M55.3342 40.9199L51.4594 42.4969C51.3651 42.5353 51.3198 42.6428 51.3582 42.737L51.4396 42.9363C51.4781 43.0305 51.5858 43.0757 51.6801 43.0373L55.5549 41.4603C55.6492 41.4219 55.6945 41.3144 55.6561 41.2202L55.5747 41.0209C55.5362 40.9267 55.4285 40.8815 55.3342 40.9199Z" fill="#FFB876"/>
<path d="M56.893 44.664L53.0183 46.241C52.9239 46.2794 52.8786 46.3869 52.9171 46.4811L52.9985 46.6804C53.0369 46.7746 53.1446 46.8198 53.2389 46.7814L57.1137 45.2044C57.2081 45.166 57.2534 45.0585 57.2149 44.9644L57.1335 44.7651C57.095 44.6709 56.9874 44.6256 56.893 44.664Z" fill="#FFB876"/>
<path d="M59.7763 47.4043L55.9016 48.9812C55.8072 49.0197 55.7619 49.1271 55.8004 49.2213L55.8818 49.4206C55.9202 49.5148 56.0279 49.5601 56.1223 49.5217L59.997 47.9447C60.0914 47.9063 60.1367 47.7988 60.0982 47.7046L60.0168 47.5053C59.9783 47.4111 59.8707 47.3659 59.7763 47.4043Z" fill="#FFB876"/>
<path d="M74.1244 31.6068C73.7794 31.7472 73.4569 31.9375 73.1672 32.1714C73.5345 33.4014 73.9801 34.6737 74.5078 35.9623C75.0355 37.2508 75.606 38.4724 76.2044 39.6078C76.5751 39.5728 76.9387 39.4835 77.2834 39.3428C77.7473 39.154 78.1694 38.8758 78.5256 38.5241C78.8818 38.1724 79.1652 37.7541 79.3594 37.2931C79.5537 36.8322 79.6551 36.3375 79.6578 35.8373C79.6606 35.3372 79.5646 34.8415 79.3754 34.3784L79.0966 33.696C78.7147 32.7607 77.9763 32.0152 77.0439 31.6234C76.1114 31.2316 75.0612 31.2257 74.1244 31.6068Z" fill="#DEF1F7"/>
<g style="mix-blend-mode:multiply">
<path d="M70.0643 31.6245C69.8023 31.7564 69.5023 31.7926 69.2163 31.727C68.9303 31.6615 68.6762 31.4981 68.4981 31.2653C68.32 31.0325 68.2289 30.7449 68.2408 30.4522C68.2526 30.1595 68.3665 29.8801 68.5629 29.6624C68.8903 29.3035 69.1842 28.9157 69.4412 28.5037C69.6087 28.2159 69.8838 28.0063 70.206 27.9209C70.5282 27.8356 70.8712 27.8814 71.1596 28.0483C71.4481 28.2152 71.6583 28.4896 71.7442 28.8112C71.8301 29.1327 71.7846 29.4752 71.6177 29.7633C71.5739 29.8395 71.166 30.5311 70.4315 31.3444C70.3275 31.4596 70.203 31.5546 70.0643 31.6245Z" fill="#E6E6E6"/>
</g>
<g style="mix-blend-mode:multiply">
<path d="M62.0729 37.5782C61.7756 37.7294 61.4303 37.7565 61.113 37.6535C60.7957 37.5505 60.5324 37.326 60.3809 37.0292C60.2295 36.7324 60.2024 36.3877 60.3055 36.071C60.4086 35.7542 60.6336 35.4913 60.9309 35.3402C62.6727 34.4457 64.3649 33.2171 65.9607 31.6886C66.0799 31.5744 66.2205 31.4848 66.3744 31.4248C66.5283 31.3649 66.6925 31.3357 66.8576 31.3391C67.0228 31.3425 67.1857 31.3784 67.337 31.4446C67.4883 31.5108 67.625 31.6062 67.7394 31.7251C67.8538 31.8441 67.9436 31.9844 68.0037 32.1381C68.0637 32.2917 68.0929 32.4557 68.0895 32.6205C68.0861 32.7854 68.0502 32.948 67.9839 33.0991C67.9175 33.2501 67.822 33.3866 67.7028 33.5008C65.931 35.1976 64.0401 36.568 62.0831 37.5736L62.0729 37.5782Z" fill="#E6E6E6"/>
</g>
<path d="M78.2955 25.3229L83.8951 19.0607C83.9579 18.9905 84.0369 18.9367 84.1253 18.9041C84.2137 18.8714 84.3087 18.8608 84.4021 18.8732C84.4956 18.8856 84.5845 18.9207 84.6612 18.9753C84.738 19.03 84.8001 19.1025 84.8423 19.1867L85.7542 21.0073C85.8167 21.132 85.8317 21.2751 85.7966 21.41C85.7615 21.5449 85.6787 21.6626 85.5633 21.7412L79.0523 26.1827C78.9295 26.2666 78.779 26.2998 78.6322 26.2756C78.4855 26.2514 78.3537 26.1717 78.2644 26.0529C78.1844 25.9463 78.1438 25.8154 78.1494 25.6823C78.1551 25.5493 78.2067 25.4223 78.2955 25.3229Z" fill="#F97312"/>
<path d="M81.956 43.4569L89.5133 47.1374C89.598 47.1787 89.6916 47.1986 89.7858 47.1955C89.88 47.1924 89.972 47.1663 90.0538 47.1194C90.1356 47.0726 90.2047 47.0065 90.255 46.927C90.3053 46.8474 90.3353 46.7567 90.3425 46.6628L90.4962 44.6333C90.5067 44.4943 90.4665 44.3562 90.3828 44.2445C90.2992 44.1329 90.1779 44.0553 90.0413 44.0261L82.3303 42.3751C82.1849 42.344 82.033 42.3701 81.9064 42.448C81.7797 42.5259 81.6881 42.6496 81.6506 42.7933C81.6169 42.9221 81.6288 43.0586 81.6845 43.1796C81.7402 43.3006 81.8361 43.3986 81.956 43.4569Z" fill="#F97312"/>
<path d="M81.9492 32.3752L89.5327 28.7488C89.6177 28.7082 89.7114 28.689 89.8055 28.6929C89.8997 28.6967 89.9915 28.7235 90.0729 28.7709C90.1543 28.8183 90.2229 28.8848 90.2726 28.9647C90.3224 29.0446 90.3518 29.1355 90.3583 29.2293L90.4976 31.2599C90.507 31.399 90.4657 31.5369 90.3812 31.6479C90.2968 31.759 90.1749 31.8357 90.0381 31.864L82.3154 33.4599C82.1697 33.4899 82.0179 33.4627 81.8918 33.3838C81.7657 33.3049 81.675 33.1805 81.6385 33.0365C81.606 32.9074 81.6192 32.7711 81.6758 32.6506C81.7324 32.5301 81.829 32.4328 81.9492 32.3752Z" fill="#F97312"/>
</g>
<defs>
<clipPath id="clip0_5274_26319">
<rect width="90.6977" height="60" fill="white" transform="translate(0.151123)"/>
</clipPath>
<clipPath id="clip1_5274_26319">
<rect width="55.814" height="55.814" fill="white" transform="translate(9.22095 0.697266)"/>
</clipPath>
</defs>
</svg>
