<svg width="118" height="94" viewBox="0 0 118 94" fill="none" xmlns="http://www.w3.org/2000/svg">
<g id="35460562_page_469 2">
<g id="Background">
<g id="Group" opacity="0.09">
<g id="Group_2">
<path id="Vector" d="M30.1783 26.8338C28.8787 26.2226 26.7294 27.2163 26.0441 28.6705C24.7359 31.4463 28.967 35.4665 30.5056 35.035C32.2251 34.5528 32.5645 27.9559 30.1783 26.8338Z" stroke="#0F31AC" stroke-width="0.596313" stroke-miterlimit="10" stroke-linecap="round" stroke-dasharray="1.49 1.49 1.49 1.49 1.49 1.49"/>
<path id="Vector_2" d="M23.6777 33.1216C23.2139 32.8533 18.3008 30.0113 15.5204 32.2606C13.5681 33.8399 13.5494 37.2156 15.0165 39.1129C17.9222 42.8707 26.9326 41.186 27.8675 38.4971C28.4971 36.6864 25.5413 34.1996 23.6777 33.1216Z" stroke="#0F31AC" stroke-width="0.596313" stroke-miterlimit="10" stroke-linecap="round" stroke-dasharray="1.49 1.49 1.49 1.49 1.49 1.49"/>
<path id="Vector_3" d="M29.9996 79.523C41.9585 76.5547 55.5469 73.5329 76.6471 74.0475C88.4476 74.3354 91.1217 70.6734 100.065 66.1203C108.036 62.0623 111.952 53.9929 109.547 49.4195C107.12 44.8025 99.7255 46.6406 93.67 39.7678C90.9123 36.6376 91.3976 34.4437 89.8054 30.9725C84.7635 19.9813 65.8665 11.3904 56.548 15.937C44.2371 21.9433 54.7618 47.896 41.0004 54.9855C32.2958 59.4702 25.7165 50.861 17.1216 57.433C12.8629 60.6894 7.65438 65.2573 7.25157 70.217C7.25157 70.217 6.68757 82.343 29.9996 79.523Z" stroke="#0F31AC" stroke-width="0.596313" stroke-miterlimit="10" stroke-linecap="round" stroke-dasharray="1.49 1.49 1.49 1.49 1.49 1.49"/>
</g>
<path id="Vector_4" d="M96.0711 66.0177C96.0711 66.0177 93.9049 68.8899 91.7382 72.8306C89.7849 76.3843 88.2994 81.1726 87.9714 85.1704C87.0514 85.127 86.0409 85.0861 84.9483 85.0473C78.4779 84.8177 69.1366 84.6739 58.7498 84.6739C46.9416 84.6739 36.4848 84.86 30.061 85.1462C29.8399 85.1561 29.6235 85.166 29.412 85.1761C21.3921 75.2358 5.24269 57.9179 20.1046 50.7937C20.1046 50.7937 21.1933 50.4621 22.8256 49.7498C27.9919 47.495 38.6082 41.4275 37.4274 29.9875C37.4274 29.9875 37.025 27.8527 37.025 24.8823C37.025 17.9367 39.2239 6.42356 53.9039 6.94902C62.7937 7.26768 70.9809 11.7914 75.9307 19.0323C80.7858 26.1342 88.5488 34.8722 94.8708 29.8836C96.3301 28.7316 98.2597 28.3049 100.061 28.8113C104.612 30.0895 109.781 36.7064 96.0711 66.0177Z" fill="#FF8200"/>
</g>
<path id="Vector_5" opacity="0.15" d="M107.876 85.5572C107.876 86.0272 85.8814 86.4083 58.7498 86.4083C43.4411 86.4083 29.768 86.2871 20.7583 86.0968C18.6831 86.053 16.8556 86.0055 15.3125 85.9551C14.296 85.9219 13.403 85.8872 12.6438 85.8515C10.6905 85.76 9.62366 85.6608 9.62366 85.5572C9.62366 85.4253 11.3552 85.3004 14.4456 85.1891C15.7113 85.1433 17.2047 85.0999 18.9004 85.0595C27.8231 84.8454 42.3478 84.7061 58.7498 84.7061C73.1774 84.7061 86.1524 84.8137 95.14 84.9854C103.054 85.1365 107.876 85.3372 107.876 85.5572Z" fill="#040C2B"/>
</g>
<g id="Design">
<g id="Group_3">
<g id="Group_4">
<g id="Group_5">
<path id="Vector_6" d="M53.3248 79.1163C53.3248 79.1163 52.9951 81.9713 53.3248 82.6224L50.8995 83.0983L51.6295 78.415L53.3248 79.1163Z" fill="#DB965F"/>
<path id="Vector_7" d="M53.2417 84.428C53.2417 84.428 55.2305 84.9498 56.7536 84.5308C56.9806 84.4683 57.1228 84.2275 57.073 83.9838C57.0127 83.6886 56.7606 83.3338 55.9463 83.1932C55.9463 83.1932 53.7571 82.1861 53.1479 81.3848C53.1479 81.3848 51.8869 82.055 51.1346 81.5352C51.1346 81.5352 50.5624 81.9725 50.4691 82.8342C50.4013 83.4611 50.8274 84.0272 51.4165 84.1025C52.0347 84.1815 52.8547 84.3022 53.2417 84.428Z" fill="black"/>
<path id="Vector_8" d="M50.1181 78.7911C50.1181 78.7911 49.7885 81.6461 50.1181 82.2972L47.6929 82.7731L48.4228 78.0898L50.1181 78.7911Z" fill="#DB965F"/>
<path id="Vector_9" d="M50.0774 84.4223C50.0774 84.4223 52.0661 84.9442 53.5893 84.5251C53.8162 84.4627 53.9584 84.2218 53.9087 83.9781C53.8484 83.6829 53.5963 83.3281 52.782 83.1875C52.782 83.1875 50.5928 82.1804 49.9836 81.3791C49.9836 81.3791 48.657 81.8968 47.9048 81.377C47.9048 81.377 47.3982 81.9669 47.3048 82.8285C47.2369 83.4555 47.6631 84.0216 48.2522 84.0968C48.8704 84.1758 49.6903 84.2965 50.0774 84.4223Z" fill="black"/>
<path id="Vector_10" d="M50.7392 57.5695L52.2888 68.2225L51.3469 79.3421L51.8324 79.4209L53.8194 79.7428L55.677 69.0169C55.8665 67.9225 55.9536 66.8107 55.9371 65.6978L55.7971 56.3018L50.6641 57.0531L50.7392 57.5695Z" fill="#040C2B"/>
<path id="Vector_11" opacity="0.15" d="M52.2885 68.2224L51.3466 79.3419L51.8321 79.4207L53.5697 68.4753L53.9122 57.5693H50.7389L52.2885 68.2224Z" fill="black"/>
<path id="Vector_12" d="M48.5565 56.6396C48.5565 56.6396 47.803 58.4678 48.1563 62.9507L48.4536 68.6119L47.8619 79.7426L50.4659 79.9049L52.238 70.4575C52.5544 68.7448 52.7256 67.0054 52.7497 65.2601L52.8772 56.001L48.5565 56.6396Z" fill="#040C2B"/>
</g>
<path id="Vector_13" d="M55.2021 51.7497L56.7488 54.8185L56.8909 55.0944C57.0388 55.3564 57.3527 55.4635 57.6201 55.343L63.6415 52.6324C64.4003 52.4629 64.8463 52.1427 65.1023 51.8653C65.3379 51.6102 65.4272 51.2502 65.3406 50.9139C65.1099 50.0189 64.6609 50.0247 64.6609 50.0247C63.9821 49.8605 63.4846 50.3577 63.2681 50.5566C63.235 50.5873 63.2171 50.6049 63.2171 50.6049L63.4448 50.161C63.5225 50.0102 63.4284 49.8247 63.2632 49.8037C62.6315 50.5976 62.4855 51.3189 62.4855 51.3189L62.4767 51.3228L58.1605 53.2192L58.0068 52.807L57.3909 51.1546L56.5388 51.3859L56.1222 51.4995L55.2021 51.7497Z" fill="#DB965F"/>
<path id="Vector_14" d="M49.9509 47.0337L49.9617 49.0058L52.8921 49.5407L54.5943 48.6716L53.8581 47.7165L53.451 47.1885C53.3696 47.0827 53.3349 46.9465 53.3558 46.813L53.7109 44.5489L50.8559 43.2676L51.0966 45.0668L51.136 45.3623C51.2222 46.3206 49.9509 47.0337 49.9509 47.0337Z" fill="#C9885B"/>
<path id="Vector_15" opacity="0.15" d="M50.8561 43.2676L51.1254 45.3066C52.1263 47.1061 53.3928 47.5275 53.8582 47.7164L53.4512 47.1885C53.3698 47.0827 53.3351 46.9465 53.356 46.813L53.7111 44.5489L50.8561 43.2676Z" fill="black"/>
<path id="Vector_16" d="M50.2427 43.5531L50.675 44.3658C51.1019 44.8705 51.5103 45.2488 51.8806 45.5325C52.9323 46.3379 53.6789 46.3785 53.6789 46.3785C53.9986 46.3936 54.2258 46.126 54.3867 45.7225C54.84 44.5851 54.7676 42.3679 54.7676 42.3679L51.0988 42.3525L50.2427 43.5531Z" fill="#DB965F"/>
<path id="Vector_17" d="M50.3039 44.2195C50.5086 45.6006 51.1628 45.4306 51.1628 45.4306L51.1009 44.8263L50.7325 44.3922C50.2323 43.4639 50.9301 43.4937 50.9301 43.4937C51.5048 43.583 51.567 44.2937 51.567 44.2937L51.7596 44.2709C51.8644 44.0566 51.8262 43.3655 51.8262 43.3655C52.9909 41.5882 54.772 43.0871 54.772 43.0871C55.9325 42.0034 54.8186 41.4775 54.8186 41.4775C54.8409 40.1075 53.5488 40.523 53.5488 40.523C53.5488 40.523 52.5752 39.8491 52.1147 40.4031C52.1147 40.4031 51.3046 40.4462 51.1173 41.3098C51.1173 41.3098 50.3728 41.2399 50.2282 42.0196C50.2282 42.0196 50.2109 42.0467 50.1842 42.0965C49.8944 42.6381 49.8908 43.2861 50.1613 43.8376C50.2295 43.9766 50.2891 44.1198 50.3039 44.2195Z" fill="black"/>
<path id="Vector_18" d="M56.1937 53.6847L56.7636 53.4015L57.9428 52.815L58.2025 52.6858C57.0935 49.0871 56.3485 48.4165 56.032 48.3135C55.9178 48.2764 55.8594 48.3129 55.8594 48.3129L54.8958 51.8389L56.1937 53.6847Z" fill="white"/>
<path id="Vector_19" opacity="0.15" d="M55.1509 51.8669L56.6261 54.6009L56.0797 49.5312L55.7154 49.3187L55.3511 48.833C55.2371 48.7969 54.6832 48.8633 54.6832 48.8633L54.0154 50.6544L55.1509 51.8669Z" fill="black"/>
<path id="Vector_20" d="M47.3873 52.4495L47.4231 54.2877L47.439 55.104L47.4672 56.545L47.4787 57.1342L47.4831 57.3643L47.4946 57.9505L47.503 58.3762L47.5001 58.5663L47.4884 59.3855L47.4782 60.095L56.4877 59.7295L56.4571 59.3479L56.3913 58.5287L56.3448 57.9506L56.2866 57.3272L56.2685 57.1342L56.2101 56.5082L56.0789 55.1041L56.0095 54.3609C56.0074 54.3366 56.0061 54.312 56.0071 54.2877V54.2833L56.0732 52.2576L56.1001 51.4412L56.1518 49.8551L56.1784 49.0387L56.1936 48.5768C56.1973 48.4666 56.1354 48.3657 56.038 48.3221L54.1768 47.4914L54.1021 47.458L53.4247 47.1556C53.6856 47.8398 53.4257 48.2109 53.1009 48.4107C52.9497 48.5039 52.7823 48.5577 52.6118 48.5739C52.571 48.5776 52.5305 48.5794 52.4898 48.5786C52.3185 48.577 52.1464 48.5371 51.9871 48.4603C50.0063 47.5089 50.4367 46.6855 50.4367 46.6855L49.8318 47.0948L49.7311 47.1629L47.5808 48.6172L47.5594 49.0387L47.5179 49.8551L47.4372 51.4412L47.4176 51.8269L47.3957 52.2576L47.3881 52.4062C47.3873 52.4208 47.387 52.4352 47.3873 52.4495Z" fill="white"/>
<g id="Group_6">
<path id="Vector_21" d="M47.5178 49.8544H56.1518L56.1784 49.0381H47.5593L47.5178 49.8544Z" fill="#E3E9F7"/>
<path id="Vector_22" d="M47.3956 52.2568H56.0732L56.1 51.4404H47.4372L47.4176 51.8261L47.3956 52.2568Z" fill="#E3E9F7"/>
<path id="Vector_23" d="M47.4231 54.2861L47.439 55.1025H56.079L56.0095 54.3593C56.0074 54.335 56.0061 54.3104 56.0072 54.2861H47.4231Z" fill="#E3E9F7"/>
<path id="Vector_24" d="M47.4672 56.5447L47.4787 57.1338L47.4831 57.3638L56.2865 57.3268L56.2685 57.1338L56.21 56.5078L47.4672 56.5447Z" fill="#E3E9F7"/>
<path id="Vector_25" d="M47.4886 59.3842L56.4574 59.3466L56.3916 58.5273L47.5004 58.5649L47.4886 59.3842Z" fill="#E3E9F7"/>
</g>
<path id="Vector_26" opacity="0.15" d="M47.3868 52.427L47.503 58.3754L47.8824 58.3992L48.7482 51.7295L47.4174 51.826L47.3868 52.427Z" fill="black"/>
<path id="Vector_27" d="M47.7883 54.7615L47.5871 55.4127L45.9097 56.6403C45.6366 56.4328 45.5048 56.0869 45.5722 55.671L46.0175 52.6369L48.7461 51.7373L47.7883 54.7615Z" fill="#DB965F"/>
<path id="Vector_28" d="M55.2941 61.5972C55.2941 61.5972 54.5298 62.1276 52.8305 60.6418L47.042 57.3507L46.2731 56.9135C45.9224 56.7148 45.7111 56.4469 45.641 56.1653L47.5871 55.4131L48.7121 56.1477L52.9546 58.825L53.1294 58.9353C53.1294 58.9353 53.7682 58.6547 54.7577 58.7424C54.8419 58.8928 54.7577 59.0753 54.5953 59.0948L54.1187 59.1513C54.1217 59.1521 54.1466 59.1574 54.1887 59.168C54.4759 59.2398 55.5589 59.5508 55.8452 60.2113C55.8452 60.2113 56.2485 61.3198 55.2941 61.5972Z" fill="#DB965F"/>
<path id="Vector_29" d="M48.1841 54.1215L48.0118 54.0559L45.9258 53.2621L45.8999 53.2522C46.3741 48.5724 47.6939 48.6074 47.6939 48.6074C49.94 48.9099 48.1841 54.1215 48.1841 54.1215Z" fill="white"/>
<path id="Vector_30" opacity="0.15" d="M52.2808 48.8447C52.4523 48.8044 52.4807 48.5994 52.4824 48.584C52.4529 48.7045 52.3665 48.7888 52.2808 48.8447Z" fill="black"/>
<path id="Vector_31" d="M51.5731 44.2801L51.8244 45.3032C51.8617 45.4553 51.9528 45.5891 52.0809 45.6791C53.0259 46.3425 53.6789 46.3781 53.6789 46.3781C53.9986 46.3932 54.2258 46.1255 54.3866 45.7221C53.0768 45.7552 51.7664 44.1553 51.7664 44.1553L51.5731 44.2801Z" fill="black"/>
<g id="Group_7">
<path id="Vector_32" d="M70.1592 40.7669C69.6579 40.8301 69.5477 43.2304 69.9131 46.128C70.2785 49.0256 70.9811 51.3234 71.4824 51.2602C71.9837 51.197 72.0939 48.7967 71.7285 45.8991C71.3631 43.0014 70.6605 40.7037 70.1592 40.7669ZM71.4618 51.097C71.3204 51.1149 71.0582 50.7704 70.7461 49.75C70.4536 48.7935 70.1962 47.5023 70.0212 46.1144C69.8461 44.7265 69.775 43.4118 69.8209 42.4126C69.8698 41.3468 70.0384 40.9479 70.1798 40.9301C70.3212 40.9123 70.5835 41.2568 70.8955 42.2771C71.188 43.2337 71.4454 44.5248 71.6205 45.9127C71.7955 47.3007 71.8666 48.6153 71.8207 49.6145C71.7718 50.6804 71.6033 51.0792 71.4618 51.097Z" fill="white"/>
<path id="Vector_33" d="M71.4618 51.0963C71.3204 51.1141 71.0581 50.7696 70.7461 49.7493C70.4536 48.7927 70.1961 47.5016 70.0211 46.1137C69.8461 44.7257 69.775 43.4111 69.8208 42.4119C69.8698 41.346 70.0383 40.9472 70.1797 40.9294C70.3212 40.9115 70.5834 41.256 70.8954 42.2764C71.1879 43.2329 71.4454 44.5241 71.6204 45.912C71.7954 47.2999 71.8665 48.6145 71.8207 49.6138C71.7717 50.6796 71.6032 51.0785 71.4618 51.0963Z" fill="#ACBCF8"/>
<g id="Group_8">
<path id="Vector_34" d="M69.9165 46.1564C69.5541 43.2828 69.6595 40.8988 70.1503 40.7978L70.1426 40.7373L69.1893 41.722C67.8776 43.0769 66.3423 44.1653 64.6573 44.9347L63.8835 45.288C62.7652 46.1011 62.9956 47.9282 64.2808 48.4383L65.3371 48.5843C66.9045 48.8009 68.4176 49.3584 69.7815 50.2216L71.2231 51.1341C70.7614 50.5756 70.2215 48.5752 69.9165 46.1564Z" fill="#CDD7FB"/>
<path id="Vector_35" d="M71.469 51.2894L71.4753 51.2934L71.4748 51.2891C71.4728 51.2891 71.4709 51.2893 71.469 51.2894Z" fill="#C5D9F6"/>
</g>
<path id="Vector_36" d="M64.5732 52.5283L63.8103 52.6245C63.7337 52.6342 63.6562 52.5694 63.6178 52.4628C63.5042 52.1472 63.2685 51.3931 63.0498 50.0678C63.017 49.8693 62.9846 49.6581 62.9531 49.4334L63.85 49.3203C63.85 49.3203 63.9063 49.577 63.9992 49.9481C64.1559 50.5739 64.4165 51.5258 64.6867 52.1227C64.7646 52.2953 64.7043 52.5118 64.5732 52.5283Z" fill="#0F31AC"/>
<path id="Vector_37" opacity="0.15" d="M63.9992 49.9481L63.0498 50.0678C63.017 49.8693 62.9846 49.6581 62.9531 49.4334L63.85 49.3203C63.85 49.3203 63.9063 49.577 63.9992 49.9481Z" fill="black"/>
<path id="Vector_38" d="M64.0881 48.3595L62.4781 48.5625L62.6325 49.7864L64.2425 49.5834L64.0881 48.3595Z" fill="#0F31AC"/>
<path id="Vector_39" opacity="0.15" d="M64.0881 48.3595L62.4781 48.5625L62.5563 49.1826L64.1663 48.9796L64.0881 48.3595Z" fill="black"/>
<path id="Vector_40" d="M70.3577 47.5647L69.9873 44.6273C70.6796 44.5399 71.3116 45.0304 71.3989 45.7227L71.4531 46.1532C71.5404 46.8455 71.05 47.4774 70.3577 47.5647Z" fill="#829CF8"/>
<path id="Vector_41" d="M63.2195 45.0574C62.2409 45.1808 61.5169 45.9646 61.4745 46.8772L61.3807 46.889C61.3241 46.8962 61.2771 46.9374 61.2471 46.9982C61.217 47.0589 61.2037 47.1395 61.2145 47.225C61.2361 47.3964 61.3456 47.5235 61.459 47.5092L61.5527 47.4974C61.8204 48.3709 62.7163 48.9505 63.6949 48.8271L65.3424 48.6194L64.867 44.8496L63.2195 45.0574Z" fill="#0F31AC"/>
<path id="Vector_42" opacity="0.15" d="M61.4456 46.8809L61.5238 47.501L61.459 47.5092C61.3456 47.5235 61.2362 47.3964 61.2145 47.225C61.2037 47.1395 61.217 47.0589 61.2471 46.9982C61.2771 46.9374 61.3241 46.8962 61.3807 46.889L61.4456 46.8809Z" fill="black"/>
</g>
<path id="Vector_43" d="M62.4768 51.3228L62.6368 51.5957L63.2439 51.0189C63.2109 51.0496 63.2172 50.6049 63.2172 50.6049L63.4449 50.161C63.5226 50.0102 63.4285 49.8247 63.2634 49.8037C62.6316 50.5976 62.4856 51.3189 62.4856 51.3189L62.4768 51.3228Z" fill="#DB965F"/>
<path id="Vector_44" d="M64.1036 50.1367C64.1036 50.1367 63.3265 51.4617 64.6257 51.8314L64.1036 50.1367Z" fill="#DB965F"/>
</g>
<g id="Group_9">
<path id="Vector_45" d="M81.0119 58.9424H36.4872V84.788H81.0119V58.9424Z" fill="#FFE3C6"/>
<path id="Vector_46" d="M81.0111 56.042H36.5038V58.9487H81.0111V56.042Z" fill="#FFD09F"/>
<g id="Group_10">
<g id="Group_11">
<g id="Group_12">
<path id="Vector_47" d="M37.9718 57.8247C38.2419 57.8247 38.4609 57.6164 38.4609 57.3596C38.4609 57.1027 38.2419 56.8945 37.9718 56.8945C37.7016 56.8945 37.4827 57.1027 37.4827 57.3596C37.4827 57.6164 37.7016 57.8247 37.9718 57.8247Z" fill="#E3E9F7"/>
</g>
</g>
<g id="Group_13">
<g id="Group_14">
<path id="Vector_48" d="M39.3977 57.8247C39.6678 57.8247 39.8867 57.6164 39.8867 57.3596C39.8867 57.1027 39.6678 56.8945 39.3977 56.8945C39.1275 56.8945 38.9086 57.1027 38.9086 57.3596C38.9086 57.6164 39.1275 57.8247 39.3977 57.8247Z" fill="#E3E9F7"/>
</g>
</g>
<g id="Group_15">
<g id="Group_16">
<path id="Vector_49" d="M40.8244 57.8247C41.0945 57.8247 41.3135 57.6164 41.3135 57.3596C41.3135 57.1027 41.0945 56.8945 40.8244 56.8945C40.5543 56.8945 40.3353 57.1027 40.3353 57.3596C40.3353 57.6164 40.5543 57.8247 40.8244 57.8247Z" fill="#E3E9F7"/>
</g>
</g>
</g>
<g id="Group_17">
<g id="Group_18">
<path id="Vector_50" d="M78.9987 60.9688H38.5088V82.7627H78.9987V60.9688Z" fill="#F9FBFD"/>
</g>
</g>
<g id="Group_19">
<path id="Vector_51" d="M56.5027 68.1299H54.2393V79.9332H56.5027V68.1299Z" fill="#CDD7FB"/>
<path id="Vector_52" d="M59.602 64.7998H57.3386V79.9328H59.602V64.7998Z" fill="#ACBCF8"/>
<path id="Vector_53" d="M53.4198 73.9053H51.1564V79.9332H53.4198V73.9053Z" fill="#ACBCF8"/>
<path id="Vector_54" d="M50.3368 70.8193H48.0734V79.9327H50.3368V70.8193Z" fill="#CDD7FB"/>
<path id="Vector_55" d="M47.2539 76.8359H44.9905V79.9331H47.2539V76.8359Z" fill="#ACBCF8"/>
<path id="Vector_56" d="M44.1709 73.9053H41.9075V79.9332H44.1709V73.9053Z" fill="#CDD7FB"/>
<path id="Vector_57" d="M40.8861 63.7852V79.9524H60.6634" stroke="#040C2B" stroke-width="0.0247559" stroke-miterlimit="10"/>
<g id="Group_20">
<g id="Group_21">
<path id="Vector_58" d="M41.9009 68.2581C41.9009 68.2581 50.5177 68.5606 55.4079 64.2627" stroke="#E3E9F7" stroke-width="0.12378" stroke-miterlimit="10"/>
<g id="Group_22">
<path id="Vector_59" d="M55.6313 64.7128L55.9181 63.7832L54.9696 63.9995L55.6313 64.7128Z" fill="#E3E9F7"/>
</g>
</g>
</g>
</g>
<g id="Group_23">
<g id="Group_24">
<path id="Vector_60" d="M76.7845 72.5916H63.72C63.6514 72.5916 63.5958 72.536 63.5958 72.4674V72.4308C63.5958 72.3622 63.6514 72.3066 63.72 72.3066H76.7845C76.8531 72.3066 76.9087 72.3622 76.9087 72.4308V72.4674C76.9087 72.536 76.8531 72.5916 76.7845 72.5916Z" fill="#DCDCDC"/>
<path id="Vector_61" d="M76.7845 73.3074H62.8771C62.8085 73.3074 62.7529 73.2518 62.7529 73.1832V73.1466C62.7529 73.078 62.8085 73.0225 62.8771 73.0225H76.7845C76.8531 73.0225 76.9087 73.0781 76.9087 73.1466V73.1832C76.9087 73.2518 76.8531 73.3074 76.7845 73.3074Z" fill="#DCDCDC"/>
<path id="Vector_62" d="M76.7845 74.0252H62.8771C62.8085 74.0252 62.7529 73.9696 62.7529 73.901V73.8644C62.7529 73.7958 62.8085 73.7402 62.8771 73.7402H76.7845C76.8531 73.7402 76.9087 73.7958 76.9087 73.8644V73.901C76.9087 73.9696 76.8531 74.0252 76.7845 74.0252Z" fill="#DCDCDC"/>
<path id="Vector_63" d="M76.7845 74.741H62.8771C62.8085 74.741 62.7529 74.6854 62.7529 74.6168V74.5802C62.7529 74.5117 62.8085 74.4561 62.8771 74.4561H76.7845C76.8531 74.4561 76.9087 74.5117 76.9087 74.5802V74.6168C76.9087 74.6854 76.8531 74.741 76.7845 74.741Z" fill="#DCDCDC"/>
<path id="Vector_64" d="M76.7845 75.4559H62.8771C62.8085 75.4559 62.7529 75.4003 62.7529 75.3317V75.2951C62.7529 75.2265 62.8085 75.1709 62.8771 75.1709H76.7845C76.8531 75.1709 76.9087 75.2265 76.9087 75.2951V75.3317C76.9087 75.4003 76.8531 75.4559 76.7845 75.4559Z" fill="#DCDCDC"/>
<path id="Vector_65" d="M76.7845 76.1717H62.8771C62.8085 76.1717 62.7529 76.1161 62.7529 76.0475V76.0109C62.7529 75.9423 62.8085 75.8867 62.8771 75.8867H76.7845C76.8531 75.8867 76.9087 75.9423 76.9087 76.0109V76.0475C76.9087 76.1161 76.8531 76.1717 76.7845 76.1717Z" fill="#DCDCDC"/>
<path id="Vector_66" d="M76.0902 76.8396H62.8771C62.8085 76.8396 62.7529 76.784 62.7529 76.7155V76.6789C62.7529 76.6103 62.8085 76.5547 62.8771 76.5547H76.0902C76.1588 76.5547 76.2144 76.6103 76.2144 76.6789V76.7154C76.2144 76.784 76.1588 76.8396 76.0902 76.8396Z" fill="#DCDCDC"/>
</g>
<g id="Group_25">
<g id="Group_26">
<g id="Group_27">
<path id="Vector_67" d="M69.7022 67.1119L64.5229 67.1373C64.4969 67.1374 64.4757 67.1164 64.4756 67.0905L64.475 66.9623C64.4749 66.9363 64.4958 66.9152 64.5218 66.9151L69.7011 66.8896C69.7271 66.8895 69.7483 66.9105 69.7484 66.9364L69.749 67.0646C69.7492 67.0906 69.7282 67.1117 69.7022 67.1119Z" fill="#C6C6C6"/>
<path id="Vector_68" d="M72.5745 67.633L64.5243 67.6725C64.4991 67.6726 64.4785 67.6523 64.4784 67.627L64.4778 67.5024C64.4777 67.4772 64.498 67.4566 64.5233 67.4565L72.5734 67.417C72.5987 67.4169 72.6192 67.4373 72.6194 67.4625L72.62 67.5871C72.6201 67.6123 72.5997 67.6329 72.5745 67.633Z" fill="#C6C6C6"/>
</g>
<g id="Group_28">
<path id="Vector_69" d="M67.7404 68.288L64.5361 68.3037C64.5058 68.3038 64.4812 68.2795 64.4811 68.2492L64.4803 68.1C64.4802 68.0698 64.5046 68.0452 64.5348 68.045L67.7391 68.0293C67.7694 68.0292 67.794 68.0535 67.7942 68.0838L67.7949 68.233C67.795 68.2632 67.7706 68.2878 67.7404 68.288Z" fill="#C6C6C6"/>
<path id="Vector_70" d="M71.8649 68.7602L64.5279 68.7962C64.5036 68.7963 64.4837 68.7766 64.4836 68.7523L64.483 68.6321C64.4829 68.6077 64.5026 68.5879 64.5269 68.5877L71.8638 68.5518C71.8882 68.5516 71.908 68.5713 71.9082 68.5956L71.9088 68.7158C71.9089 68.7402 71.8892 68.7601 71.8649 68.7602Z" fill="#C6C6C6"/>
</g>
</g>
<g id="Group_29">
<path id="Vector_71" d="M63.2633 67.1826C63.264 67.3236 63.1503 67.4384 63.0094 67.4391C62.8684 67.4397 62.7536 67.3261 62.7529 67.1851C62.7523 67.0442 62.8659 66.9294 63.0068 66.9287C63.1478 66.928 63.2626 67.0417 63.2633 67.1826Z" fill="#C6C6C6"/>
<path id="Vector_72" d="M63.2689 68.3125C63.2696 68.4534 63.1559 68.5682 63.015 68.5689C62.874 68.5697 62.7593 68.456 62.7585 68.315C62.7579 68.1741 62.8715 68.0593 63.0125 68.0586C63.1534 68.0579 63.2682 68.1716 63.2689 68.3125Z" fill="#C6C6C6"/>
</g>
</g>
</g>
<path id="Vector_73" opacity="0.1" d="M55.2237 61.8084C55.2237 61.8084 54.4595 62.3388 52.76 60.8531L49.4105 58.9487L46.9717 57.562L46.2028 57.1249C46.0592 57.0436 45.9394 56.9505 45.8425 56.8497L45.8392 56.852C45.6019 56.6716 45.4712 56.3865 45.4856 56.042H48.1563L48.6418 56.359L52.7454 58.9487L52.8843 59.0364L53.0591 59.1466C53.0591 59.1466 53.4086 58.9931 53.9909 58.9487C54.1789 58.9341 54.3916 58.9313 54.6245 58.9487C54.6452 58.9501 54.6663 58.9518 54.6875 58.9536C54.7716 59.104 54.6872 59.2866 54.5248 59.3061L54.0483 59.3625C54.0513 59.3635 54.0762 59.3687 54.1183 59.3792C54.4055 59.4511 55.4886 59.762 55.7748 60.4226C55.7748 60.4226 56.1781 61.5311 55.2237 61.8084Z" fill="black"/>
<g id="Group_30">
<path id="Vector_74" d="M48.0119 54.0555L47.7882 54.762L47.587 55.4131L45.9096 56.6408C45.6365 56.4333 45.5047 56.0874 45.5721 55.6714L45.9258 53.2617L48.0119 54.0555Z" fill="#DB965F"/>
<path id="Vector_75" d="M55.2939 61.5972C55.2939 61.5972 54.5297 62.1276 52.8303 60.6418L47.0419 57.3507L46.273 56.9135C45.9223 56.7148 45.711 56.4469 45.6409 56.1653L47.5869 55.4131L48.712 56.1477L52.9544 58.825L53.1293 58.9353C53.1293 58.9353 53.7681 58.6547 54.7576 58.7424C54.8417 58.8928 54.7576 59.0753 54.5952 59.0948L54.1186 59.1513C54.1215 59.1521 54.1465 59.1574 54.1886 59.168C54.4758 59.2398 55.5587 59.5508 55.8451 60.2113C55.8451 60.2113 56.2483 61.3198 55.2939 61.5972Z" fill="#DB965F"/>
</g>
</g>
</g>
<g id="Group_31">
<g id="Group_32">
<g id="Group_33" opacity="0.1">
<path id="Vector_76" d="M38.7688 75.626H32.04C30.9779 75.626 30.1169 76.487 30.1169 77.5491V83.3144C30.1169 84.3765 30.9779 85.2375 32.04 85.2375H38.7688C39.8309 85.2375 40.6919 84.3765 40.6919 83.3144V77.5491C40.6919 76.487 39.831 75.626 38.7688 75.626Z" fill="black"/>
</g>
<path id="Vector_77" d="M38.4633 85.2375H31.7345C30.6724 85.2375 29.8114 84.3765 29.8114 83.3144V77.5491C29.8114 76.487 30.6724 75.626 31.7345 75.626H38.4633C39.5254 75.626 40.3864 76.487 40.3864 77.5491V83.3144C40.3864 84.3765 39.5254 85.2375 38.4633 85.2375Z" fill="#F6471E"/>
<g id="Group_34">
<g id="Group_35">
<path id="Vector_78" d="M37.4977 80.4317L32.7007 83.2012V77.6621L37.4977 80.4317Z" fill="white"/>
</g>
</g>
</g>
<g id="Group_36">
<path id="Vector_79" opacity="0.1" d="M80.9775 67.8115C77.6156 67.8115 74.8903 70.5369 74.8903 73.8988C74.8903 76.2919 76.2714 78.3621 78.2799 79.3567L78.1997 79.6832L77.3558 83.1216L77.2555 83.0991L76.5777 82.9469L76.5768 82.9506C75.7991 82.0679 74.4977 81.2421 73.7119 81.0657C72.421 80.7759 71.131 81.6254 70.8307 82.9631C70.5303 84.3008 71.3334 85.6202 72.6243 85.91C73.5154 86.1101 74.9953 85.9393 76.0193 85.4341L76.0192 85.4344L76.2376 85.4834L76.4265 85.5258L76.6971 85.5865L76.7791 85.605L77.6583 85.8023C77.7092 85.8138 77.7601 85.8199 77.8104 85.8211C77.977 85.825 78.1367 85.7746 78.2685 85.6834C78.4226 85.5767 78.5387 85.414 78.583 85.2167L78.8023 84.2395C78.8845 83.8735 78.6925 83.5097 78.3622 83.363C78.3163 83.3425 78.2677 83.3263 78.2167 83.3148L78.2023 83.3116L79.3127 80.1215L79.4291 79.7871C79.7588 79.8735 80.0994 79.9328 80.4483 79.9629L80.5103 81.0194L80.7517 85.1347C80.7615 85.3015 80.9093 85.4315 81.0871 85.4295C81.2649 85.4274 81.4097 85.2942 81.4157 85.1272L81.562 81.0322L81.6005 79.9545C81.9152 79.9225 82.2227 79.8664 82.5214 79.7883L82.6374 80.1215L84.4605 85.3593C84.5155 85.5171 84.6932 85.6017 84.8636 85.5513C85.0341 85.5008 85.1371 85.3332 85.0973 85.1709L83.7504 79.6832L83.6708 79.3588C85.6817 78.365 87.0649 76.2936 87.0649 73.8988C87.0648 70.5369 84.3394 67.8115 80.9775 67.8115Z" fill="black"/>
<g id="Group_37">
<g id="Group_38">
<path id="Vector_80" d="M81.0075 76.4L79.7121 80.1217L77.8889 85.3595C77.8339 85.5173 77.6563 85.6019 77.4858 85.5515C77.3153 85.501 77.2123 85.3334 77.2522 85.1711L78.5991 79.6834L79.5134 75.9578C79.5558 75.7849 79.7428 75.6854 79.9243 75.7392L80.7818 75.9931C80.9633 76.0468 81.066 76.232 81.0075 76.4Z" fill="#0F31AC"/>
<path id="Vector_81" d="M85.2629 85.5515C85.0924 85.602 84.9148 85.5174 84.8598 85.3595L83.0366 80.1217L81.7412 76.4C81.6827 76.232 81.7855 76.0468 81.9669 75.9931L82.8244 75.7392C83.0059 75.6854 83.1929 75.7849 83.2353 75.9578L84.1497 79.6834L85.4966 85.1711C85.5364 85.3334 85.4334 85.501 85.2629 85.5515Z" fill="#0F31AC"/>
<path id="Vector_82" opacity="0.1" d="M81.0076 76.4L79.7121 80.1217C79.324 80.0118 78.9516 79.8643 78.5991 79.6834L79.5134 75.9578C79.5558 75.7849 79.7428 75.6854 79.9243 75.7392L80.7818 75.9931C80.9634 76.0468 81.0661 76.232 81.0076 76.4Z" fill="black"/>
<path id="Vector_83" opacity="0.1" d="M84.1497 79.6834C83.7972 79.8643 83.4248 80.0118 83.0366 80.1217L81.7412 76.4C81.6827 76.232 81.7855 76.0468 81.9669 75.9931L82.8244 75.7392C83.0059 75.6854 83.1929 75.7849 83.2353 75.9578L84.1497 79.6834Z" fill="black"/>
<path id="Vector_84" d="M82.1537 75.6466L82.0168 79.4803L81.9614 81.0324L81.8151 85.1273C81.8091 85.2944 81.6643 85.4275 81.4865 85.4296C81.3087 85.4316 81.1609 85.3017 81.1511 85.1348L80.9097 81.0195L80.8264 79.5984L80.5956 75.6644C80.5852 75.4868 80.7345 75.3367 80.9238 75.3345L81.8179 75.3242C82.0074 75.3221 82.1601 75.4687 82.1537 75.6466Z" fill="#0F31AC"/>
<path id="Vector_85" opacity="0.1" d="M82.1537 75.6319L82.0168 79.2903L81.9614 80.7713C81.8126 80.7818 81.6623 80.7871 81.5108 80.7871C81.3079 80.7871 81.1074 80.7776 80.9097 80.7591L80.8264 79.4029L80.5956 75.6488C80.5852 75.4793 80.7345 75.3361 80.9238 75.334L81.8179 75.3242C82.0074 75.3222 82.1601 75.4621 82.1537 75.6319Z" fill="black"/>
</g>
<g id="Group_39">
<g id="Group_40">
<g id="Group_41">
<path id="Vector_86" d="M81.3767 79.989C84.7386 79.989 87.464 77.2636 87.464 73.9017C87.464 70.5398 84.7386 67.8145 81.3767 67.8145C78.0148 67.8145 75.2894 70.5398 75.2894 73.9017C75.2894 77.2636 78.0148 79.989 81.3767 79.989Z" fill="#F6471E"/>
<path id="Vector_87" d="M81.3768 79.1956C79.9628 79.1956 78.6334 78.645 77.6336 77.6452C76.6338 76.6453 76.0831 75.316 76.0831 73.902C76.0831 72.488 76.6338 71.1587 77.6336 70.1589C78.6334 69.159 79.9628 68.6084 81.3768 68.6084C82.7907 68.6084 84.1201 69.159 85.1199 70.1589C86.1197 71.1587 86.6704 72.488 86.6704 73.902C86.6704 75.316 86.1197 76.6453 85.1199 77.6452C84.1201 78.645 82.7907 79.1956 81.3768 79.1956Z" fill="white"/>
<path id="Vector_88" d="M81.3768 78.4013C80.1748 78.4013 79.0448 77.9332 78.1948 77.0833C77.3449 76.2334 76.8768 75.1033 76.8768 73.9013C76.8768 72.6994 77.3449 71.5693 78.1948 70.7194C79.0448 69.8694 80.1748 69.4014 81.3768 69.4014C82.5788 69.4014 83.7088 69.8694 84.5588 70.7194C85.4087 71.5693 85.8768 72.6994 85.8768 73.9014C85.8768 75.1033 85.4087 76.2334 84.5588 77.0833C83.7088 77.9332 82.5788 78.4013 81.3768 78.4013Z" fill="#F6471E"/>
<path id="Vector_89" d="M81.3765 77.608C80.3865 77.608 79.4558 77.2224 78.7557 76.5224C78.0557 75.8224 77.6702 74.8916 77.6702 73.9016C77.6702 72.9117 78.0557 71.9809 78.7557 71.2809C79.4558 70.5808 80.3865 70.1953 81.3765 70.1953C82.3665 70.1953 83.2972 70.5808 83.9973 71.2809C84.6973 71.9809 85.0828 72.9117 85.0828 73.9016C85.0828 74.8916 84.6973 75.8224 83.9973 76.5224C83.2972 77.2224 82.3664 77.608 81.3765 77.608Z" fill="white"/>
<path id="Vector_90" d="M81.3765 76.8146C80.5985 76.8146 79.8671 76.5117 79.317 75.9615C78.7668 75.4114 78.4639 74.68 78.4639 73.9019C78.4639 73.1239 78.7669 72.3925 79.317 71.8423C79.8671 71.2922 80.5985 70.9893 81.3765 70.9893C82.1546 70.9893 82.886 71.2922 83.4361 71.8424C83.9863 72.3925 84.2892 73.1239 84.2892 73.9019C84.2892 74.6799 83.9863 75.4114 83.4361 75.9615C82.886 76.5117 82.1545 76.8146 81.3765 76.8146Z" fill="#F6471E"/>
<path id="Vector_91" d="M81.3766 76.0203C80.8106 76.0203 80.2785 75.7999 79.8782 75.3996C79.478 74.9994 79.2576 74.4673 79.2576 73.9012C79.2576 73.3353 79.478 72.8031 79.8782 72.4028C80.2784 72.0026 80.8106 71.7822 81.3766 71.7822C81.9426 71.7822 82.4747 72.0026 82.875 72.4029C83.2752 72.8031 83.4956 73.3353 83.4956 73.9013C83.4956 74.4673 83.2752 74.9994 82.875 75.3997C82.4748 75.7999 81.9426 76.0203 81.3766 76.0203Z" fill="white"/>
<path id="Vector_92" d="M81.3766 75.227C81.0226 75.227 80.6898 75.0891 80.4395 74.8388C80.1891 74.5884 80.0513 74.2556 80.0513 73.9016C80.0513 73.5475 80.1891 73.2147 80.4395 72.9643C80.6898 72.714 81.0226 72.5762 81.3767 72.5762C81.7307 72.5762 82.0635 72.714 82.3139 72.9644C82.5642 73.2147 82.702 73.5475 82.702 73.9016C82.702 74.2556 82.5642 74.5884 82.3139 74.8388C82.0635 75.0891 81.7306 75.227 81.3766 75.227Z" fill="#F6471E"/>
<path id="Vector_93" d="M81.3767 74.4336C81.2326 74.4336 81.1026 74.3797 81.0007 74.2779C80.8989 74.176 80.845 74.0459 80.845 73.9019C80.845 73.7578 80.8988 73.6277 81.0007 73.5258C81.1026 73.424 81.2326 73.3701 81.3767 73.3701C81.5208 73.3701 81.6508 73.424 81.7527 73.5259C81.8546 73.6277 81.9085 73.7578 81.9085 73.9019C81.9085 74.046 81.8546 74.176 81.7527 74.2778C81.6508 74.3797 81.5208 74.4336 81.3767 74.4336Z" fill="white"/>
</g>
</g>
<g id="Group_42">
<g id="Group_43">
<path id="Vector_94" d="M81.5222 73.7675L86.7122 70.3457" stroke="#1B1464" stroke-width="0.132527" stroke-miterlimit="10"/>
<g id="Group_44">
<path id="Vector_95" d="M81.5573 73.7443C81.5883 73.5931 81.5129 73.3842 81.4341 73.2568C81.4198 73.5071 81.354 73.7605 81.2117 73.9721C81.4599 73.9212 81.7175 73.9741 81.9567 74.0495C81.8577 73.9227 81.7179 73.7818 81.5573 73.7443Z" fill="#1B1464"/>
</g>
<g id="Group_45">
<g id="Group_46">
<path id="Vector_96" d="M87.1312 70.5122L87.1074 70.5055L86.6893 70.4216L87.4458 69.9229L87.8919 70.0106L87.1312 70.5122Z" fill="#1B1464"/>
<path id="Vector_97" d="M87.4896 69.4004L87.3885 69.836L86.6321 70.3348C86.6819 70.196 86.7138 70.0498 86.731 69.9005L87.4896 69.4004Z" fill="#1B1464"/>
</g>
</g>
</g>
</g>
</g>
</g>
<g id="Group_47">
<g id="Group_48">
<path id="Vector_98" d="M74.112 81.0655C75.1343 81.295 77.0296 82.6237 77.5084 83.7469C77.6343 84.042 77.3094 84.1256 77.2642 84.4057C77.2171 84.6976 77.0367 85.0656 76.7461 85.2512C75.7357 85.8964 74.0156 86.1324 73.0243 85.9099C71.7334 85.62 70.9304 84.3007 71.2307 82.9629C71.5311 81.6252 72.821 80.7757 74.112 81.0655Z" fill="#FDB606"/>
<path id="Vector_99" d="M73.1587 85.5414C73.0893 85.5349 73.0202 85.5228 72.9518 85.5066C72.8835 85.4905 72.816 85.4697 72.7497 85.4451C72.7413 85.4423 72.7332 85.4388 72.7249 85.4356L72.7002 85.4258C72.6838 85.4192 72.6676 85.412 72.6513 85.4051C72.635 85.398 72.6191 85.3903 72.6029 85.3828C72.5869 85.3751 72.5712 85.367 72.5552 85.3591C72.4919 85.3268 72.4305 85.2903 72.3712 85.2505C72.2527 85.171 72.1431 85.0773 72.0448 84.9728C71.9466 84.8683 71.8598 84.7528 71.7863 84.6296C71.639 84.3831 71.5452 84.1051 71.5136 83.8218C71.5056 83.751 71.5014 83.6799 71.5013 83.609L71.5012 83.5824L71.5018 83.5558L71.5024 83.5293C71.5027 83.5204 71.5032 83.5116 71.5037 83.5027L71.5051 83.4762C71.5057 83.4674 71.5065 83.4586 71.5072 83.4498L71.5093 83.4234C71.51 83.4146 71.511 83.4058 71.512 83.3971C71.514 83.3795 71.5158 83.362 71.5184 83.3445C71.5208 83.3271 71.5229 83.3096 71.5261 83.2923C71.5292 83.2749 71.5318 83.2576 71.5354 83.2404C71.5371 83.2317 71.5387 83.2231 71.5405 83.2145L71.5431 83.2016L71.5461 83.1888C71.5613 83.1203 71.5803 83.0529 71.6041 82.9873C71.5977 83.0568 71.5926 83.1257 71.5901 83.1945C71.5891 83.2289 71.5881 83.2632 71.5883 83.2974C71.5881 83.3145 71.5885 83.3316 71.5887 83.3487C71.5888 83.3658 71.5896 83.3828 71.5902 83.3999C71.5906 83.4084 71.5907 83.4169 71.5912 83.4254L71.5926 83.4508C71.5931 83.4593 71.5934 83.4678 71.594 83.4763L71.596 83.5017L71.598 83.5271L71.6004 83.5524L71.6028 83.5777L71.6057 83.6029C71.6138 83.6701 71.6242 83.7367 71.6374 83.8027C71.664 83.9345 71.7011 84.0637 71.7488 84.1884C71.7966 84.3132 71.8548 84.4335 71.923 84.548C71.9912 84.6624 72.0694 84.7708 72.1568 84.8716C72.2441 84.9724 72.3406 85.0656 72.4452 85.1498C72.4975 85.1919 72.5519 85.2316 72.6079 85.2692C72.6221 85.2784 72.6361 85.2878 72.6504 85.2968L72.6936 85.3235C72.7082 85.3321 72.7226 85.341 72.7374 85.3494L72.7819 85.3742C72.8415 85.4069 72.903 85.4369 72.9658 85.4647C73.0287 85.4925 73.0931 85.5176 73.1587 85.5414Z" fill="white"/>
</g>
<g id="Group_49">
<path id="Vector_100" d="M77.4369 83.8573L77.4225 83.9215L75.5359 83.4979C75.6225 83.8927 75.5313 84.2527 75.5297 84.2591C75.5143 84.3152 75.4981 84.3661 75.481 84.412L77.0986 84.7752L77.0842 84.8393L75.4562 84.4738C75.4035 84.595 75.3431 84.6729 75.2735 84.71C75.2217 84.7375 75.1662 84.7416 75.1084 84.7222C74.986 84.681 74.9548 84.5741 74.9782 84.4905C75.0032 84.401 75.0944 84.3252 75.2202 84.3535L75.4163 84.3975C75.4338 84.3514 75.4504 84.2995 75.4662 84.242C75.4678 84.2361 75.5598 83.8713 75.4648 83.482L74.622 83.2927C74.5041 83.2663 74.4061 83.1908 74.3599 83.0908C74.3207 83.006 74.3227 82.9201 74.3659 82.8354C74.4101 82.7489 74.4886 82.6841 74.587 82.6529C74.6973 82.6178 74.8201 82.6291 74.924 82.6837C75.2745 82.8678 75.443 83.151 75.5184 83.4266L77.4369 83.8573ZM75.0398 84.5147C75.0284 84.5655 75.0451 84.6316 75.1293 84.6598C75.1699 84.6735 75.207 84.6709 75.2426 84.6519C75.2965 84.6232 75.3462 84.5586 75.3909 84.4591L75.2059 84.4175C75.116 84.3974 75.0577 84.4503 75.0415 84.5082C75.0409 84.5103 75.0403 84.5125 75.0398 84.5147ZM74.4027 82.9243C74.3923 82.9706 74.3979 83.0165 74.4195 83.0632C74.4572 83.1448 74.5383 83.2066 74.6364 83.2286L75.4452 83.4102C75.369 83.1599 75.2094 82.9078 74.8935 82.7418C74.805 82.6953 74.7005 82.6857 74.6069 82.7155C74.5253 82.7414 74.4605 82.7945 74.4245 82.8652C74.4143 82.8851 74.4071 82.9047 74.4027 82.9243Z" fill="#040C2B"/>
</g>
<g id="Group_50">
<path id="Vector_101" d="M76.9773 82.9473L78.6163 83.3152C78.6672 83.3267 78.7159 83.3429 78.7618 83.3633C79.0921 83.5101 79.2841 83.8738 79.2019 84.2399L78.9826 85.2171C78.9383 85.4144 78.8222 85.5771 78.6681 85.6837C78.5363 85.775 78.3766 85.8254 78.21 85.8214C78.1597 85.8203 78.1088 85.8141 78.0579 85.8027L76.4188 85.4347L76.9773 82.9473Z" fill="#829CF8"/>
<g id="Group_51" opacity="0.5">
<path id="Vector_102" d="M77.1981 83.0009L76.6395 85.4883L76.8292 85.5309L77.3878 83.0435L77.1981 83.0009Z" fill="white"/>
<path id="Vector_103" d="M77.6583 83.1044L77.0997 85.5918L77.2894 85.6344L77.848 83.1469L77.6583 83.1044Z" fill="white"/>
<path id="Vector_104" d="M78.1185 83.2069L77.5599 85.6943L77.7496 85.7369L78.3082 83.2495L78.1185 83.2069Z" fill="white"/>
<path id="Vector_105" d="M78.5758 83.3057L78.6166 83.3148C78.6676 83.3263 78.7162 83.3425 78.7622 83.3629L78.2103 85.8211C78.16 85.8199 78.1091 85.8137 78.0581 85.8023L78.0173 85.7932L78.5758 83.3057Z" fill="white"/>
</g>
<path id="Vector_106" opacity="0.1" d="M76.9771 82.9473L78.6162 83.3152C78.6671 83.3267 78.7158 83.3429 78.7617 83.3633C79.092 83.5101 79.284 83.8738 79.2018 84.2399L78.9824 85.2171C78.9381 85.4144 78.8221 85.5771 78.668 85.6837C78.8481 85.354 78.8984 85.0089 78.8988 84.7278C78.8995 84.2572 78.6082 83.8371 78.1674 83.6726C77.7446 83.5148 77.2268 83.4365 76.8757 83.3989L76.9771 82.9473Z" fill="black"/>
</g>
</g>
</g>
</g>
<g id="Group_52">
<g id="Group_53">
<path id="Vector_107" d="M99.1023 58.7954L94.4116 58.6043C93.8906 58.5831 93.4511 58.9882 93.4299 59.5092L93.2631 63.6028C93.2419 64.1238 93.647 64.5633 94.168 64.5846L98.8587 64.7756C99.3797 64.7969 99.8192 64.3917 99.8405 63.8708L100.007 59.7771C100.028 59.2562 99.6233 58.8166 99.1023 58.7954Z" fill="#DEE4FC"/>
<g id="Group_54">
<g id="Group_55">
<g id="Group_56">
<path id="Vector_108" d="M94.4166 61.0293V63.3658H95.8024V61.0293H94.4166ZM95.418 63.1682C95.2995 63.1682 95.2034 63.0759 95.2034 62.962C95.2034 62.8482 95.2995 62.7559 95.418 62.7559C95.5365 62.7559 95.6325 62.8482 95.6325 62.962C95.6325 63.0759 95.5365 63.1682 95.418 63.1682Z" fill="white"/>
<path id="Vector_109" d="M96.1692 61.3382V63.1678C96.1692 63.1678 96.4236 63.1027 96.635 63.3452C96.6443 63.3559 96.6519 63.3678 96.6579 63.3804C96.6807 63.4279 96.781 63.5716 97.1616 63.5716H98.169C98.1791 63.5716 98.1892 63.5706 98.1992 63.5688C98.2676 63.5557 98.5033 63.4874 98.4935 63.1656C98.4919 63.1136 98.5183 63.0648 98.5632 63.0357C98.6583 62.974 98.795 62.8221 98.7022 62.4801C98.6908 62.438 98.6989 62.3931 98.7249 62.3574C98.8061 62.2458 98.9552 61.9859 98.7553 61.7935C98.7187 61.7583 98.7033 61.7076 98.7136 61.6588C98.7433 61.5179 98.7571 61.2406 98.4321 61.1702C98.4206 61.1677 98.4088 61.1664 98.3971 61.1664H97.7952C97.7019 61.1664 97.6296 61.0882 97.6404 60.9992C97.6936 60.5626 97.7827 59.4537 97.2398 59.9249C97.2134 59.9479 97.1956 59.9786 97.1899 60.0124C97.1502 60.2479 96.9353 61.2623 96.1692 61.3382Z" fill="white"/>
</g>
</g>
</g>
</g>
<g id="Group_57">
<path id="Vector_110" d="M33.146 48.4334H28.3689C27.8475 48.4334 27.4248 48.0107 27.4248 47.4893V43.2976C27.4248 42.7762 27.8475 42.3535 28.3689 42.3535H33.146C33.6674 42.3535 34.09 42.7762 34.09 43.2976V47.4893C34.09 48.0108 33.6674 48.4334 33.146 48.4334Z" fill="#DEE4FC"/>
<g id="Group_58">
<g id="Group_59">
<path id="Vector_111" d="M30.7576 44.4627C29.7475 43.1074 28.9743 44.4639 29.1434 45.1982C29.3454 46.0748 30.6519 46.836 30.7544 46.8946V46.8982C30.7544 46.8982 30.7556 46.8976 30.7576 46.8964C30.7597 46.8976 30.7608 46.8982 30.7608 46.8982V46.8946C30.8634 46.836 32.1698 46.0748 32.3718 45.1982C32.541 44.4639 31.7678 43.1074 30.7576 44.4627Z" fill="white"/>
</g>
</g>
</g>
<g id="Group_60">
<path id="Vector_112" d="M18.607 58.4578H13.83C13.3086 58.4578 12.8859 58.0352 12.8859 57.5138V53.322C12.8859 52.8006 13.3086 52.3779 13.83 52.3779H18.607C19.1284 52.3779 19.5511 52.8006 19.5511 53.322V57.5138C19.5511 58.0352 19.1284 58.4578 18.607 58.4578Z" fill="#DEE4FC"/>
<path id="Vector_113" d="M16.6426 53.7812H15.7941C15.2511 53.7812 14.8109 54.1503 14.8109 54.6055V55.3169C14.8109 55.7675 15.2423 56.1336 15.7777 56.141C15.7609 56.4436 15.6955 56.8891 15.4629 57.0544C15.4629 57.0544 16.2091 56.5702 16.5214 56.1411H16.6426C17.1856 56.1411 17.6258 55.7721 17.6258 55.3169V54.6055C17.6257 54.1503 17.1856 53.7812 16.6426 53.7812Z" fill="white"/>
</g>
<g id="Group_61">
<path id="Vector_114" d="M22.8892 72.6971H18.1946C17.6732 72.6971 17.2505 72.2744 17.2505 71.753V67.656C17.2505 67.1346 17.6732 66.7119 18.1946 66.7119H22.8892C23.4106 66.7119 23.8333 67.1346 23.8333 67.656V71.753C23.8333 72.2744 23.4106 72.6971 22.8892 72.6971Z" fill="#DEE4FC"/>
<g id="Group_62">
<g id="Group_63">
<g id="Group_64">
<path id="Vector_115" d="M22.6322 68.4146V70.9946C22.6322 71.0471 22.6153 71.0956 22.5869 71.1351C22.561 71.1702 22.5262 71.1983 22.4857 71.2155C22.4571 71.2277 22.4255 71.2344 22.3924 71.2344H18.693C18.66 71.2344 18.6284 71.2277 18.5998 71.2155C18.5592 71.1983 18.5244 71.1702 18.4985 71.1351C18.4702 71.0956 18.4532 71.0471 18.4532 70.9946V68.4146C18.4532 68.3746 18.4632 68.3365 18.4806 68.3034C18.5002 68.2658 18.5296 68.2343 18.5652 68.2119C18.6022 68.1882 18.646 68.1748 18.693 68.1748H22.3924C22.4394 68.1748 22.4832 68.1882 22.5203 68.2119C22.5558 68.2343 22.5852 68.2658 22.6048 68.3034C22.6222 68.3365 22.6322 68.3746 22.6322 68.4146Z" fill="white"/>
</g>
<g id="Group_65">
<path id="Vector_116" d="M22.6045 68.3034L20.8285 69.8492L20.7322 69.933L20.6927 69.9673C20.6499 70.0046 20.5962 70.0233 20.5424 70.0233C20.4887 70.0233 20.435 70.0046 20.3922 69.9673L20.3527 69.933L20.2564 69.8492L18.4803 68.3034C18.5 68.2659 18.5293 68.2343 18.5649 68.2119L20.3594 69.7738L20.4556 69.8576L20.4738 69.8735C20.5129 69.9073 20.5721 69.9073 20.6111 69.8735L20.6293 69.8576L20.7255 69.7738L22.52 68.2119C22.5555 68.2343 22.5849 68.2659 22.6045 68.3034Z" fill="#829CF8"/>
</g>
<g id="Group_66">
<path id="Vector_117" d="M20.4556 69.8582L20.3526 69.9336L18.5994 71.2161C18.5589 71.199 18.524 71.1709 18.4982 71.1358L20.2563 69.8498L20.3593 69.7744L20.4556 69.8582Z" fill="#829CF8"/>
<path id="Vector_118" d="M22.5864 71.1358C22.5605 71.1709 22.5257 71.199 22.4852 71.2161L20.732 69.9336L20.629 69.8582L20.7253 69.7744L20.8283 69.8498L22.5864 71.1358Z" fill="#829CF8"/>
</g>
</g>
</g>
</g>
<g id="Group_67">
<path id="Vector_119" d="M106.069 44.0027L101.376 44.0983C100.854 44.1089 100.423 43.6949 100.413 43.1736L100.329 39.0774C100.319 38.5561 100.733 38.1249 101.254 38.1143L105.947 38.0188C106.469 38.0081 106.9 38.4221 106.911 38.9434L106.994 43.0396C107.005 43.5609 106.591 43.9921 106.069 44.0027Z" fill="#DEE4FC"/>
<g id="Group_68">
<g id="Group_69">
<g id="Group_70">
<path id="Vector_120" d="M105.683 42.0333L105.667 42.3396L105.666 42.3457L105.668 42.3462L105.809 42.3942C105.783 42.4861 105.745 42.5721 105.696 42.6498C105.695 42.6512 105.694 42.6526 105.693 42.654L105.639 42.6275L105.55 42.5838L105.366 42.8295L105.432 42.922C105.355 42.973 105.27 43.0117 105.18 43.0357L105.151 42.8915L104.856 42.8856L104.811 43.0488C104.712 43.03 104.619 42.9934 104.535 42.9423L104.621 42.7978L104.419 42.5698L104.255 42.6689L104.254 42.6697C104.25 42.6638 104.246 42.6578 104.242 42.6518C104.178 42.5502 104.133 42.4345 104.112 42.3102L104.256 42.2781L104.273 41.9656L104.124 41.919C104.15 41.807 104.195 41.7031 104.256 41.6114L104.409 41.703L104.616 41.4786L104.534 41.3407C104.64 41.2755 104.76 41.2331 104.887 41.2197L104.919 41.4054L105.214 41.4202L105.261 41.2663C105.288 41.2552 105.449 41.3565 105.527 41.4248L105.432 41.5638L105.629 41.8042L105.757 41.7341C105.795 41.8177 105.822 41.9085 105.834 42.0038L105.683 42.0333ZM104.983 41.5535C104.873 41.5513 104.768 41.5829 104.677 41.6441C104.645 41.665 104.616 41.6894 104.589 41.7172C104.482 41.8257 104.421 41.9717 104.417 42.1282C104.414 42.2847 104.468 42.4329 104.57 42.5457C104.672 42.6585 104.81 42.7222 104.958 42.7252C105.105 42.7282 105.246 42.6701 105.353 42.5615C105.459 42.453 105.52 42.307 105.524 42.1505C105.527 41.994 105.473 41.8457 105.371 41.733C105.36 41.7215 105.35 41.7105 105.339 41.7C105.241 41.6079 105.116 41.5562 104.983 41.5535Z" fill="white"/>
</g>
</g>
<g id="Group_71">
<g id="Group_72">
<path id="Vector_121" d="M105.429 40.0254L105.41 40.3848L105.41 40.3919L105.411 40.3925L105.565 40.4486C105.537 40.5565 105.495 40.6575 105.441 40.7486C105.44 40.7503 105.439 40.752 105.438 40.7536L105.379 40.7226L105.282 40.6715L105.08 40.9601L105.152 41.0685C105.068 41.1284 104.975 41.174 104.877 41.2022L104.845 41.0332L104.522 41.0267L104.473 41.2183C104.365 41.1963 104.263 41.1535 104.171 41.0937L104.265 40.9241L104.045 40.6569L103.866 40.7734L103.864 40.7744C103.86 40.7675 103.856 40.7605 103.852 40.7534C103.782 40.6343 103.733 40.4986 103.71 40.3529L103.868 40.315L103.886 39.9483L103.723 39.8939C103.752 39.7624 103.802 39.6405 103.869 39.5328L104.036 39.64L104.263 39.3765L104.173 39.2147C104.289 39.1381 104.42 39.0882 104.559 39.0723L104.594 39.2901L104.917 39.3069L104.968 39.1262C104.997 39.1133 105.173 39.2318 105.259 39.3118L105.154 39.475L105.37 39.7568L105.509 39.6743C105.551 39.7724 105.58 39.8788 105.594 39.9906L105.429 40.0254ZM104.664 39.4636C104.544 39.4612 104.428 39.4985 104.328 39.5704C104.294 39.595 104.262 39.6237 104.232 39.6563C104.115 39.7838 104.048 39.9552 104.044 40.1388C104.04 40.3224 104.099 40.4962 104.21 40.6284C104.322 40.7605 104.472 40.8351 104.634 40.8384C104.795 40.8416 104.949 40.7732 105.066 40.6456C105.183 40.5181 105.25 40.3468 105.254 40.1632C105.258 39.9796 105.199 39.8057 105.087 39.6735C105.076 39.66 105.064 39.6472 105.052 39.6349C104.945 39.527 104.809 39.4665 104.664 39.4636Z" fill="white"/>
</g>
</g>
<g id="Group_73">
<g id="Group_74">
<path id="Vector_122" d="M103.851 41.3388L103.825 41.8337L103.825 41.8436L103.827 41.8444L104.038 41.9216C104 42.0702 103.942 42.2092 103.868 42.3348C103.867 42.3371 103.866 42.3393 103.864 42.3416L103.783 42.2989L103.649 42.2286L103.372 42.6259L103.47 42.7752C103.355 42.8577 103.227 42.9205 103.092 42.9594L103.048 42.7266L102.604 42.7177L102.537 42.9815C102.388 42.9512 102.248 42.8923 102.122 42.81L102.251 42.5764L101.949 42.2085L101.702 42.369L101.699 42.3704C101.694 42.3608 101.688 42.3512 101.682 42.3414C101.587 42.1775 101.519 41.9906 101.487 41.7899L101.705 41.7377L101.73 41.2328L101.506 41.1579C101.546 40.9768 101.615 40.8089 101.706 40.6606L101.936 40.8082L102.248 40.4453L102.125 40.2226C102.284 40.1171 102.464 40.0483 102.655 40.0264L102.704 40.3263L103.147 40.3494L103.217 40.1007C103.258 40.0828 103.499 40.2461 103.617 40.3561L103.474 40.581L103.77 40.969L103.962 40.8553C104.019 40.9904 104.059 41.1369 104.078 41.291L103.851 41.3388ZM102.8 40.5653C102.634 40.562 102.475 40.6133 102.338 40.7124C102.291 40.7462 102.246 40.7857 102.205 40.8306C102.044 41.0062 101.953 41.2422 101.947 41.495C101.941 41.7478 102.023 41.9873 102.176 42.1692C102.329 42.3512 102.536 42.4538 102.758 42.4583C102.98 42.4628 103.191 42.3686 103.352 42.193C103.513 42.0173 103.605 41.7814 103.61 41.5286C103.616 41.2757 103.535 41.0363 103.382 40.8544C103.366 40.8358 103.35 40.8181 103.333 40.8013C103.186 40.6525 102.999 40.5694 102.8 40.5653Z" fill="white"/>
</g>
</g>
</g>
</g>
<g id="Group_75">
<g id="Group_76">
<path id="Vector_123" d="M90.7209 35.0692H86.0262C85.5048 35.0692 85.0822 34.6465 85.0822 34.1251V30.0281C85.0822 29.5067 85.5048 29.084 86.0262 29.084H90.7209C91.2423 29.084 91.6649 29.5067 91.6649 30.0281V34.1251C91.6649 34.6465 91.2423 35.0692 90.7209 35.0692Z" fill="#DEE4FC"/>
</g>
<g id="Group_77">
<path id="Vector_124" d="M90.7714 33.494L88.4805 32.0054C88.5491 31.7972 88.5712 31.5681 88.5354 31.3335C88.4178 30.564 87.7242 30.0273 86.9861 30.1348C86.248 30.2423 85.745 30.9533 85.8626 31.7228C85.9802 32.4923 86.6739 33.029 87.4119 32.9215C87.7228 32.8762 87.9916 32.7236 88.1902 32.505L90.4655 33.9828C90.5969 34.0732 90.772 34.0371 90.8565 33.9021C90.9409 33.7672 90.9028 33.5845 90.7714 33.494ZM87.3732 32.6682C86.7703 32.756 86.2016 32.316 86.1056 31.6874C86.0096 31.0588 86.4219 30.476 87.0248 30.3882C87.6277 30.3003 88.1963 30.7403 88.2924 31.3689C88.3884 31.9975 87.9761 32.5804 87.3732 32.6682Z" fill="white"/>
<g id="Group_78">
<g id="Group_79">
<path id="Vector_125" d="M86.3121 31.0869C86.2979 31.1788 86.2899 31.2707 86.2868 31.3624C86.2843 31.4541 86.2873 31.5456 86.2984 31.636L86.3074 31.7037L86.3212 31.7705C86.3247 31.7931 86.3319 31.8147 86.3378 31.8366C86.3444 31.8584 86.3489 31.8809 86.3575 31.902L86.3809 31.9664C86.3894 31.9875 86.3999 32.0078 86.4093 32.0288L86.4234 32.0603L86.4406 32.0901C86.4522 32.1101 86.4635 32.1303 86.4746 32.1509C86.4597 32.1333 86.4448 32.1153 86.4302 32.0969C86.4229 32.0878 86.4155 32.0787 86.4085 32.0692L86.39 32.0394C86.3781 32.0193 86.3652 31.9994 86.3541 31.9786L86.3248 31.9144C86.2894 31.8272 86.264 31.7351 86.2538 31.6414C86.2433 31.5478 86.2422 31.4533 86.252 31.36C86.2618 31.2669 86.2798 31.1744 86.3121 31.0869Z" fill="white"/>
</g>
</g>
</g>
</g>
<g id="Group_80">
<path id="Vector_126" d="M41.3194 28.5115L36.6258 28.6071C36.1045 28.6177 35.6733 28.2037 35.6627 27.6824L35.5793 23.5862C35.5687 23.0649 35.9827 22.6337 36.504 22.6231L41.1976 22.5275C41.7189 22.5169 42.1501 22.9309 42.1607 23.4522L42.2441 27.5484C42.2547 28.0697 41.8407 28.5009 41.3194 28.5115Z" fill="#DEE4FC"/>
<g id="Group_81">
<path id="Vector_127" d="M38.6732 25.694L40.3555 24.0117C40.5698 24.2315 40.739 24.4859 40.8585 24.7684C40.9828 25.0622 41.0476 25.3734 41.0514 25.694H38.6732Z" fill="#829CF8"/>
<path id="Vector_128" d="M38.6288 23.584C38.9065 23.588 39.1761 23.6445 39.4306 23.7521C39.6762 23.856 39.8977 24.003 40.0893 24.1894L38.6288 25.6499V23.584Z" fill="#ACBCF8"/>
<g id="Group_82">
<path id="Vector_129" d="M38.5971 27.5521C38.1092 27.5521 37.6506 27.3621 37.3056 27.0171C36.9606 26.6721 36.7706 26.2135 36.7706 25.7256C36.7706 25.2377 36.9606 24.7791 37.3056 24.4341C37.6431 24.0965 38.0896 23.9074 38.5657 23.8994V25.7586H40.4233C40.4149 26.2344 40.2256 26.6804 39.8881 27.0177C39.5432 27.3623 39.0847 27.5521 38.5971 27.5521Z" fill="white"/>
</g>
</g>
</g>
</g>
</g>
</g>
</svg>
