<svg width="15" height="16" viewBox="0 0 15 16" fill="none" xmlns="http://www.w3.org/2000/svg">
<g id="megaphone 1">
<path id="Vector" d="M12.1465 9.8535L11.0025 8.7095L11.7095 8.0025L12.8535 9.1465L12.1465 9.8535ZM12.8535 4.8535L12.1465 4.1465L11.0215 5.2715L11.7285 5.9785L12.8535 4.8535ZM13 6.5H11.5V7.5H13V6.5ZM5.185 10.5H2.3695L3.925 14H4.625C4.85411 13.9999 5.07957 13.9425 5.2809 13.8332C5.48224 13.7238 5.65309 13.566 5.77795 13.3739C5.9028 13.1818 5.97771 12.9615 5.99588 12.7331C6.01406 12.5047 5.97491 12.2754 5.882 12.066L5.185 10.5ZM10 2V12H9C8.99921 11.3372 8.73556 10.7018 8.26689 10.2331C7.79822 9.76444 7.1628 9.50079 6.5 9.5H2.5C2.10218 9.5 1.72064 9.34196 1.43934 9.06066C1.15804 8.77936 1 8.39782 1 8V6C1 5.60218 1.15804 5.22064 1.43934 4.93934C1.72064 4.65804 2.10218 4.5 2.5 4.5H6.5C7.1628 4.49921 7.79822 4.23556 8.26689 3.76689C8.73556 3.29822 8.99921 2.6628 9 2H10Z" fill="#FB6B00"/>
</g>
</svg>
