<svg width="13" height="14" viewBox="0 0 13 14" fill="none" xmlns="http://www.w3.org/2000/svg">
<g id="uis:schedule">
<path id="Vector" d="M10.0444 2.33366H9.51571V1.75033C9.51571 1.40033 9.30425 1.16699 8.98706 1.16699C8.66987 1.16699 8.45842 1.40033 8.45842 1.75033V2.33366H4.22925V1.75033C4.22925 1.40033 4.01779 1.16699 3.7006 1.16699C3.38341 1.16699 3.17196 1.40033 3.17196 1.75033V2.33366H2.64331C1.74461 2.33366 1.05737 3.09199 1.05737 4.08366V4.66699H11.6303V4.08366C11.6303 3.09199 10.9431 2.33366 10.0444 2.33366ZM1.05737 11.0837C1.05737 12.0753 1.74461 12.8337 2.64331 12.8337H10.0444C10.9431 12.8337 11.6303 12.0753 11.6303 11.0837V5.83366H1.05737V11.0837ZM8.98706 7.00033C9.30425 7.00033 9.51571 7.23366 9.51571 7.58366C9.51571 7.93366 9.30425 8.16699 8.98706 8.16699C8.66987 8.16699 8.45842 7.93366 8.45842 7.58366C8.45842 7.23366 8.66987 7.00033 8.98706 7.00033ZM8.98706 9.33366C9.30425 9.33366 9.51571 9.56699 9.51571 9.91699C9.51571 10.267 9.30425 10.5003 8.98706 10.5003C8.66987 10.5003 8.45842 10.267 8.45842 9.91699C8.45842 9.56699 8.66987 9.33366 8.98706 9.33366ZM6.34383 7.00033C6.66102 7.00033 6.87248 7.23366 6.87248 7.58366C6.87248 7.93366 6.66102 8.16699 6.34383 8.16699C6.02664 8.16699 5.81519 7.93366 5.81519 7.58366C5.81519 7.23366 6.02664 7.00033 6.34383 7.00033ZM6.34383 9.33366C6.66102 9.33366 6.87248 9.56699 6.87248 9.91699C6.87248 10.267 6.66102 10.5003 6.34383 10.5003C6.02664 10.5003 5.81519 10.267 5.81519 9.91699C5.81519 9.56699 6.02664 9.33366 6.34383 9.33366ZM3.7006 7.00033C4.01779 7.00033 4.22925 7.23366 4.22925 7.58366C4.22925 7.93366 4.01779 8.16699 3.7006 8.16699C3.38341 8.16699 3.17196 7.93366 3.17196 7.58366C3.17196 7.23366 3.38341 7.00033 3.7006 7.00033ZM3.7006 9.33366C4.01779 9.33366 4.22925 9.56699 4.22925 9.91699C4.22925 10.267 4.01779 10.5003 3.7006 10.5003C3.38341 10.5003 3.17196 10.267 3.17196 9.91699C3.17196 9.56699 3.38341 9.33366 3.7006 9.33366Z" fill="#FB6B00"/>
</g>
</svg>
