<svg width="162" height="145" viewBox="0 0 162 145" fill="none" xmlns="http://www.w3.org/2000/svg">
<g clip-path="url(#clip0_5274_18248)">
<path d="M38.9739 40.6435C38.8715 41.3961 39.3989 42.0822 40.1515 42.1846C40.9042 42.287 41.5902 41.7596 41.6926 41.007C41.795 40.2543 41.2677 39.5682 40.515 39.4658C39.7624 39.3634 39.0763 39.8908 38.9739 40.6435Z" fill="#FF8200"/>
<path d="M33.3264 32.3542C33.1267 33.8544 34.1763 35.2368 35.6816 35.4365C37.1818 35.6361 38.5642 34.5865 38.7639 33.0812C38.9635 31.5811 37.9139 30.1987 36.4086 29.999C34.9085 29.7993 33.526 30.8489 33.3264 32.3542Z" fill="#FF8200"/>
<path d="M21.702 23.7737C27.4575 19.1627 28.3853 10.759 23.7743 5.00358C19.1633 -0.751873 10.7596 -1.67965 5.00418 2.93134C-0.751275 7.54233 -1.67905 15.946 2.93194 21.7014C7.54293 27.4569 15.9466 28.3847 21.702 23.7737Z" fill="#FF8200"/>
<path d="M32.8948 22.4461C32.9551 18.0777 29.4626 14.4875 25.0942 14.4273C20.7258 14.3671 17.1356 17.8595 17.0754 22.228C17.0151 26.5964 20.5076 30.1865 24.876 30.2468C29.2445 30.307 32.8346 26.8145 32.8948 22.4461Z" fill="#FF8200"/>
<path d="M25.7335 17.5008C25.4878 17.1168 25.1703 16.7635 24.7915 16.4717C23.2964 15.3145 21.2586 15.3401 19.7994 16.4L11.9299 10.2201L7.56246 6.78965C7.19382 6.49781 6.66133 6.56437 6.36949 6.93301L5.48884 8.0543L4.71571 9.03736C4.46995 9.34968 4.52627 9.80024 4.83859 10.0409L4.93588 10.1177C5.2482 10.3635 5.69876 10.3071 5.93941 9.99993L6.71253 9.01688L7.42422 9.57496L6.65109 10.558C6.40533 10.8703 6.46165 11.3158 6.77397 11.5615L6.90198 11.6639C7.2143 11.9097 7.66486 11.8534 7.90551 11.5462L8.67864 10.5631L9.39544 11.1212L8.65304 12.0735C8.42263 12.3705 8.42263 12.8006 8.694 13.0617C9.00632 13.3638 9.49784 13.3228 9.75385 12.99L10.527 12.007L18.3965 18.1869C18.1866 18.6938 18.0842 19.2314 18.0842 19.769C18.0842 21.0029 18.632 22.2215 19.6765 23.0458C21.5402 24.5102 24.2538 24.1364 25.6465 22.1857C26.6552 20.7725 26.6347 18.8935 25.7335 17.4957V17.5008ZM23.7572 22.0935C23.5575 22.0781 23.3527 22.0013 23.1838 21.8682C22.7229 21.5047 22.641 20.834 23.0046 20.368C23.3681 19.9021 24.0388 19.8253 24.4996 20.1837C24.6737 20.322 24.7915 20.5012 24.8529 20.6957C24.9553 21.0234 24.9041 21.392 24.6737 21.6839C24.4433 21.9757 24.09 22.1191 23.747 22.0884L23.7572 22.0935Z" fill="white"/>
<path d="M25.6466 22.1909C24.2539 24.1366 21.5403 24.5155 19.6766 23.0511C18.6321 22.2319 18.0842 21.0082 18.0842 19.7743C18.755 21.1465 19.8148 22.3599 21.4635 22.6159C22.426 22.7644 23.1736 22.534 23.7624 22.0937C24.1105 22.1193 24.4587 21.981 24.6891 21.6892C24.9195 21.3973 24.9707 21.0287 24.8683 20.701C25.4315 19.6053 25.6517 18.2997 25.7387 17.501C26.6398 18.8988 26.6603 20.7778 25.6517 22.1909H25.6466Z" fill="white"/>
<path d="M97.2366 94.1161C101.663 75.3632 90.0486 56.5729 71.2957 52.1469C52.5428 47.7208 33.7525 59.3349 29.3264 78.0878C24.9003 96.8407 36.5145 115.631 55.2674 120.057C74.0203 124.483 92.8106 112.869 97.2366 94.1161Z" fill="#FFFAF4"/>
<path d="M75.8486 78.849C90.4934 78.849 102.365 66.977 102.365 52.3322C102.365 37.6874 90.4934 25.8154 75.8486 25.8154C61.2038 25.8154 49.3318 37.6874 49.3318 52.3322C49.3318 66.977 61.2038 78.849 75.8486 78.849Z" fill="#FFFAF4"/>
<path d="M151.697 77.0009C154.066 62.549 144.271 48.9129 129.819 46.5437C115.367 44.1745 101.731 53.9695 99.362 68.4214C96.9929 82.8733 106.788 96.5095 121.24 98.8786C135.692 101.248 149.328 91.4528 151.697 77.0009Z" fill="#FFFAF4"/>
<path d="M161.538 144.442H19.2771" stroke="#D7E3F4" stroke-width="2.18" stroke-miterlimit="10"/>
<path d="M85.1669 8.66824C84.6549 8.71944 84.148 8.85768 83.6616 9.09321C81.7467 10.0097 80.7432 12.0628 81.0709 14.0597L70.9025 18.8264L65.2602 21.4735C64.784 21.6988 64.5792 22.262 64.7994 22.7433L65.4752 24.1871L66.0691 25.4518C66.2586 25.8512 66.7347 26.0252 67.1392 25.8358L67.2672 25.7744C67.6717 25.5849 67.8407 25.1087 67.6564 24.7094L67.0624 23.4396L67.9789 23.0095L68.5728 24.2793C68.7623 24.6787 69.2385 24.8527 69.6429 24.6633L69.8119 24.5865C70.2164 24.3971 70.3853 23.9209 70.201 23.5215L69.6071 22.2518L70.5287 21.8165L71.1073 23.0454C71.2865 23.4242 71.7217 23.6444 72.1159 23.5062C72.5716 23.3474 72.7815 22.8354 72.5818 22.4054L71.9879 21.1356L82.1564 16.3688C82.5608 16.8347 83.0472 17.2085 83.5848 17.4799C84.8239 18.0994 86.3241 18.1711 87.6706 17.5362C90.0771 16.4098 91.0704 13.5016 89.8211 11.1207C88.9148 9.40041 87.0204 8.46856 85.1669 8.66312V8.66824ZM88.7715 12.964C88.6537 13.1585 88.4745 13.3224 88.2543 13.4248C87.6604 13.7064 86.9436 13.4453 86.662 12.8462C86.3804 12.2472 86.6415 11.5304 87.2354 11.2539C87.4607 11.1463 87.7014 11.1207 87.9267 11.1566C88.3055 11.218 88.6486 11.4587 88.8278 11.8324C89.007 12.2113 88.966 12.6363 88.7663 12.964H88.7715Z" fill="#FFE0BF"/>
<path d="M89.8212 11.121C91.0705 13.5018 90.0721 16.41 87.6708 17.5364C86.3191 18.1713 84.8189 18.0996 83.585 17.4801C85.3002 17.5006 87.0461 17.05 88.1367 15.5243C88.7716 14.6334 88.9201 13.7681 88.7716 12.9591C88.9713 12.6263 89.0122 12.2065 88.833 11.8276C88.6589 11.4538 88.3108 11.2132 87.9319 11.1517C87.1178 10.0356 85.9197 9.15491 85.1671 8.66338C87.0205 8.4637 88.9149 9.39555 89.8212 11.121Z" fill="#FFE0BF"/>
<path d="M129.599 24.1675C129.363 24.0447 129.102 23.9576 128.826 23.9218C127.735 23.7733 126.711 24.3775 126.281 25.34L120.506 24.5003L117.3 24.0344C117.029 23.9935 116.778 24.1829 116.737 24.4543L116.619 25.2735L116.517 25.9954C116.486 26.2207 116.64 26.4357 116.87 26.4664L116.942 26.4767C117.172 26.5074 117.382 26.3538 117.413 26.1234L117.515 25.4015L118.038 25.4783L117.935 26.2002C117.905 26.4255 118.058 26.6405 118.289 26.6712L118.386 26.6866C118.616 26.7173 118.826 26.5637 118.857 26.3333L118.959 25.6114L119.482 25.6882L119.379 26.3845C119.348 26.5996 119.471 26.8197 119.686 26.8709C119.932 26.9324 120.168 26.7685 120.204 26.5279L120.306 25.806L126.081 26.6456C126.122 26.9631 126.23 27.2652 126.383 27.5365C126.742 28.1612 127.377 28.6169 128.14 28.7295C129.507 28.9292 130.771 27.9513 130.91 26.5586C131.007 25.55 130.454 24.6079 129.594 24.1624L129.599 24.1675ZM129.937 27.0604C129.829 27.1116 129.706 27.1321 129.583 27.1116C129.246 27.0604 129.01 26.748 129.056 26.405C129.107 26.062 129.42 25.8264 129.758 25.8776C129.886 25.8981 129.998 25.9544 130.085 26.0312C130.234 26.1644 130.316 26.3692 130.285 26.5842C130.254 26.7992 130.116 26.9733 129.932 27.0604H129.937Z" fill="#FFE0BF"/>
<path d="M130.92 26.5639C130.781 27.9515 129.517 28.9345 128.15 28.7348C127.382 28.6222 126.752 28.1665 126.394 27.5418C127.131 28.0385 128.017 28.3457 128.928 27.9975C129.46 27.7927 129.768 27.4599 129.937 27.0657C130.121 26.9786 130.254 26.8046 130.29 26.5895C130.321 26.3745 130.239 26.1748 130.09 26.0417C130.054 25.3249 129.788 24.5978 129.604 24.1729C130.464 24.6183 131.022 25.5604 130.92 26.569V26.5639Z" fill="#FFE0BF"/>
<path d="M136.076 36.3477H65.7365C63.2876 36.3477 61.3025 38.3328 61.3025 40.7816V103.395C61.3025 105.844 63.2876 107.829 65.7365 107.829H136.076C138.525 107.829 140.51 105.844 140.51 103.395V40.7816C140.51 38.3328 138.525 36.3477 136.076 36.3477Z" fill="#FFEDDA"/>
<path d="M127.94 58.9688H73.8774V66.7205H127.94V58.9688Z" fill="white"/>
<path d="M127.94 72.7266H73.8774V80.4783H127.94V72.7266Z" fill="white"/>
<path d="M127.94 87.749H73.8774V95.5008H127.94V87.749Z" fill="#FF8200"/>
<path d="M81.5423 76.6018C81.5423 77.0934 81.1429 77.4927 80.6514 77.4927C80.1599 77.4927 79.7605 77.0934 79.7605 76.6018C79.7605 76.1103 80.1599 75.7109 80.6514 75.7109C81.1429 75.7109 81.5423 76.1103 81.5423 76.6018Z" fill="#1D262D"/>
<path d="M90.5433 76.6018C90.5433 77.0934 90.1439 77.4927 89.6524 77.4927C89.1608 77.4927 88.7615 77.0934 88.7615 76.6018C88.7615 76.1103 89.1608 75.7109 89.6524 75.7109C90.1439 75.7109 90.5433 76.1103 90.5433 76.6018Z" fill="#1D262D"/>
<path d="M99.5445 76.6018C99.5445 77.0934 99.1451 77.4927 98.6536 77.4927C98.1621 77.4927 97.7627 77.0934 97.7627 76.6018C97.7627 76.1103 98.1621 75.7109 98.6536 75.7109C99.1451 75.7109 99.5445 76.1103 99.5445 76.6018Z" fill="#1D262D"/>
<path d="M86.0428 76.6018C86.0428 77.0934 85.6434 77.4927 85.1519 77.4927C84.6603 77.4927 84.261 77.0934 84.261 76.6018C84.261 76.1103 84.6603 75.7109 85.1519 75.7109C85.6434 75.7109 86.0428 76.1103 86.0428 76.6018Z" fill="#1D262D"/>
<path d="M95.0437 76.6018C95.0437 77.0934 94.6444 77.4927 94.1529 77.4927C93.6613 77.4927 93.262 77.0934 93.262 76.6018C93.262 76.1103 93.6613 75.7109 94.1529 75.7109C94.6444 75.7109 95.0437 76.1103 95.0437 76.6018Z" fill="#1D262D"/>
<path d="M113.051 76.6018C113.051 77.0934 112.652 77.4927 112.16 77.4927C111.669 77.4927 111.269 77.0934 111.269 76.6018C111.269 76.1103 111.669 75.7109 112.16 75.7109C112.652 75.7109 113.051 76.1103 113.051 76.6018Z" fill="#1D262D"/>
<path d="M104.045 76.6018C104.045 77.0934 103.646 77.4927 103.154 77.4927C102.663 77.4927 102.263 77.0934 102.263 76.6018C102.263 76.1103 102.663 75.7109 103.154 75.7109C103.646 75.7109 104.045 76.1103 104.045 76.6018Z" fill="#1D262D"/>
<path d="M108.551 76.6018C108.551 77.0934 108.151 77.4927 107.66 77.4927C107.168 77.4927 106.769 77.0934 106.769 76.6018C106.769 76.1103 107.168 75.7109 107.66 75.7109C108.151 75.7109 108.551 76.1103 108.551 76.6018Z" fill="#1D262D"/>
<path d="M122.052 76.6018C122.052 77.0934 121.653 77.4927 121.161 77.4927C120.67 77.4927 120.27 77.0934 120.27 76.6018C120.27 76.1103 120.67 75.7109 121.161 75.7109C121.653 75.7109 122.052 76.1103 122.052 76.6018Z" fill="#1D262D"/>
<path d="M117.552 76.6018C117.552 77.0934 117.152 77.4927 116.661 77.4927C116.169 77.4927 115.77 77.0934 115.77 76.6018C115.77 76.1103 116.169 75.7109 116.661 75.7109C117.152 75.7109 117.552 76.1103 117.552 76.6018Z" fill="#1D262D"/>
<path d="M90.5433 63.2649C90.5433 63.7564 90.1439 64.1558 89.6524 64.1558C89.1608 64.1558 88.7615 63.7564 88.7615 63.2649C88.7615 62.7734 89.1608 62.374 89.6524 62.374C90.1439 62.374 90.5433 62.7734 90.5433 63.2649Z" fill="#1D262D"/>
<path d="M99.5442 63.2649C99.5442 63.7564 99.1449 64.1558 98.6533 64.1558C98.1618 64.1558 97.7625 63.7564 97.7625 63.2649C97.7625 62.7734 98.1618 62.374 98.6533 62.374C99.1449 62.374 99.5442 62.7734 99.5442 63.2649Z" fill="#1D262D"/>
<path d="M95.0437 63.2649C95.0437 63.7564 94.6444 64.1558 94.1529 64.1558C93.6613 64.1558 93.262 63.7564 93.262 63.2649C93.262 62.7734 93.6613 62.374 94.1529 62.374C94.6444 62.374 95.0437 62.7734 95.0437 63.2649Z" fill="#1D262D"/>
<path d="M113.051 63.2649C113.051 63.7564 112.652 64.1558 112.16 64.1558C111.669 64.1558 111.269 63.7564 111.269 63.2649C111.269 62.7734 111.669 62.374 112.16 62.374C112.652 62.374 113.051 62.7734 113.051 63.2649Z" fill="#1D262D"/>
<path d="M104.045 63.2649C104.045 63.7564 103.645 64.1558 103.154 64.1558C102.662 64.1558 102.263 63.7564 102.263 63.2649C102.263 62.7734 102.662 62.374 103.154 62.374C103.645 62.374 104.045 62.7734 104.045 63.2649Z" fill="#1D262D"/>
<path d="M108.551 63.2649C108.551 63.7564 108.151 64.1558 107.66 64.1558C107.168 64.1558 106.769 63.7564 106.769 63.2649C106.769 62.7734 107.168 62.374 107.66 62.374C108.151 62.374 108.551 62.7734 108.551 63.2649Z" fill="#1D262D"/>
<path d="M110.769 45.6259C115.234 40.1811 114.439 32.1482 108.994 27.6837C103.55 23.2193 95.5167 24.014 91.0523 29.4588C86.5879 34.9035 87.3826 42.9365 92.8273 47.4009C98.2721 51.8653 106.305 51.0706 110.769 45.6259Z" fill="url(#paint0_linear_5274_18248)"/>
<path d="M105.791 32.6514L96.0215 42.4204" stroke="white" stroke-width="2.27" stroke-miterlimit="10"/>
<path d="M105.791 42.4204L96.0215 32.6514" stroke="white" stroke-width="2.27" stroke-miterlimit="10"/>
<path d="M37.6119 90.0773L50.8165 89.5295L51.3951 66.9347L49.7516 62.3573L44.2833 60.4732L40.4535 59.7666C38.2212 60.1916 36.6289 62.1833 36.7108 64.4566L38.1444 80.4465L37.6119 90.0773Z" fill="#F7D6B2"/>
<path d="M42.9114 56.2344V60.7759C42.9114 60.7759 43.8688 61.3493 46.1165 61.3493C47.3249 61.3493 47.6014 61.5592 47.6014 61.5592V59.0965L42.9165 56.2344H42.9114Z" fill="#F7D6B2"/>
<path d="M42.3839 52.8448C42.3942 53.0086 42.3993 53.1622 42.4095 53.3107C42.4095 53.3619 42.4044 53.4182 42.4044 53.4745C42.2918 56.1677 44.0223 59.0554 46.6284 59.4496C46.6284 59.4496 46.6489 59.4547 46.6848 59.4599C46.7052 59.4599 46.736 59.465 46.7769 59.465C47.335 59.5316 49.3523 59.7005 50.0896 58.8864C50.9549 57.929 51.7229 56.183 51.7229 54.9849C51.7229 53.7868 51.5079 53.5052 51.5079 53.024C51.5079 52.6451 51.7127 51.4675 51.7127 50.9555C51.728 48.549 50.1101 46.1631 47.2377 46.1631C42.9266 46.1631 42.2662 49.9468 42.389 52.8448H42.3839Z" fill="#F7D6B2"/>
<path d="M32.2615 78.7366C33.6797 79.3254 37.8628 71.415 39.3886 67.9282C40.9144 64.4414 41.4929 61.4155 39.7675 60.6987C38.042 59.9819 36.3063 62.5214 34.9034 66.0645C33.5056 69.6076 30.8432 78.1529 32.2615 78.7418V78.7366Z" fill="#F7D6B2"/>
<path d="M32.7992 94.4704C34.1611 94.4909 34.6936 84.4914 34.7346 81.6651C34.7806 78.8389 34.6168 75.8539 33.091 75.8283C31.5652 75.8027 31.3092 78.7826 31.2632 81.6088C31.2171 84.4351 31.4321 94.4499 32.7941 94.4704H32.7992Z" fill="#F7D6B2"/>
<path d="M32.9015 91.8851C31.2989 91.7417 31.3655 94.5936 31.4269 95.5664C31.5191 97.1485 33.1626 98.6948 33.7771 98.664C34.3915 98.6384 33.9102 95.0698 34.0433 94.9418C34.1764 94.8138 34.2532 96.7543 34.8267 96.6672C35.4001 96.5802 35.2004 94.2301 34.7601 93.3341C34.3249 92.4329 33.9102 91.9824 32.9066 91.8902L32.9015 91.8851Z" fill="#F7D6B2"/>
<path d="M41.8874 63.4998C41.6467 64.6928 40.8992 66.3568 39.9008 68.1898C38.8 70.2019 37.8118 71.9274 37.1667 73.0384C36.7673 73.7245 36.5011 74.17 36.4191 74.3082C36.4038 74.3389 36.3935 74.3543 36.3935 74.3543L32.574 72.7927C32.574 72.7927 34.8422 63.3615 38.3904 60.4636C38.416 60.4431 38.8204 60.2588 38.8614 60.2588C40.8633 60.6377 42.3072 61.4364 41.8874 63.4998Z" fill="url(#paint1_linear_5274_18248)"/>
<path d="M45.7836 88.3979C44.4677 88.8946 43.7356 90.9887 44.181 92.9292C44.5343 94.4754 45.1589 96.462 46.2546 98.7814C48.9887 104.577 51.1033 112.329 53.0438 112.303C54.9843 112.278 55.6243 107.465 53.7248 101.203C52.0044 95.5404 50.4326 88.1163 49.0041 87.7477C48.2822 87.5633 46.9356 87.9576 45.7836 88.3928V88.3979Z" fill="#F7D6B2"/>
<path d="M53.6787 111.075C48.4101 109.462 50.791 134.96 52.5625 139.492C54.334 144.023 54.9945 131.939 55.312 124.121C55.6294 116.303 55.7523 111.71 53.6787 111.075Z" fill="#F7D6B2"/>
<path d="M51.1956 133.818C51.257 133.9 51.6359 140.858 51.6359 140.858C51.6359 140.858 54.9946 141.099 54.9946 140.858C54.9946 140.618 55.2558 134.581 55.2558 134.581L51.1956 133.823V133.818Z" fill="#F7D6B2"/>
<path d="M39.3323 133.818C39.3937 133.9 39.7726 140.858 39.7726 140.858C39.7726 140.858 43.1314 141.099 43.1314 140.858C43.1314 140.618 43.3925 134.581 43.3925 134.581L39.3323 133.823V133.818Z" fill="#F7D6B2"/>
<path d="M39.3734 88.3058C37.9858 88.5413 36.8594 90.446 36.9209 92.4428C36.9669 94.03 37.1973 96.0985 37.822 98.5869C39.3836 104.803 39.9571 112.821 41.8617 113.169C43.7715 113.517 45.3331 108.924 44.6829 102.412C44.0941 96.5235 43.9917 88.9356 42.6604 88.2955C41.9846 87.973 40.5919 88.101 39.3734 88.3058Z" fill="#F7D6B2"/>
<path d="M42.5887 111.618C37.4072 109.739 38.8511 135.339 40.3922 139.947C41.9333 144.56 42.855 132.518 43.5666 124.725C44.2783 116.933 44.6265 112.355 42.5887 111.618Z" fill="#F7D6B2"/>
<path d="M51.4924 88.5207C51.4924 88.5207 56.1824 108.269 56.0749 112.426C55.9674 116.584 55.1686 138.324 55.1686 138.324C55.1686 138.324 51.4259 138.339 51.4259 138.324C48.5382 122.625 49.7311 113.286 49.4137 111.525C49.0963 109.764 45.5737 102.248 45.5737 102.248C45.5737 102.248 45.4149 110.885 45.4149 113.286C45.4149 115.688 43.2543 138.165 43.2543 138.165L39.3835 138.247C39.3835 138.247 38.1393 122.887 38.1393 119.763C38.1393 116.64 38.8971 111.766 38.8613 111.126C38.8203 110.486 32.7838 94.8133 36.7825 88.7358C42.0408 80.7433 51.4976 88.5207 51.4976 88.5207H51.4924Z" fill="url(#paint2_linear_5274_18248)"/>
<path d="M53.3817 67.0119C53.3817 67.3242 53.3715 67.5955 53.2896 68.0052C53.2486 68.1895 53.2025 68.4096 53.1309 68.6708C52.9312 69.4234 52.5779 70.5498 51.9481 72.4442C50.2534 77.5592 51.7638 88.5929 51.7843 88.7004C51.7843 88.7004 36.3934 89.0742 36.4241 88.6287C36.6699 85.5874 39.02 82.884 37.018 72.1934C35.3745 63.4022 37.5608 60.0588 39.4859 59.8284C43.2901 59.3727 49.9974 61.6409 50.9139 62.4909C51.8304 63.3408 53.3459 65.1123 53.3766 67.0067L53.3817 67.0119Z" fill="url(#paint3_linear_5274_18248)"/>
<path d="M67.1649 62.3989C66.9601 60.8936 58.0922 61.2827 54.3443 61.7282C50.5964 62.1736 47.7189 63.1925 47.9698 65.0357C48.2207 66.8738 51.2671 67.0838 54.9997 66.5001C58.7322 65.9164 67.3748 63.9042 67.1649 62.3989Z" fill="#EED7BA"/>
<path d="M60.4885 65.5778C60.4885 65.5778 56.418 67.1445 53.2743 68.0098C51.3492 68.5372 49.6237 68.3375 49.2448 67.1957C49.2346 67.165 49.1834 67.1752 49.1527 67.1599C47.1917 66.3919 46.5773 63.115 48.5024 62.26C49.6135 61.7684 51.9892 61.835 54.0577 61.6814C58.0872 61.3793 59.5464 61.3281 59.5464 61.3281L60.4373 65.3371L60.4885 65.5727V65.5778Z" fill="url(#paint4_linear_5274_18248)"/>
<path d="M52.4346 49.4653C52.3988 50.1104 52.1837 50.817 51.7434 51.5747C50.402 53.8736 49.6391 56.0445 49.6749 58.7479C49.721 61.9838 51.6615 65.8443 49.6544 68.8396C46.7309 73.2018 39.2249 72.8895 35.9583 69.2492C33.772 66.812 33.2703 62.8747 35.8354 60.4683C36.9413 59.4289 37.9756 58.4407 38.6156 57.0481C40.3974 53.1568 40.1823 46.9104 45.1386 45.3231C47.9085 44.4374 52.6292 45.9836 52.4346 49.4704V49.4653Z" fill="#1D262D"/>
<path d="M55.0202 140.146C55.0202 140.146 55.3735 141.175 57.5137 142.512C59.6539 143.848 60.2171 143.556 60.2632 144.058C60.3092 144.56 51.3645 144.145 51.3645 144.145L51.5027 140.028C51.5027 140.028 55.0151 140.033 55.0151 140.141L55.0202 140.146Z" fill="url(#paint5_linear_5274_18248)"/>
<path d="M43.1571 140.033C43.1571 140.033 43.5616 140.899 45.0055 142.291C46.2804 143.525 47.4017 143.259 47.2993 143.699C47.202 144.124 39.6396 143.848 39.6396 143.848V140.028C39.6396 140.028 43.1622 140.028 43.1571 140.028V140.033Z" fill="url(#paint6_linear_5274_18248)"/>
<path d="M54.0168 49.6647C53.0542 50.6068 59.7206 57.9695 61.6764 59.9714C63.6323 61.9785 65.8493 63.9497 66.9296 62.895C68.0099 61.8402 66.095 59.5772 64.134 57.5701C62.1782 55.563 54.9794 48.7226 54.0117 49.6647H54.0168Z" fill="#EED7BA"/>
<path d="M50.8116 47.0948C50.4379 47.4686 52.4245 49.2913 52.9467 49.8801C53.0235 49.9672 53.0747 50.0337 53.0696 50.0593C53.0696 50.0849 53.0337 50.0849 52.9877 50.0696C52.6805 49.9877 51.5848 49.2862 51.2673 49.6702C50.9243 50.0952 52.4398 51.5288 53.3819 51.9947C53.4331 52.0203 53.4894 52.0562 53.5406 52.0766C54.4622 52.4453 55.0664 52.5016 55.8651 51.8974C57.1349 50.9349 55.1842 48.8869 54.493 48.2161C53.9093 47.6478 53.0645 47.2587 52.3169 47.0692C51.6206 46.8951 51.0164 46.89 50.8065 47.1L50.8116 47.0948Z" fill="#EED7BA"/>
<path style="mix-blend-mode:multiply" opacity="0.5" d="M37.1818 73.0024L37.1665 73.0434C36.7671 73.7294 36.5009 74.1749 36.4189 74.3131L36.8234 70.2529C36.8951 71.6046 37.1818 73.0075 37.1818 73.0075V73.0024Z" fill="url(#paint7_linear_5274_18248)"/>
<path style="mix-blend-mode:multiply" opacity="0.5" d="M53.2896 68.0049C53.2486 68.1892 53.2025 68.4094 53.1309 68.6705C52.1683 69.2491 50.2278 68.8036 50.2278 68.8036L53.2742 68.01C53.2742 68.01 53.2742 68.01 53.2896 68.01V68.0049Z" fill="url(#paint8_linear_5274_18248)"/>
<path d="M140.663 132.841C140.361 134.761 140.361 136.712 140.612 138.637C140.684 139.185 140.71 139.727 140.684 140.265C140.653 140.828 140.535 141.468 140.059 141.77C139.332 142.231 138.405 141.565 137.888 140.874C135.636 137.869 135.502 133.895 133.582 130.721C133.285 130.235 132.963 129.748 132.625 129.262L133.188 127.111L132.016 128.386C130.674 126.451 129.379 124.449 129.394 122.043L131.109 122.191C131.109 122.191 130.203 121.817 129.404 121.505C129.471 119.882 129.676 118.208 129.107 116.682C128.693 115.576 127.889 114.69 127.126 113.774L128.252 112.099C128.252 112.099 127.182 112.437 126.256 112.627C126.184 112.519 126.117 112.412 126.051 112.299C125.037 110.569 124.924 108.587 125.011 106.631C125.058 105.541 125.134 104.43 125.319 103.344C125.733 103.37 126.082 103.385 126.082 103.385L125.472 102.551C125.605 101.967 125.774 101.398 126 100.84C126.153 100.456 126.716 99.1047 127.208 99.0484C128.626 98.8897 129.809 100.185 130.316 101.516C130.797 102.781 131.012 104.04 131.555 105.223L130.864 105.955L132.041 106.114C132.098 106.201 132.159 106.288 132.22 106.375C133.669 108.352 136.219 109.893 137.704 111.828C136.573 112.135 135.497 112.514 135.497 112.514L138.626 113.492C138.994 114.567 138.969 115.791 138.298 117.255C138.083 117.731 137.842 118.187 137.627 118.648L136.798 118.085L137.376 119.232C137.136 119.836 136.972 120.46 136.987 121.162C137.033 123.236 138.329 124.966 139.383 126.763C139.204 127.332 139.046 127.833 139.046 127.833L139.926 127.746C140.162 128.212 140.361 128.694 140.505 129.185C140.848 130.373 140.853 131.612 140.663 132.836V132.841Z" fill="#26B872"/>
<path style="mix-blend-mode:screen" d="M137.878 136.026C137.417 131.049 136.05 128.868 134.847 126.943C134.269 126.021 133.726 125.151 133.388 124.086C133.004 122.882 132.958 121.398 132.912 119.826C132.835 117.24 132.753 114.567 131.161 112.837C128.442 109.893 127.899 103.068 127.899 103.006L128.375 102.996C128.375 103.058 128.882 109.668 131.509 112.514C133.224 114.373 133.306 117.138 133.383 119.81C133.429 121.346 133.47 122.795 133.838 123.937C134.161 124.946 134.663 125.75 135.252 126.687C136.424 128.561 137.878 130.885 138.349 135.979L137.878 136.026Z" fill="#34D15A"/>
<path d="M142.799 137.218C143.705 136.768 144.452 136.194 144.872 135.564C146.29 133.45 146.137 130.608 146.536 128.192C147.012 125.319 148.292 122.483 150.566 120.665C152.409 119.19 153.643 117.552 154.032 115.146C154.411 112.78 154.165 110.374 154.421 107.998C154.692 105.494 155.163 103.073 155.926 100.671C156.572 98.6488 157.247 95.2644 153.894 95.7252C152.562 95.9044 151.313 96.611 150.463 97.6504C148.231 100.384 148.425 104.26 146.767 107.281C145.927 108.807 144.632 109.939 143.403 111.142C142.297 112.217 141.129 113.512 140.894 115.1C140.761 116.021 140.868 116.973 140.653 117.885C140.351 119.149 139.476 120.138 138.682 121.126C137.817 122.196 137.202 123.312 136.583 124.531C135.037 127.562 133.511 131.427 134.432 134.842C134.699 135.841 135.19 136.819 136.02 137.438C137.863 138.821 140.909 138.17 142.814 137.223L142.799 137.218Z" fill="#26B872"/>
<path style="mix-blend-mode:screen" d="M142.783 115.535C142.952 115.509 143.106 115.627 143.131 115.796L144.017 122.099L149.644 111.034C149.721 110.881 149.905 110.825 150.059 110.901C150.212 110.978 150.269 111.162 150.192 111.316L146.08 119.406L151.805 115.397C151.943 115.299 152.137 115.335 152.23 115.474C152.327 115.612 152.291 115.806 152.153 115.904L145.65 120.455C145.609 120.486 145.563 120.496 145.517 120.507L140.151 131.059L144.079 129.277C144.232 129.206 144.416 129.277 144.483 129.431C144.555 129.584 144.483 129.769 144.329 129.835L139.936 131.827C139.875 131.858 139.808 131.863 139.747 131.847L138.728 133.855C138.651 134.008 138.467 134.064 138.313 133.988C138.278 133.967 138.247 133.947 138.221 133.916C138.139 133.824 138.119 133.691 138.175 133.573L143.561 122.98C143.526 122.939 143.5 122.887 143.49 122.826L142.517 115.883C142.491 115.714 142.609 115.561 142.778 115.535H142.783Z" fill="#34D15A"/>
<path d="M141.426 107.148C142.717 105.074 143.915 104.296 143.935 104.286C143.986 104.255 144.022 104.204 144.038 104.147C145.456 103.011 149.245 99.7389 147.335 98.5972C145.446 97.4656 144.073 102.115 143.628 103.886C143.403 104.035 142.256 104.864 141.027 106.83C141.493 104.931 142.389 100.379 140.259 100.609C137.868 100.87 140.131 106.257 140.663 107.45C140.228 108.228 139.788 109.15 139.389 110.245C139.301 110.486 139.214 110.737 139.133 110.998C139.133 108.899 138.897 104.757 136.972 105.432C134.755 106.211 137.97 110.742 138.856 111.925C138.477 113.297 138.149 114.935 137.95 116.876C137.494 114.946 136.245 110.558 134.463 111.725C132.466 113.025 136.808 116.743 137.883 117.618C137.771 119.011 137.719 120.547 137.76 122.236C137.059 120.455 135.129 116.108 133.506 117.552C131.719 119.144 136.624 122.201 137.781 122.882C137.827 124.177 137.924 125.554 138.088 127.029C136.854 125.621 133.495 122.083 132.451 124.013C131.345 126.056 136.624 127.249 138.149 127.551C138.324 129.046 138.559 130.628 138.871 132.313C137.924 131.202 134.115 126.937 132.988 129.015C131.811 131.186 137.842 132.4 138.928 132.599C139.133 133.675 139.363 134.791 139.624 135.948C139.655 136.081 139.788 136.168 139.926 136.137C139.941 136.137 139.952 136.127 139.967 136.122C140.08 136.076 140.141 135.953 140.116 135.835C139.849 134.678 139.619 133.567 139.419 132.492C140.653 132.369 146.685 131.652 145.574 129.486C144.493 127.377 140.387 131.253 139.373 132.256C139.066 130.603 138.836 129.041 138.661 127.572C139.834 127.459 145.968 126.747 144.847 124.561C143.761 122.446 139.629 126.353 138.636 127.341C138.452 125.718 138.339 124.203 138.288 122.795C139.598 122.728 145.543 122.303 144.55 120.101C143.592 117.977 139.424 121.484 138.277 122.508C138.226 120.721 138.272 119.103 138.39 117.649C139.706 117.715 145.655 117.884 144.887 115.601C144.15 113.399 139.675 116.441 138.416 117.357C138.605 115.258 138.948 113.502 139.348 112.048C140.75 112.114 146.562 112.268 145.804 110.005C145.092 107.87 140.868 110.655 139.455 111.658C139.578 111.239 139.711 110.844 139.839 110.476C140.244 109.354 140.689 108.417 141.134 107.639C142.435 107.685 148.415 107.777 147.611 105.499C146.889 103.441 142.937 106.057 141.421 107.153L141.426 107.148Z" fill="#00370D"/>
<path d="M133.741 144.13H144.923C145.645 144.13 146.244 143.577 146.306 142.86L147.734 128.212H130.935L132.364 142.86C132.425 143.577 133.024 144.13 133.746 144.13H133.741Z" fill="url(#paint9_linear_5274_18248)"/>
<path d="M130.51 131.059H148.144C148.478 131.059 148.748 130.788 148.748 130.454V128.816C148.748 128.482 148.478 128.212 148.144 128.212H130.51C130.177 128.212 129.906 128.482 129.906 128.816V130.454C129.906 130.788 130.177 131.059 130.51 131.059Z" fill="url(#paint10_linear_5274_18248)"/>
</g>
<defs>
<linearGradient id="paint0_linear_5274_18248" x1="100.914" y1="25.1566" x2="100.914" y2="50.2296" gradientUnits="userSpaceOnUse">
<stop stop-color="#FF6D6D"/>
<stop offset="1" stop-color="#FF6666"/>
</linearGradient>
<linearGradient id="paint1_linear_5274_18248" x1="37.2639" y1="67.2169" x2="37.2639" y2="87.5026" gradientUnits="userSpaceOnUse">
<stop offset="0.06" stop-color="#E38204"/>
<stop offset="1" stop-color="#E35802"/>
</linearGradient>
<linearGradient id="paint2_linear_5274_18248" x1="45.4661" y1="118.662" x2="46.0242" y2="87.681" gradientUnits="userSpaceOnUse">
<stop stop-color="#008BEC"/>
<stop offset="1" stop-color="#0077EC"/>
</linearGradient>
<linearGradient id="paint3_linear_5274_18248" x1="44.9029" y1="67.2167" x2="44.9029" y2="87.5023" gradientUnits="userSpaceOnUse">
<stop offset="0.06" stop-color="#E38204"/>
<stop offset="1" stop-color="#E35802"/>
</linearGradient>
<linearGradient id="paint4_linear_5274_18248" x1="53.9092" y1="67.2162" x2="53.9092" y2="87.5019" gradientUnits="userSpaceOnUse">
<stop offset="0.06" stop-color="#E38204"/>
<stop offset="1" stop-color="#E35802"/>
</linearGradient>
<linearGradient id="paint5_linear_5274_18248" x1="51.3645" y1="142.169" x2="60.2632" y2="142.169" gradientUnits="userSpaceOnUse">
<stop stop-color="#008BEC"/>
<stop offset="1" stop-color="#0077EC"/>
</linearGradient>
<linearGradient id="paint6_linear_5274_18248" x1="39.6396" y1="141.989" x2="47.3044" y2="141.989" gradientUnits="userSpaceOnUse">
<stop stop-color="#008BEC"/>
<stop offset="1" stop-color="#0077EC"/>
</linearGradient>
<linearGradient id="paint7_linear_5274_18248" x1="36.4189" y1="72.2754" x2="37.1818" y2="72.2754" gradientUnits="userSpaceOnUse">
<stop offset="0.06" stop-color="#E38204"/>
<stop offset="1" stop-color="#E35802"/>
</linearGradient>
<linearGradient id="paint8_linear_5274_18248" x1="50.2227" y1="68.4862" x2="53.2896" y2="68.4862" gradientUnits="userSpaceOnUse">
<stop offset="0.06" stop-color="#E38204"/>
<stop offset="1" stop-color="#E35802"/>
</linearGradient>
<linearGradient id="paint9_linear_5274_18248" x1="130.93" y1="136.174" x2="147.729" y2="136.174" gradientUnits="userSpaceOnUse">
<stop offset="0.06" stop-color="#E38204"/>
<stop offset="1" stop-color="#E35802"/>
</linearGradient>
<linearGradient id="paint10_linear_5274_18248" x1="129.911" y1="129.635" x2="148.748" y2="129.635" gradientUnits="userSpaceOnUse">
<stop offset="0.06" stop-color="#E38204"/>
<stop offset="1" stop-color="#E35802"/>
</linearGradient>
<clipPath id="clip0_5274_18248">
<rect width="161.538" height="145" fill="white"/>
</clipPath>
</defs>
</svg>
