<svg width="20" height="21" viewBox="0 0 20 21" fill="none" xmlns="http://www.w3.org/2000/svg">
<g id="money 1" clip-path="url(#clip0_5274_22319)">
<g id="Group">
<path id="Vector" d="M19.7073 4.45821C19.0479 6.22269 15.5439 15.2856 11.3342 20.2608C11.2348 20.3789 11.08 20.4343 10.9286 20.4059L3.77455 19.0787C3.72095 19.0688 3.66993 19.0486 3.62405 19.0199L1.79191 17.8636C1.60282 17.745 1.52414 17.4843 1.6577 17.2713C2.20606 16.3995 2.16039 16.4688 2.18938 16.4341L14.1148 2.44332C14.1912 2.35355 14.3014 2.29943 14.4188 2.29342L16.9932 2.1607C17.0896 2.15576 17.1912 2.18458 17.2723 2.24574L19.5624 3.96426C19.715 4.07851 19.7738 4.27953 19.7073 4.45821Z" fill="#14D2AA"/>
<path id="Vector_2" d="M8.02134 1.34292L14.1828 0.589154C14.4155 0.560676 14.628 0.72441 14.6596 0.957168C14.9071 2.77924 15.3324 10.2712 7.21808 17.6741C7.11719 17.7661 6.97796 17.8039 6.84423 17.7766L0.575227 16.4947C0.213428 16.4208 0.107479 15.9532 0.402732 15.731C2.50702 14.1474 7.99133 9.28057 7.64492 1.78636C7.63459 1.56297 7.79979 1.37002 8.02134 1.34292Z" fill="#79E9B3"/>
<path id="Vector_3" d="M9.783 2.27363L12.1647 2.16406C12.1647 2.16406 11.6535 3.67104 13.6491 4.61225C13.6491 4.61225 12.9041 10.2454 8.4671 14.831C8.4671 14.831 6.94628 14.38 5.83147 16.227L3.54569 15.8689C3.54569 15.8689 4.48084 14.7022 3.49243 13.8895C3.49243 13.8895 7.70011 10.2312 8.21228 4.42928C8.21223 4.42923 10.1114 3.98747 9.783 2.27363Z" fill="#B4FFC6"/>
<path id="Vector_4" d="M19.7075 4.45873C19.048 6.22321 15.5441 15.2861 11.3344 20.2613C11.2349 20.3794 11.0802 20.4348 10.9288 20.4065L3.77473 19.0792C3.72113 19.0693 3.67011 19.0492 3.62423 19.0204L1.79208 17.8641C1.71748 17.8173 1.66259 17.7511 1.62915 17.676C1.62915 17.6545 3.27002 18.0808 8.48351 18.4517C8.62758 18.462 8.76736 18.3989 8.85483 18.2833C14.7818 10.4622 16.9994 2.69039 17.1409 2.17969C17.188 2.19386 17.2326 2.2162 17.2725 2.24626L19.5626 3.96478C19.7152 4.07903 19.774 4.28005 19.7075 4.45873Z" fill="#79E9B3"/>
<path id="Vector_5" d="M4.66235 11.3791L12.1402 11.6953L15.3735 14.08C15.3735 14.08 16.6704 12.1743 16.9921 10.8627C16.9921 10.8627 15.5061 9.70232 13.659 8.48725C13.659 8.48725 9.86032 8.13306 6.45677 8.2267L4.66235 11.3791Z" fill="#52528C"/>
</g>
<path id="Vector_6" d="M19.6132 3.89646L17.3233 2.17807C17.2257 2.10441 17.1044 2.06996 16.9882 2.07585L14.8397 2.18641C14.825 1.63765 14.7803 1.21113 14.7442 0.945175C14.7064 0.667532 14.4504 0.469651 14.1721 0.503841L8.01042 1.25731C7.74493 1.29021 7.54658 1.5243 7.55884 1.79022C7.66016 3.98232 7.26354 6.13414 6.38001 8.18597L4.59062 11.3295C3.04811 13.483 1.27234 14.9683 0.350953 15.662C-0.00342761 15.9289 0.123275 16.4899 0.557707 16.5785L1.82846 16.8384L1.58445 17.2265C1.43446 17.4658 1.50324 17.7838 1.74558 17.9372L3.5779 19.0936C3.63368 19.1286 3.6944 19.1524 3.75833 19.1642L10.9123 20.4913C11.0928 20.5252 11.2797 20.459 11.3991 20.3173C14.7299 16.3809 17.9775 9.32897 19.7871 4.4892C19.8663 4.27612 19.7948 4.03236 19.6132 3.89646ZM7.73013 1.78227C7.72199 1.60548 7.85431 1.44978 8.03131 1.42783L14.1929 0.674447C14.3778 0.651639 14.549 0.78346 14.5743 0.968412C14.8386 2.91857 14.6118 5.61915 13.6004 8.39472C13.4693 8.38312 13.1481 8.35567 12.6906 8.32247C13.5178 6.20514 13.7315 4.63962 13.7336 4.62382C13.7385 4.58675 13.7189 4.55075 13.6851 4.53482C11.7868 3.63914 12.2262 2.25041 12.2458 2.19191C12.2649 2.13559 12.222 2.07559 12.1607 2.07843L9.77886 2.18795C9.72672 2.19036 9.68873 2.23855 9.69855 2.28997C10.0074 3.90136 8.26696 4.32848 8.19269 4.34587C8.15664 4.35433 8.13001 4.385 8.12675 4.42198C8.0169 5.66803 7.72396 6.91377 7.25673 8.12575C7.03269 8.12755 6.80917 8.13108 6.58724 8.1364C7.44603 6.09583 7.83073 3.95883 7.73013 1.78227ZM9.8836 2.35512L12.0533 2.25535C12.022 2.41075 11.9886 2.70445 12.0751 3.05585C12.1883 3.51646 12.5376 4.16522 13.5545 4.66256C13.5063 4.97242 13.254 6.42343 12.5115 8.30967C11.3232 8.22613 9.37757 8.11647 7.44071 8.12463C7.89238 6.93679 8.17897 5.71721 8.29221 4.49659C8.61538 4.40137 10.1093 3.87563 9.8836 2.35512ZM0.591966 16.4102C0.302502 16.3511 0.217733 15.9773 0.453987 15.7993C1.37804 15.1036 3.15406 13.6183 4.70373 11.4658L5.44366 11.497C4.40256 12.9769 3.44579 13.8163 3.43597 13.8249C3.39597 13.8597 3.3967 13.9223 3.43777 13.9561C4.3481 14.7047 3.5144 15.7703 3.47847 15.8152C3.43739 15.8666 3.46706 15.9436 3.53211 15.9538C5.98722 16.3386 5.8209 16.3131 5.83119 16.3131C5.86086 16.3131 5.88886 16.2976 5.90455 16.2716C6.96962 14.5071 8.38303 14.8962 8.44246 14.9136C8.47298 14.9227 8.50617 14.914 8.52838 14.891C9.44291 13.9459 10.2696 12.8829 10.9864 11.7314L11.9929 11.774C10.7736 13.8332 9.14847 15.7962 7.16025 17.6102C7.07982 17.6833 6.96795 17.714 6.8611 17.6923L0.591966 16.4102ZM5.64694 11.5057L10.789 11.7231C10.0997 12.8182 9.31012 13.8312 8.43945 14.7361C8.31472 14.7086 7.97771 14.6552 7.54808 14.7529C7.06614 14.8625 6.3732 15.1915 5.78797 16.1335L3.69431 15.8054C3.90008 15.4866 4.36963 14.5825 3.62129 13.8886C3.87234 13.6562 4.73537 12.8198 5.64694 11.5057ZM11.2681 20.2063C11.1887 20.3005 11.0647 20.345 10.9437 20.3224L3.7895 18.9952C3.74688 18.9873 3.70636 18.9715 3.66918 18.9482L1.83717 17.792C1.6753 17.6894 1.62985 17.4773 1.72972 17.318L2.00812 16.8752L6.82701 17.8607C6.98763 17.8932 7.15519 17.8468 7.27564 17.7374C9.29005 15.8995 10.9345 13.9089 12.1651 11.8198L12.7102 12.2218C11.5214 14.3423 10.2015 16.3641 8.78573 18.2319C8.71567 18.3244 8.6047 18.3747 8.48881 18.3665C7.7511 18.314 5.83753 18.1681 4.00594 17.9467C3.95878 17.941 3.91616 17.9746 3.9105 18.0217C3.90484 18.0688 3.93837 18.1116 3.98536 18.1173C5.82077 18.3391 7.73768 18.4853 8.47663 18.5379C8.64904 18.5502 8.8163 18.4759 8.92238 18.3358C10.3387 16.4672 11.6595 14.445 12.8493 12.3244L15.2621 14.104C13.8998 16.6308 12.5564 18.6838 11.2681 20.2063ZM15.3514 13.9564C15.3474 13.9535 12.5615 11.9081 12.2236 11.6498C12.1902 11.6243 12.1883 11.6147 12.1284 11.6105C11.8899 11.5935 10.7004 11.5474 4.8059 11.2982L6.50672 8.31023C9.72316 8.22591 13.3197 8.54183 13.6293 8.56979C15.2685 9.64922 16.635 10.6947 16.8945 10.8951C16.8945 10.8951 15.5871 13.5993 15.3514 13.9564ZM19.6264 4.42903C19.2771 5.36337 18.3227 7.83325 16.9592 10.7282C16.6832 10.516 15.7556 9.81085 14.5709 8.99669C15.2584 7.55126 15.8739 6.09802 16.4002 4.67609C16.4166 4.63159 16.394 4.58215 16.3496 4.56566C16.3052 4.54916 16.2558 4.57184 16.2394 4.61634C15.7179 6.02552 15.1082 7.46566 14.4275 8.89846C14.2126 8.75174 13.9901 8.60218 13.7621 8.45171C14.6878 5.91049 14.8642 3.7512 14.8432 2.35822C17.1912 2.23735 17.0315 2.23653 17.1155 2.26235C17.1968 2.28679 17.0005 2.15046 19.5105 4.03395C19.6315 4.12467 19.6792 4.28716 19.6264 4.42903Z" fill="black"/>
</g>
<defs>
<clipPath id="clip0_5274_22319">
<rect width="19.9651" height="20" fill="white" transform="translate(0 0.5)"/>
</clipPath>
</defs>
</svg>
