<svg width="50" height="50" viewBox="0 0 50 50" fill="none" xmlns="http://www.w3.org/2000/svg">
<path d="M33.0312 20.0934C32.626 19.685 31.9667 19.6819 31.5583 20.0871C31.5562 20.0892 31.5542 20.0913 31.5521 20.0934L16.9687 34.6767C16.5604 35.0819 16.5573 35.7413 16.9625 36.1496L16.9687 36.1559C17.3739 36.5642 18.0333 36.5673 18.4417 36.1621L18.4479 36.1559L33.0312 21.5725C33.4396 21.1673 33.4427 20.508 33.0375 20.0996C33.0354 20.0975 33.0333 20.0955 33.0312 20.0934Z" fill="url(#paint0_linear_5274_17879)"/>
<path d="M19.7917 27.0833C22.0927 27.0833 23.9583 25.2177 23.9583 22.9167C23.9583 20.6156 22.0927 18.75 19.7917 18.75C17.4906 18.75 15.625 20.6156 15.625 22.9167C15.625 25.2177 17.4906 27.0833 19.7917 27.0833ZM19.7917 20.8333C20.9427 20.8333 21.875 21.7656 21.875 22.9167C21.875 24.0677 20.9427 25 19.7917 25C18.6406 25 17.7083 24.0677 17.7083 22.9167C17.7083 21.7656 18.6406 20.8333 19.7917 20.8333Z" fill="url(#paint1_linear_5274_17879)"/>
<path d="M30.2083 29.166C27.9073 29.166 26.0416 31.0316 26.0416 33.3327C26.0416 35.6337 27.9073 37.4993 30.2083 37.4993C32.5093 37.4993 34.375 35.6337 34.375 33.3327C34.375 31.0316 32.5093 29.166 30.2083 29.166ZM30.2083 35.416C29.0573 35.416 28.125 34.4837 28.125 33.3327C28.125 32.1816 29.0573 31.2493 30.2083 31.2493C31.3593 31.2493 32.2916 32.1816 32.2916 33.3327C32.2916 34.4837 31.3593 35.416 30.2083 35.416Z" fill="url(#paint2_linear_5274_17879)"/>
<path d="M46.875 25.0005C47.45 25.0005 47.9166 24.5338 47.9166 23.9588V14.5838C47.9166 14.0088 47.45 13.5421 46.875 13.5421H45.8333V7.29213C45.8312 6.98068 45.6895 6.68588 45.4479 6.49005C45.2104 6.2838 44.8927 6.19526 44.5833 6.25047C41.575 6.93172 38.501 7.28068 35.4166 7.29213H22.9166C14.5833 7.29213 2.79162 10.4171 2.79162 10.4171C2.34892 10.5661 2.05933 10.9921 2.08329 11.4588V20.8338C2.08329 21.4088 2.54996 21.8755 3.12496 21.8755C5.426 21.8755 7.29162 23.7411 7.29162 26.0421C7.29162 28.3432 5.426 30.2088 3.12496 30.2088C2.54996 30.2088 2.08329 30.6755 2.08329 31.2505V40.6255C2.08329 41.2005 2.54996 41.6671 3.12496 41.6671H10.2708C15.5166 41.6671 20.751 42.1838 25.8958 43.2088C31.1364 44.2588 36.4677 44.789 41.8125 44.7921H46.875C47.45 44.7921 47.9166 44.3255 47.9166 43.7505V34.3755C47.9166 33.8005 47.45 33.3338 46.875 33.3338C44.5739 33.3338 42.7083 31.4682 42.7083 29.1671C42.7083 26.8661 44.5739 25.0005 46.875 25.0005ZM35.4166 9.37547C38.2145 9.35151 41.0041 9.06922 43.75 8.53172V13.5421H41.8125C36.5666 13.5421 31.3322 13.0255 26.1875 12.0005C21.6781 11.0911 17.0989 10.5796 12.5 10.4692C15.9364 9.81713 19.4198 9.45151 22.9166 9.37547H35.4166ZM45.8333 35.3338V42.7088H41.8125C36.5666 42.7088 31.3322 42.1921 26.1875 41.1671C20.9468 40.1171 15.6156 39.5869 10.2708 39.5838H4.16662V32.2088C7.57287 31.6473 9.87808 28.4307 9.31558 25.0244C8.88017 22.3828 6.80933 20.3109 4.16662 19.8755V12.5005H10.2708C15.5166 12.5005 20.751 13.0171 25.8958 14.0421C31.1364 15.0921 36.4677 15.6223 41.8125 15.6255H45.8333V23.0005C42.427 23.5619 40.1218 26.7786 40.6843 30.1848C41.1197 32.8265 43.1906 34.8984 45.8333 35.3338Z" fill="url(#paint3_linear_5274_17879)"/>
<path d="M6.5 6C5.21442 6 3.95772 6.38122 2.8888 7.09545C1.81988 7.80968 0.986755 8.82484 0.494786 10.0126C0.00281636 11.2003 -0.125905 12.5072 0.124899 13.7681C0.375702 15.029 0.994767 16.1872 1.90381 17.0962C2.81285 18.0052 3.97104 18.6243 5.23192 18.8751C6.49279 19.1259 7.79972 18.9972 8.98744 18.5052C10.1752 18.0132 11.1903 17.1801 11.9046 16.1112C12.6188 15.0423 13 13.7856 13 12.5C12.9983 10.7766 12.3129 9.12432 11.0943 7.90571C9.87568 6.68709 8.22338 6.00172 6.5 6ZM6.5 8.16667C7.27114 8.17044 8.02689 8.38268 8.68725 8.78092L2.78092 14.6872C2.38268 14.0269 2.17044 13.2711 2.16667 12.5C2.16667 11.3507 2.62322 10.2485 3.43587 9.43587C4.24853 8.62321 5.35073 8.16667 6.5 8.16667ZM6.5 16.8333C5.72887 16.8296 4.97311 16.6173 4.31275 16.2191L10.2191 10.3127C10.6173 10.9731 10.8296 11.7289 10.8333 12.5C10.8333 13.6493 10.3768 14.7515 9.56413 15.5641C8.75147 16.3768 7.64927 16.8333 6.5 16.8333Z" fill="#4A4A4A"/>
<defs>
<linearGradient id="paint0_linear_5274_17879" x1="25.0011" y1="36.4619" x2="25.0011" y2="19.7779" gradientUnits="userSpaceOnUse">
<stop stop-color="#9B9B9B"/>
<stop offset="1" stop-color="#DDDDDD"/>
</linearGradient>
<linearGradient id="paint1_linear_5274_17879" x1="19.7922" y1="27.0822" x2="19.7922" y2="18.7464" gradientUnits="userSpaceOnUse">
<stop stop-color="#9B9B9B"/>
<stop offset="1" stop-color="#DDDDDD"/>
</linearGradient>
<linearGradient id="paint2_linear_5274_17879" x1="30.2088" y1="37.4982" x2="30.2088" y2="29.1624" gradientUnits="userSpaceOnUse">
<stop stop-color="#9B9B9B"/>
<stop offset="1" stop-color="#DDDDDD"/>
</linearGradient>
<linearGradient id="paint3_linear_5274_17879" x1="25.0022" y1="44.787" x2="25.0022" y2="6.21758" gradientUnits="userSpaceOnUse">
<stop stop-color="#9B9B9B"/>
<stop offset="1" stop-color="#DDDDDD"/>
</linearGradient>
</defs>
</svg>
