<svg width="41" height="32" viewBox="0 0 41 32" fill="none" xmlns="http://www.w3.org/2000/svg">
<path d="M40.1875 26.3439H38.0781V23.5314C38.0835 21.0695 37.5658 18.6345 36.5594 16.3877C37.2311 15.8235 37.7783 15.1258 38.166 14.3388C38.5537 13.5519 38.7736 12.693 38.8117 11.8165C38.8497 10.9401 38.7051 10.0653 38.3871 9.24771C38.069 8.43013 37.5845 7.68761 36.9642 7.06729C36.3438 6.44697 35.6013 5.9624 34.7837 5.64435C33.9661 5.3263 33.0914 5.18172 32.2149 5.21978C31.3385 5.25784 30.4795 5.47772 29.6926 5.86545C28.9057 6.25318 28.208 6.8003 27.6438 7.47206C26.2181 6.83722 24.7143 6.39505 23.1719 6.15722L23.7344 2.78222C23.7848 2.4778 23.7678 2.16603 23.6847 1.86889C23.6015 1.57175 23.4541 1.29647 23.253 1.06247C23.0518 0.828478 22.8018 0.64146 22.5205 0.51461C22.2392 0.387761 21.9335 0.324167 21.625 0.328316H19.3469C19.0383 0.324167 18.7326 0.387761 18.4514 0.51461C18.1701 0.64146 17.92 0.828478 17.7189 1.06247C17.5178 1.29647 17.3704 1.57175 17.2872 1.86889C17.2041 2.16603 17.1871 2.4778 17.2375 2.78222L17.8 6.15722C13.6549 6.80156 9.87687 8.90702 7.14836 12.0933C4.41985 15.2796 2.92076 19.3366 2.92188 23.5314V26.3439H0.812501C0.626021 26.3439 0.447178 26.418 0.315317 26.5499C0.183455 26.6817 0.109376 26.8606 0.109376 27.0471V28.8049C0.109137 28.9244 0.139355 29.042 0.197177 29.1465C0.254998 29.2511 0.338516 29.3392 0.439845 29.4025L3.25234 31.1603C3.36424 31.2297 3.49336 31.2662 3.625 31.2658H37.375C37.5066 31.2662 37.6358 31.2297 37.7477 31.1603L40.5602 29.4025C40.6615 29.3392 40.745 29.2511 40.8028 29.1465C40.8607 29.042 40.8909 28.9244 40.8906 28.8049V27.0471C40.8906 26.8606 40.8166 26.6817 40.6847 26.5499C40.5528 26.418 40.374 26.3439 40.1875 26.3439ZM32.4531 6.65644C33.4266 6.65644 34.3782 6.9451 35.1876 7.48593C35.997 8.02675 36.6278 8.79544 37.0003 9.69479C37.3729 10.5941 37.4703 11.5838 37.2804 12.5385C37.0905 13.4933 36.6218 14.3703 35.9334 15.0586C35.2451 15.7469 34.3681 16.2157 33.4133 16.4056C32.4586 16.5955 31.469 16.4981 30.5696 16.1255C29.6703 15.753 28.9016 15.1222 28.3607 14.3128C27.8199 13.5034 27.5313 12.5518 27.5313 11.5783C27.5313 10.273 28.0498 9.02105 28.9728 8.09802C29.8959 7.17499 31.1478 6.65644 32.4531 6.65644ZM18.6508 2.55019C18.6344 2.44889 18.6403 2.34523 18.6682 2.24647C18.6961 2.14771 18.7453 2.05626 18.8123 1.97853C18.8793 1.90081 18.9625 1.83869 19.0561 1.79654C19.1496 1.7544 19.2513 1.73324 19.3539 1.73457H21.6602C21.7628 1.73324 21.8644 1.7544 21.958 1.79654C22.0516 1.83869 22.1348 1.90081 22.2018 1.97853C22.2688 2.05626 22.318 2.14771 22.3459 2.24647C22.3738 2.34523 22.3797 2.44889 22.3633 2.55019L21.7867 6.00253C20.9395 5.93925 20.0887 5.93925 19.2414 6.00253L18.6508 2.55019ZM4.32813 23.5314C4.32882 20.8595 4.99154 18.2294 6.25704 15.8762C7.52254 13.523 9.35138 11.52 11.5801 10.0462C13.8088 8.57248 16.368 7.67391 19.0288 7.43085C21.6897 7.18778 24.3693 7.60778 26.8281 8.65331C24.0156 14.1096 29.9078 20.0158 35.3781 17.2033C36.2331 19.2034 36.6733 21.3563 36.6719 23.5314V26.3439H4.32813V23.5314ZM39.4844 28.4533L37.1711 29.8596H3.82891L1.51563 28.4533V27.7502H39.4844V28.4533Z" fill="url(#paint0_linear_5274_17889)"/>
<path d="M32.5 5C31.2144 5 29.9577 5.38122 28.8888 6.09545C27.8199 6.80968 26.9868 7.82484 26.4948 9.01256C26.0028 10.2003 25.8741 11.5072 26.1249 12.7681C26.3757 14.029 26.9948 15.1872 27.9038 16.0962C28.8128 17.0052 29.971 17.6243 31.2319 17.8751C32.4928 18.1259 33.7997 17.9972 34.9874 17.5052C36.1752 17.0132 37.1903 16.1801 37.9046 15.1112C38.6188 14.0423 39 12.7856 39 11.5C38.9983 9.77662 38.3129 8.12432 37.0943 6.90571C35.8757 5.68709 34.2234 5.00172 32.5 5ZM32.5 7.16667C33.2711 7.17044 34.0269 7.38268 34.6873 7.78092L28.7809 13.6872C28.3827 13.0269 28.1704 12.2711 28.1667 11.5C28.1667 10.3507 28.6232 9.24853 29.4359 8.43587C30.2485 7.62321 31.3507 7.16667 32.5 7.16667ZM32.5 15.8333C31.7289 15.8296 30.9731 15.6173 30.3128 15.2191L36.2191 9.31275C36.6173 9.9731 36.8296 10.7289 36.8333 11.5C36.8333 12.6493 36.3768 13.7515 35.5641 14.5641C34.7515 15.3768 33.6493 15.8333 32.5 15.8333Z" fill="#4A4A4A"/>
<path d="M12.7655 10.9732C10.9607 12.086 9.41674 13.5745 8.23863 15.3375C7.06053 17.1004 6.27592 19.0963 5.93817 21.1896C5.90982 21.3732 5.95528 21.5606 6.06463 21.7107C6.17398 21.8609 6.33833 21.9617 6.52176 21.9912H6.63426C6.8028 21.9933 6.9665 21.9349 7.09556 21.8265C7.22461 21.7181 7.31044 21.5669 7.33739 21.4005C7.63923 19.5126 8.34279 17.7114 9.40054 16.1187C10.4583 14.5261 11.8456 13.179 13.4686 12.1685C13.5641 12.132 13.6505 12.0751 13.7217 12.0019C13.793 11.9286 13.8474 11.8406 13.8812 11.7442C13.915 11.6477 13.9273 11.5451 13.9174 11.4434C13.9074 11.3416 13.8754 11.2433 13.8236 11.1552C13.7718 11.0671 13.7014 10.9914 13.6173 10.9333C13.5333 10.8752 13.4375 10.8361 13.3368 10.8188C13.2361 10.8014 13.1328 10.8063 13.0341 10.8329C12.9355 10.8596 12.8438 10.9075 12.7655 10.9732Z" fill="url(#paint1_linear_5274_17889)"/>
<defs>
<linearGradient id="paint0_linear_5274_17889" x1="20.5026" y1="31.2617" x2="20.5026" y2="0.314652" gradientUnits="userSpaceOnUse">
<stop stop-color="#9B9B9B"/>
<stop offset="1" stop-color="#DDDDDD"/>
</linearGradient>
<linearGradient id="paint1_linear_5274_17889" x1="9.92584" y1="21.9897" x2="9.92584" y2="10.8037" gradientUnits="userSpaceOnUse">
<stop stop-color="#9B9B9B"/>
<stop offset="1" stop-color="#DDDDDD"/>
</linearGradient>
</defs>
</svg>
