<svg width="39" height="43" viewBox="0 0 39 43" fill="none" xmlns="http://www.w3.org/2000/svg">
<path d="M34.9219 30.2053L33.9688 27.7975C33.7439 27.2408 33.6272 26.6463 33.625 26.0459V23.7803C33.625 23.3659 33.4604 22.9685 33.1674 22.6754C32.8743 22.3824 32.4769 22.2178 32.0625 22.2178C31.6481 22.2178 31.2507 22.3824 30.9576 22.6754C30.6646 22.9685 30.5 23.3659 30.5 23.7803V26.0459C30.5016 27.0406 30.6925 28.0258 31.0625 28.949L32.0219 31.3647C32.1147 31.6008 32.1487 31.8559 32.1209 32.1081C32.093 32.3603 32.0042 32.6019 31.862 32.812C31.7199 33.0222 31.5287 33.1945 31.305 33.3142C31.0813 33.4339 30.8318 33.4974 30.5781 33.499H5.42188C5.16741 33.4972 4.91723 33.4332 4.69311 33.3127C4.46898 33.1922 4.27769 33.0187 4.13586 32.8074C3.99402 32.5962 3.90594 32.3534 3.87927 32.1003C3.8526 31.8473 3.88814 31.5915 3.98282 31.3553L4.9375 28.9506C5.30738 28.0268 5.49827 27.041 5.5 26.0459V17.874C5.49635 14.8214 6.61195 11.8734 8.63563 9.58798C10.6593 7.30255 13.4506 5.83834 16.4813 5.47249C16.8911 5.42162 17.2641 5.21056 17.5188 4.88545C17.7735 4.56033 17.8891 4.14761 17.8404 3.7375C17.7917 3.32739 17.5826 2.95326 17.2588 2.69689C16.935 2.44051 16.5229 2.32276 16.1125 2.36936C12.3223 2.82548 8.83086 4.65543 6.2992 7.51276C3.76754 10.3701 2.37136 14.0565 2.375 17.874V26.0459C2.37264 26.6468 2.25598 27.2418 2.03125 27.799L1.08282 30.1959C0.796384 30.906 0.688632 31.6756 0.769016 32.437C0.8494 33.1985 1.11546 33.9286 1.54385 34.5632C1.97225 35.1979 2.54987 35.7177 3.22602 36.077C3.90217 36.4363 4.65618 36.6241 5.42188 36.624H10.3438C10.7024 38.3901 11.6605 39.9779 13.0559 41.1184C14.4512 42.2589 16.1979 42.8819 18 42.8819C19.8021 42.8819 21.5488 42.2589 22.9442 41.1184C24.3395 39.9779 25.2976 38.3901 25.6563 36.624H30.5781C31.3429 36.6239 32.096 36.4364 32.7715 36.0778C33.447 35.7192 34.0243 35.2005 34.453 34.5671C34.8816 33.9337 35.1485 33.205 35.2302 32.4446C35.312 31.6842 35.2061 30.9153 34.9219 30.2053ZM18 39.749C17.034 39.745 16.0928 39.4427 15.3052 38.8833C14.5176 38.3239 13.922 37.5348 13.6 36.624H22.4C22.078 37.5348 21.4825 38.3239 20.6948 38.8833C19.9072 39.4427 18.966 39.745 18 39.749Z" fill="url(#paint0_linear_5274_17816)"/>
<path d="M28.9375 0.6875C27.0833 0.6875 25.2707 1.23733 23.729 2.26747C22.1873 3.29761 20.9857 4.76179 20.2761 6.47484C19.5666 8.1879 19.3809 10.0729 19.7426 11.8915C20.1044 13.71 20.9973 15.3805 22.3084 16.6916C23.6195 18.0027 25.29 18.8956 27.1085 19.2574C28.9271 19.6191 30.8121 19.4334 32.5252 18.7239C34.2382 18.0143 35.7024 16.8127 36.7325 15.271C37.7627 13.7293 38.3125 11.9167 38.3125 10.0625C38.31 7.57686 37.3215 5.19373 35.5639 3.43612C33.8063 1.6785 31.4231 0.689982 28.9375 0.6875ZM28.9375 3.8125C30.0497 3.81794 31.1398 4.12406 32.0922 4.69844L23.5734 13.2172C22.9991 12.2648 22.6929 11.1747 22.6875 10.0625C22.6875 8.4049 23.346 6.81518 24.5181 5.64308C25.6902 4.47098 27.2799 3.8125 28.9375 3.8125ZM28.9375 16.3125C27.8253 16.3071 26.7353 16.0009 25.7828 15.4266L34.3016 6.90781C34.8759 7.86025 35.1821 8.95029 35.1875 10.0625C35.1875 11.7201 34.529 13.3098 33.3569 14.4819C32.1848 15.654 30.5951 16.3125 28.9375 16.3125Z" fill="#4A4A4A"/>
<defs>
<linearGradient id="paint0_linear_5274_17816" x1="18.0023" y1="42.8765" x2="18.0023" y2="2.34173" gradientUnits="userSpaceOnUse">
<stop stop-color="#9B9B9B"/>
<stop offset="1" stop-color="#DDDDDD"/>
</linearGradient>
</defs>
</svg>
