<svg width="50" height="50" viewBox="0 0 50 50" fill="none" xmlns="http://www.w3.org/2000/svg">
<path d="M39.1665 0.833984H4.1665V8.33398H7.49984V45.834C7.49815 46.6622 7.8056 47.4612 8.36201 48.0746C8.91842 48.6881 9.68374 49.0718 10.5082 49.1507C10.6165 49.159 10.7332 49.1673 10.8415 49.1673H42.4998V4.16732C42.4998 3.28326 42.1486 2.43542 41.5235 1.8103C40.8984 1.18517 40.0506 0.833984 39.1665 0.833984Z" fill="url(#paint0_linear_5274_17845)" fill-opacity="0.3"/>
<path d="M7.49991 4.16761C7.49995 3.70223 7.40254 3.242 7.21395 2.81654C7.02536 2.39108 6.74977 2.00982 6.40492 1.69732C6.06007 1.38481 5.65361 1.14798 5.21169 1.00206C4.76978 0.85615 4.3022 0.804388 3.83907 0.850112C2.9994 0.954634 2.22799 1.36584 1.67314 2.00468C1.11829 2.64352 0.819153 3.46491 0.833239 4.31095V7.50095C0.833239 7.72196 0.921037 7.93392 1.07732 8.0902C1.2336 8.24648 1.44556 8.33428 1.66657 8.33428H7.49991V4.16761Z" fill="#686866"/>
<path d="M10.8333 49.168H45.8333C46.7173 49.168 47.5652 48.8168 48.1903 48.1917C48.8154 47.5665 49.1666 46.7187 49.1666 45.8346V41.668H14.1666V45.8346C14.1666 46.7187 13.8154 47.5665 13.1903 48.1917C12.5652 48.8168 11.7173 49.168 10.8333 49.168Z" fill="#8D8D8D"/>
<path d="M37.3371 31.9395H36.0153V30.1771C36.0187 28.6343 35.6943 27.1084 35.0636 25.7004C35.4845 25.3469 35.8274 24.9097 36.0703 24.4165C36.3133 23.9234 36.4511 23.3851 36.4749 22.8359C36.4988 22.2867 36.4082 21.7385 36.2089 21.2262C36.0096 20.7138 35.7059 20.2485 35.3172 19.8598C34.9285 19.4711 34.4632 19.1674 33.9508 18.9681C33.4385 18.7688 32.8903 18.6782 32.3411 18.7021C31.7919 18.7259 31.2536 18.8637 30.7605 19.1067C30.2674 19.3497 29.8301 19.6925 29.4766 20.1135C28.5832 19.7156 27.6408 19.4386 26.6743 19.2895L27.0268 17.1746C27.0584 16.9838 27.0477 16.7884 26.9956 16.6022C26.9435 16.416 26.8511 16.2435 26.7251 16.0969C26.5991 15.9503 26.4424 15.8331 26.2661 15.7536C26.0898 15.6741 25.8983 15.6342 25.7049 15.6368H24.2773C24.084 15.6342 23.8924 15.6741 23.7162 15.7536C23.5399 15.8331 23.3832 15.9503 23.2572 16.0969C23.1311 16.2435 23.0388 16.416 22.9867 16.6022C22.9345 16.7884 22.9239 16.9838 22.9555 17.1746L23.308 19.2895C20.7105 19.6933 18.343 21.0127 16.6331 23.0094C14.9233 25.006 13.9839 27.5483 13.9846 30.1771V31.9395H12.6628C12.5459 31.9395 12.4339 31.9859 12.3512 32.0686C12.2686 32.1512 12.2222 32.2633 12.2222 32.3801V33.4817C12.222 33.5565 12.241 33.6302 12.2772 33.6958C12.3134 33.7613 12.3658 33.8165 12.4293 33.8562L14.1917 34.9577C14.2618 35.0012 14.3427 35.0241 14.4252 35.0238H35.5747C35.6572 35.0241 35.7381 35.0012 35.8082 34.9577L37.5706 33.8562C37.6341 33.8165 37.6865 33.7613 37.7227 33.6958C37.7589 33.6302 37.7779 33.5565 37.7777 33.4817V32.3801C37.7777 32.2633 37.7313 32.1512 37.6487 32.0686C37.566 31.9859 37.454 31.9395 37.3371 31.9395ZM32.4904 19.6024C33.1004 19.6024 33.6967 19.7832 34.2039 20.1222C34.7111 20.4611 35.1064 20.9428 35.3399 21.5063C35.5733 22.0699 35.6344 22.6901 35.5154 23.2884C35.3964 23.8867 35.1026 24.4362 34.6713 24.8676C34.2399 25.2989 33.6904 25.5927 33.0921 25.7117C32.4938 25.8307 31.8736 25.7696 31.3101 25.5362C30.7465 25.3027 30.2648 24.9074 29.9259 24.4002C29.587 23.893 29.4061 23.2967 29.4061 22.6866C29.4061 21.8686 29.731 21.0841 30.3094 20.5057C30.8879 19.9273 31.6724 19.6024 32.4904 19.6024ZM23.8411 17.0292C23.8308 16.9657 23.8346 16.9007 23.852 16.8388C23.8695 16.777 23.9004 16.7197 23.9423 16.6709C23.9843 16.6222 24.0365 16.5833 24.0951 16.5569C24.1537 16.5305 24.2174 16.5172 24.2817 16.5181H25.727C25.7913 16.5172 25.855 16.5305 25.9136 16.5569C25.9722 16.5833 26.0244 16.6222 26.0664 16.6709C26.1084 16.7197 26.1392 16.777 26.1567 16.8388C26.1741 16.9007 26.1779 16.9657 26.1676 17.0292L25.8063 19.1926C25.2753 19.1529 24.7422 19.1529 24.2113 19.1926L23.8411 17.0292ZM14.8658 30.1771C14.8663 28.5027 15.2816 26.8546 16.0746 25.3799C16.8676 23.9053 18.0137 22.6501 19.4103 21.7266C20.8069 20.803 22.4106 20.24 24.078 20.0876C25.7454 19.9353 27.4246 20.1985 28.9655 20.8537C27.203 24.2729 30.8954 27.974 34.3233 26.2116C34.8591 27.4649 35.1349 28.814 35.134 30.1771V31.9395H14.8658V30.1771ZM36.8965 33.2614L35.4469 34.1426H14.553L13.1034 33.2614V32.8207H36.8965V33.2614Z" fill="url(#paint1_linear_5274_17845)"/>
<path d="M32.5198 18.5645C31.7141 18.5645 30.9266 18.8033 30.2568 19.2509C29.587 19.6985 29.0649 20.3346 28.7566 21.0789C28.4483 21.8232 28.3676 22.6422 28.5248 23.4323C28.682 24.2224 29.0699 24.9482 29.6396 25.5179C30.2092 26.0875 30.935 26.4755 31.7251 26.6326C32.5152 26.7898 33.3342 26.7091 34.0785 26.4008C34.8228 26.0925 35.4589 25.5705 35.9065 24.9006C36.3541 24.2308 36.593 23.4433 36.593 22.6377C36.5919 21.5577 36.1624 20.5223 35.3988 19.7587C34.6351 18.995 33.5997 18.5655 32.5198 18.5645ZM32.5198 19.9222C33.003 19.9246 33.4766 20.0576 33.8904 20.3071L30.1892 24.0083C29.9396 23.5945 29.8066 23.1209 29.8043 22.6377C29.8043 21.9175 30.0904 21.2268 30.5996 20.7175C31.1089 20.2083 31.7996 19.9222 32.5198 19.9222ZM32.5198 25.3532C32.0365 25.3508 31.5629 25.2178 31.1491 24.9682L34.8503 21.267C35.0999 21.6808 35.2329 22.1544 35.2352 22.6377C35.2352 23.3579 34.9491 24.0486 34.4399 24.5578C33.9306 25.0671 33.2399 25.3532 32.5198 25.3532Z" fill="#4A4A4A"/>
<path d="M20.1531 22.3082C19.0222 23.0056 18.0546 23.9384 17.3164 25.0431C16.5781 26.1478 16.0864 27.3986 15.8748 28.7103C15.857 28.8254 15.8855 28.9428 15.954 29.0369C16.0226 29.131 16.1255 29.1942 16.2405 29.2126H16.311C16.4166 29.214 16.5192 29.1774 16.6001 29.1094C16.6809 29.0415 16.7347 28.9468 16.7516 28.8425C16.9408 27.6594 17.3816 26.5307 18.0445 25.5327C18.7073 24.5346 19.5767 23.6905 20.5938 23.0573C20.6536 23.0344 20.7077 22.9988 20.7523 22.9528C20.797 22.9069 20.8311 22.8518 20.8523 22.7914C20.8734 22.7309 20.8812 22.6666 20.875 22.6029C20.8687 22.5391 20.8487 22.4775 20.8162 22.4223C20.7837 22.3671 20.7396 22.3196 20.6869 22.2832C20.6342 22.2468 20.5743 22.2223 20.5111 22.2115C20.448 22.2006 20.3833 22.2036 20.3215 22.2203C20.2596 22.2371 20.2022 22.267 20.1531 22.3082Z" fill="url(#paint2_linear_5274_17845)"/>
<defs>
<linearGradient id="paint0_linear_5274_17845" x1="23.3357" y1="49.1609" x2="23.3357" y2="0.812936" gradientUnits="userSpaceOnUse">
<stop stop-color="#9B9B9B"/>
<stop offset="1" stop-color="#DDDDDD"/>
</linearGradient>
<linearGradient id="paint1_linear_5274_17845" x1="25.0016" y1="35.0212" x2="25.0016" y2="15.6283" gradientUnits="userSpaceOnUse">
<stop stop-color="#9B9B9B"/>
<stop offset="1" stop-color="#DDDDDD"/>
</linearGradient>
<linearGradient id="paint2_linear_5274_17845" x1="18.3737" y1="29.2117" x2="18.3737" y2="22.202" gradientUnits="userSpaceOnUse">
<stop stop-color="#9B9B9B"/>
<stop offset="1" stop-color="#DDDDDD"/>
</linearGradient>
</defs>
</svg>
