<svg width="45" height="45" viewBox="0 0 45 45" fill="none" xmlns="http://www.w3.org/2000/svg">
<path d="M40.8359 15.2328V41.375C40.8328 42.0267 40.5726 42.6509 40.1117 43.1117C39.6509 43.5726 39.0267 43.8328 38.375 43.8359H11.6562C11.0045 43.8328 10.3804 43.5726 9.91954 43.1117C9.45869 42.6509 9.19842 42.0267 9.19531 41.375V7.625C9.19842 6.97328 9.45869 6.34913 9.91954 5.88829C10.3804 5.42744 11.0045 5.16717 11.6562 5.16406H30.7673C31.4156 5.16707 32.0368 5.42463 32.497 5.88125L40.1187 13.5031C40.3464 13.7299 40.527 13.9995 40.6501 14.2963C40.7732 14.5932 40.8364 14.9115 40.8359 15.2328Z" fill="url(#paint0_linear_5274_19186)" fill-opacity="0.6"/>
<path d="M40.8359 15.2328V15.7109H32.75C32.0983 15.7078 31.4741 15.4476 31.0133 14.9867C30.5524 14.5259 30.2922 13.9017 30.2891 13.25V5.16406H30.7673C31.4156 5.16707 32.0368 5.42463 32.497 5.88125L40.1187 13.5031C40.3464 13.7299 40.527 13.9995 40.6501 14.2963C40.7732 14.5932 40.8364 14.9115 40.8359 15.2328Z" fill="#D2D2D2"/>
<path d="M34.1562 24.1484H15.875C15.5953 24.1484 15.327 24.0373 15.1292 23.8395C14.9314 23.6417 14.8203 23.3735 14.8203 23.0938C14.8203 22.814 14.9314 22.5458 15.1292 22.348C15.327 22.1502 15.5953 22.0391 15.875 22.0391H34.1562C34.436 22.0391 34.7042 22.1502 34.902 22.348C35.0998 22.5458 35.2109 22.814 35.2109 23.0938C35.2109 23.3735 35.0998 23.6417 34.902 23.8395C34.7042 24.0373 34.436 24.1484 34.1562 24.1484Z" fill="white"/>
<path d="M34.1562 29.7734H15.875C15.5953 29.7734 15.327 29.6623 15.1292 29.4645C14.9314 29.2667 14.8203 28.9985 14.8203 28.7188C14.8203 28.439 14.9314 28.1708 15.1292 27.973C15.327 27.7752 15.5953 27.6641 15.875 27.6641H34.1562C34.436 27.6641 34.7042 27.7752 34.902 27.973C35.0998 28.1708 35.2109 28.439 35.2109 28.7188C35.2109 28.9985 35.0998 29.2667 34.902 29.4645C34.7042 29.6623 34.436 29.7734 34.1562 29.7734Z" fill="white"/>
<path d="M24.3126 39.6171C24.1389 39.6172 23.968 39.5743 23.8149 39.4924C23.6618 39.4104 23.5313 39.2919 23.4351 39.1474L21.3359 35.9992L19.4333 37.9018C19.2353 38.0984 18.9674 38.2085 18.6884 38.208C18.4094 38.2075 18.1419 38.0964 17.9446 37.8991C17.7473 37.7018 17.6363 37.4344 17.6357 37.1554C17.6352 36.8763 17.7453 36.6085 17.9419 36.4105L20.7544 33.598C20.8647 33.4875 20.9981 33.403 21.145 33.3504C21.292 33.2978 21.4487 33.2785 21.6041 33.2939C21.7594 33.3092 21.9093 33.3589 22.0431 33.4393C22.1768 33.5197 22.2911 33.6288 22.3776 33.7587L24.3126 36.6612L26.2476 33.7587C26.3341 33.6289 26.4483 33.5199 26.582 33.4395C26.7157 33.3592 26.8655 33.3094 27.0207 33.2938C27.1762 33.2774 27.3333 33.2963 27.4805 33.3489C27.6276 33.4016 27.761 33.4867 27.8708 33.598L30.3743 36.1015H34.1563C34.436 36.1015 34.7043 36.2126 34.9021 36.4104C35.0999 36.6082 35.211 36.8765 35.211 37.1562C35.211 37.4359 35.0999 37.7042 34.9021 37.902C34.7043 38.0998 34.436 38.2109 34.1563 38.2109H29.9376C29.7991 38.2109 29.6619 38.1836 29.534 38.1306C29.406 38.0776 29.2898 37.9999 29.1919 37.9019L27.2885 35.9992L25.1901 39.1474C25.0938 39.2919 24.9633 39.4104 24.8102 39.4924C24.6572 39.5743 24.4862 39.6172 24.3126 39.6171Z" fill="white"/>
<path d="M10.5 2C9.21442 2 7.95772 2.38122 6.8888 3.09545C5.81988 3.80968 4.98676 4.82484 4.49479 6.01256C4.00282 7.20028 3.87409 8.50721 4.1249 9.76809C4.3757 11.029 4.99477 12.1872 5.90381 13.0962C6.81285 14.0052 7.97104 14.6243 9.23192 14.8751C10.4928 15.1259 11.7997 14.9972 12.9874 14.5052C14.1752 14.0132 15.1903 13.1801 15.9046 12.1112C16.6188 11.0423 17 9.78558 17 8.5C16.9983 6.77662 16.3129 5.12432 15.0943 3.90571C13.8757 2.68709 12.2234 2.00172 10.5 2ZM10.5 4.16667C11.2711 4.17044 12.0269 4.38268 12.6873 4.78092L6.78092 10.6872C6.38268 10.0269 6.17044 9.27113 6.16667 8.5C6.16667 7.35073 6.62322 6.24853 7.43587 5.43587C8.24853 4.62321 9.35073 4.16667 10.5 4.16667ZM10.5 12.8333C9.72887 12.8296 8.97311 12.6173 8.31275 12.2191L14.2191 6.31275C14.6173 6.9731 14.8296 7.72887 14.8333 8.5C14.8333 9.64927 14.3768 10.7515 13.5641 11.5641C12.7515 12.3768 11.6493 12.8333 10.5 12.8333Z" fill="#4A4A4A"/>
<defs>
<linearGradient id="paint0_linear_5274_19186" x1="25.0177" y1="43.8308" x2="25.0177" y2="5.14722" gradientUnits="userSpaceOnUse">
<stop stop-color="#9B9B9B"/>
<stop offset="1" stop-color="#DDDDDD"/>
</linearGradient>
</defs>
</svg>
