<svg width="161" height="146" viewBox="0 0 161 146" fill="none" xmlns="http://www.w3.org/2000/svg">
<path d="M148.206 82.1849C148.206 87.6324 147.545 92.925 146.301 97.9879C146.238 98.2425 146.174 98.4964 146.109 98.7494C143.347 109.432 137.977 119.065 130.717 126.929H33.7235C22.8674 115.169 16.2351 99.4519 16.2351 82.1849C16.2351 70.6825 19.1782 59.8676 24.3524 50.4518C24.6011 49.9992 24.855 49.5501 25.1139 49.1046C29.6985 41.2063 35.875 34.3467 43.2035 28.9653C43.5539 28.7075 43.9068 28.4537 44.262 28.2038C54.9977 20.6413 68.0904 16.1997 82.2203 16.1997C103.07 16.1997 121.662 25.8698 133.754 40.9698C133.956 41.2225 134.156 41.4763 134.355 41.7314C143.036 52.9035 148.206 66.9403 148.206 82.1849Z" fill="#EFF4F9"/>
<path d="M84.4039 28.2041H44.2612C43.906 28.454 43.5532 28.7078 43.2027 28.9656H84.4039C86.5621 28.9656 88.318 30.7215 88.318 32.8797V88.2567C88.318 90.415 86.5621 92.1709 84.4039 92.1709H29.0277C26.8695 92.1709 25.1136 90.415 25.1136 88.2567V49.1045C24.8546 49.55 24.6007 49.9995 24.3521 50.4517V88.2563C24.3521 90.8347 26.4493 92.932 29.0277 92.932H84.4043C86.9827 92.932 89.0799 90.8347 89.0799 88.2563V32.8797C89.0799 30.3021 86.9823 28.2041 84.4039 28.2041Z" fill="white"/>
<path d="M82.5685 97.9879C82.3586 97.9879 82.1879 97.8173 82.1879 97.607V42.112C82.1879 41.9021 82.3586 41.731 82.5685 41.731H134.355C134.156 41.476 133.956 41.2221 133.753 40.9695H82.5685C81.9389 40.9695 81.426 41.4815 81.426 42.112V97.607C81.426 98.237 81.9389 98.7494 82.5685 98.7494H146.109C146.174 98.4964 146.238 98.2426 146.301 97.9879H82.5685Z" fill="white"/>
<path d="M84.1416 129.8C119.106 129.8 147.45 127.945 147.45 125.658C147.45 123.371 119.106 121.516 84.1416 121.516C49.1774 121.516 20.8333 123.371 20.8333 125.658C20.8333 127.945 49.1774 129.8 84.1416 129.8Z" fill="#E8E8E8"/>
<path d="M105.721 115.777C106.971 113.652 111.648 108.734 120.078 107.484C121.458 107.279 124.521 106.825 125.593 107.633C127.723 109.237 117.715 114.773 118.953 115.612C120.269 116.504 132.024 110.717 133.939 111.807C134.838 112.319 125.83 115.842 125.867 121.104C125.875 122.292 126.337 123.299 126.787 124.024L102.882 123.082C102.882 123.082 102.64 121.012 105.721 115.777Z" fill="#24963F"/>
<path d="M85.4352 99.0097C76.1615 97.3722 69.9494 88.4953 71.5869 79.2217L74.9584 60.1271C76.5959 50.8534 85.4728 44.6413 94.7464 46.2787C104.02 47.9162 110.232 56.7931 108.595 66.0667L105.223 85.1613C103.586 94.435 94.7088 100.647 85.4352 99.0097ZM93.8055 51.6082C87.4706 50.4895 81.407 54.7331 80.2883 61.068L76.9167 80.1626C75.798 86.4975 80.0416 92.5611 86.3765 93.6798C92.7114 94.7985 98.775 90.5545 99.8937 84.22L103.265 65.1254C104.384 58.7909 100.14 52.7269 93.8055 51.6082Z" fill="#C4D7F2"/>
<path d="M84.0426 98.764C74.7689 97.1266 68.5568 88.2497 70.1943 78.9761L73.5659 59.8815C75.2034 50.6078 84.0802 44.3957 93.3539 46.0331C102.628 47.6706 108.84 56.5475 107.202 65.8211L103.831 84.9157C102.193 94.1894 93.3162 100.402 84.0426 98.764ZM92.413 51.3626C86.0781 50.2439 80.0144 54.4875 78.8957 60.8224L75.5241 79.917C74.4054 86.2519 78.649 92.3155 84.9839 93.4342C91.3188 94.5529 97.3824 90.3089 98.5011 83.9744L101.873 64.8798C102.991 58.5453 98.7479 52.4813 92.413 51.3626Z" fill="white"/>
<path d="M99.1522 124.591L65.6707 118.678C62.0144 118.033 59.5734 114.545 60.2193 110.889L66.1317 77.4071C66.7772 73.7508 70.2648 71.3098 73.9215 71.9557L107.403 77.868C111.059 78.5135 113.5 82.0011 112.854 85.6579L106.942 119.139C106.297 122.796 102.809 125.237 99.1522 124.591Z" fill="#536686"/>
<path d="M109.807 85.1199L103.895 118.602C103.249 122.258 99.7616 124.699 96.1049 124.053L62.6234 118.141C58.9667 117.495 56.5261 114.007 57.172 110.351L63.0843 76.8691C63.7302 73.2124 67.2175 70.7718 70.8742 71.4177L104.356 77.3301C108.012 77.9756 110.453 81.4632 109.807 85.1199Z" fill="#4B566B"/>
<path opacity="0.18" d="M109.807 85.1194L103.895 118.601C103.249 122.257 99.7616 124.699 96.1049 124.053L80.0774 121.222L88.3278 74.4989L104.355 77.3292C108.012 77.975 110.453 81.4627 109.807 85.1194Z" fill="#78AFFF"/>
<path opacity="0.18" d="M88.9878 95.9504C88.6156 98.0583 86.9983 99.6329 85.0266 100.054L84.3669 103.79C84.2275 104.579 83.622 105.171 82.8834 105.33C82.6474 105.381 82.3979 105.388 82.1457 105.344C81.1038 105.16 80.4076 104.165 80.5917 103.123L81.2515 99.3877C79.5431 98.3165 78.563 96.2834 78.9352 94.1751C79.4255 91.3991 82.0736 89.5458 84.8488 90.0357C85.0904 90.0784 85.3264 90.1378 85.5533 90.2119C87.9305 90.9889 89.4353 93.4164 88.9878 95.9504Z" fill="#003889"/>
<path d="M88.9878 95.9503C88.6156 98.0582 86.9983 99.6328 85.0266 100.054L84.3669 103.79C84.2275 104.579 83.622 105.171 82.8834 105.33C82.2447 104.927 81.8784 104.164 82.0178 103.375L82.6775 99.6391C80.9691 98.5679 79.989 96.5348 80.3613 94.4265C80.8088 91.892 83.0541 90.127 85.5529 90.2114C87.9305 90.9888 89.4353 93.4163 88.9878 95.9503Z" fill="white"/>
<path opacity="0.18" d="M95.3913 120.813C95.1569 120.743 94.8856 120.777 94.6579 120.902L92.7381 121.965C92.4906 122.102 92.1825 122.041 92.0716 121.833L90.9442 119.726C90.8891 119.623 90.7878 119.546 90.6606 119.511L88.5286 118.923C88.3587 118.876 88.1626 118.909 88.0074 119.01L86.343 120.092C86.0697 120.269 85.7023 120.205 85.5839 119.958L84.6687 118.061C84.597 117.911 84.4548 117.799 84.2743 117.749L78.1552 116.057L74.8355 115.141C76.3035 110.176 74.0407 105.486 69.2078 104.154C66.0711 103.289 62.5351 104.026 59.571 105.878C58.8198 102.508 56.407 99.8068 52.7158 98.7891C46.3361 97.03 38.5158 100.952 35.2832 107.533C32.0499 114.115 34.61 120.9 40.9897 122.66C44.9181 123.743 49.3929 122.672 53.0053 120.152C53.7945 122.726 55.7757 124.754 58.6939 125.559C63.3398 126.841 68.8609 124.607 72.1046 120.44L94.9526 126.741C95.1098 126.784 95.2963 126.738 95.4432 126.619C95.4705 126.596 95.5006 126.571 95.5327 126.544C95.5505 126.528 95.5683 126.513 95.5877 126.496C95.5909 126.493 95.5937 126.491 95.5973 126.487C95.6107 126.475 95.6246 126.463 95.6396 126.45C95.7283 126.37 95.8281 126.275 95.9358 126.167C95.9592 126.144 95.9834 126.119 96.0079 126.093C96.0665 126.032 96.1275 125.967 96.1893 125.898C96.3465 125.723 96.5148 125.521 96.6882 125.291C96.9468 124.946 97.2153 124.538 97.4727 124.061C97.5345 123.946 97.5967 123.826 97.6573 123.703C98.5146 121.955 96.3152 121.09 95.3913 120.813ZM57.7482 113.729C57.538 114.158 57.3063 114.575 57.056 114.979C57.0477 114.956 57.0398 114.932 57.0327 114.908C57.0255 114.885 57.0184 114.861 57.0129 114.838C57.0117 114.835 57.0109 114.832 57.0105 114.829C57.0045 114.809 56.9998 114.788 56.995 114.768C56.9816 114.709 56.9705 114.65 56.9614 114.589C56.9578 114.564 56.9546 114.539 56.9519 114.513C56.9483 114.483 56.9455 114.452 56.9439 114.421C56.942 114.4 56.9408 114.379 56.9404 114.357C56.9392 114.337 56.9384 114.316 56.938 114.294C56.9376 114.268 56.9376 114.241 56.9384 114.214C56.9384 114.203 56.9388 114.192 56.9396 114.18C56.94 114.161 56.9408 114.143 56.9416 114.124C56.9436 114.091 56.9455 114.058 56.9487 114.025L56.9495 114.022C56.9519 113.993 56.955 113.964 56.9594 113.935C56.9622 113.911 56.9657 113.886 56.9705 113.861C56.9729 113.845 56.9756 113.828 56.9784 113.812C57.0105 113.632 57.0627 113.449 57.136 113.267C57.2176 113.063 57.319 112.87 57.4378 112.688C57.4968 112.597 57.5601 112.51 57.6275 112.426C57.6275 112.426 57.6282 112.426 57.6282 112.425C57.6726 112.369 57.7189 112.314 57.7665 112.261C57.886 112.129 58.0147 112.005 58.1522 111.892C58.1522 111.891 58.1522 111.891 58.1537 111.891C58.2143 111.857 58.2761 111.826 58.3387 111.796C58.3628 111.784 58.3866 111.773 58.4111 111.763C58.4527 111.744 58.4939 111.726 58.5355 111.71C58.5402 111.708 58.5458 111.705 58.5513 111.703C58.3466 112.376 58.0809 113.054 57.7482 113.729ZM58.2393 116.198C58.2084 116.186 58.1779 116.174 58.1486 116.161C58.1189 116.148 58.09 116.135 58.0619 116.121C58.0607 116.121 58.0603 116.12 58.0595 116.12C58.0302 116.106 58.0017 116.091 57.974 116.076C57.9474 116.061 57.9213 116.046 57.8963 116.03C57.8948 116.03 57.8928 116.029 57.892 116.027C57.8754 116.017 57.8583 116.006 57.8417 115.996C57.8076 115.974 57.7752 115.95 57.7431 115.926C57.7221 115.91 57.7015 115.895 57.6813 115.878C57.6619 115.862 57.6425 115.846 57.6239 115.83C57.6195 115.826 57.6152 115.823 57.6108 115.819C57.6001 115.81 57.5894 115.8 57.5791 115.79C57.5617 115.774 57.5443 115.757 57.5269 115.741C57.5055 115.719 57.4845 115.697 57.4639 115.674C57.4588 115.668 57.454 115.664 57.4493 115.657C57.4441 115.652 57.439 115.645 57.4342 115.64C57.7981 115.088 58.1288 114.513 58.4226 113.915C58.6115 113.531 58.7798 113.147 58.9291 112.762C59.0935 112.34 59.2344 111.917 59.3528 111.497C59.3627 111.495 59.3726 111.493 59.3822 111.493C59.3992 111.491 59.4158 111.489 59.4328 111.487C59.4408 111.487 59.4475 111.486 59.4554 111.485C59.4788 111.483 59.5017 111.482 59.5247 111.48C59.5307 111.479 59.537 111.479 59.5425 111.479C59.5631 111.478 59.5837 111.477 59.6043 111.476C59.6368 111.475 59.6689 111.474 59.7013 111.474C60.0098 111.473 60.314 111.525 60.6007 111.635C60.6937 111.67 60.7828 111.711 60.8668 111.757C60.8945 111.773 60.9222 111.789 60.9491 111.806C61.003 111.839 61.0549 111.874 61.1044 111.912C61.1289 111.93 61.1535 111.949 61.1769 111.969C61.1769 111.969 61.1769 111.969 61.1776 111.969C61.2248 112.009 61.2699 112.05 61.3135 112.093H61.3143C61.3566 112.136 61.3978 112.182 61.4358 112.228C61.4489 112.244 61.462 112.26 61.4746 112.277C61.5257 112.342 61.5725 112.411 61.6152 112.483C61.6366 112.519 61.6564 112.556 61.675 112.593C61.6845 112.612 61.6936 112.631 61.7024 112.65C61.7083 112.662 61.7138 112.675 61.7194 112.688C61.7372 112.728 61.7542 112.768 61.7693 112.81C61.7784 112.834 61.7871 112.86 61.795 112.885C61.8085 112.925 61.82 112.966 61.8307 113.007C61.8413 113.049 61.8512 113.091 61.8592 113.133C61.8592 113.133 61.86 113.133 61.8596 113.134C61.8774 113.224 61.8889 113.317 61.8956 113.411C61.9011 113.49 61.9031 113.57 61.9004 113.652C61.9027 113.574 61.9007 113.498 61.896 113.423C61.9011 113.498 61.9031 113.574 61.9007 113.652C61.8992 113.684 61.898 113.717 61.896 113.751C61.8948 113.758 61.8944 113.767 61.894 113.774C61.8936 113.779 61.8928 113.785 61.8924 113.791C61.8905 113.815 61.8877 113.84 61.8849 113.864C61.8829 113.878 61.8813 113.893 61.8798 113.906C61.8778 113.92 61.8762 113.935 61.8738 113.949C61.8703 113.974 61.8663 113.999 61.8615 114.024C61.8291 114.203 61.7764 114.385 61.7039 114.566C61.6627 114.668 61.6172 114.768 61.5673 114.864C61.5673 114.864 61.5677 114.865 61.5669 114.865C61.4992 114.994 61.424 115.117 61.342 115.235C61.1559 115.501 60.9341 115.739 60.6866 115.943C59.9132 116.366 59.0135 116.494 58.2393 116.198ZM41.3302 121.965C35.322 120.308 32.9112 113.917 35.9553 107.719C39.0001 101.522 46.3651 97.8272 52.3733 99.4845C55.9167 100.462 58.2096 103.086 58.8697 106.345C56.9796 107.682 55.3714 109.487 54.324 111.62C54.2388 111.794 54.1577 111.969 54.0812 112.143C53.9901 112.309 53.9038 112.476 53.8199 112.646C52.7839 114.755 52.4422 116.885 52.7071 118.804C52.7384 119.031 52.7788 119.255 52.8267 119.476C49.3941 121.939 45.0951 123.003 41.3302 121.965Z" fill="#003889"/>
<path d="M63.6821 103.537C60.358 102.648 56.9821 103.405 54.4188 105.308C54.2132 105.46 54.0132 105.62 53.8192 105.786C52.2186 107.16 51.0016 109.014 50.4159 111.206C50.3684 111.385 50.3253 111.564 50.2864 111.743C49.085 117.351 52.4827 122.974 58.085 124.472C63.6912 125.971 69.4464 122.788 71.1991 117.321C71.2537 117.151 71.3044 116.978 71.3516 116.803C72.8976 111.022 69.4634 105.082 63.6821 103.537ZM54.2972 113.373C54.18 113.814 54.0382 114.242 53.8758 114.658C53.8624 114.634 53.8493 114.609 53.837 114.584C53.8251 114.561 53.8129 114.537 53.8022 114.513C53.8002 114.509 53.799 114.506 53.7978 114.503C53.7875 114.482 53.778 114.461 53.7693 114.44C53.7432 114.38 53.719 114.319 53.6968 114.257C53.6881 114.231 53.679 114.205 53.6707 114.178C53.6604 114.147 53.6509 114.115 53.6426 114.083C53.6363 114.062 53.6303 114.04 53.6256 114.018C53.62 113.997 53.6149 113.976 53.6097 113.953C53.6034 113.926 53.5978 113.899 53.5927 113.871C53.5903 113.86 53.5883 113.848 53.5864 113.836C53.5824 113.817 53.5792 113.798 53.5761 113.778C53.5709 113.745 53.5658 113.711 53.5622 113.677V113.674C53.5582 113.645 53.5551 113.614 53.5535 113.585C53.5511 113.559 53.5491 113.534 53.5483 113.509C53.5472 113.492 53.5464 113.475 53.546 113.458C53.5388 113.273 53.5515 113.085 53.5852 112.898C53.6228 112.689 53.6822 112.49 53.7614 112.303C53.8006 112.21 53.8453 112.12 53.8941 112.034C53.8941 112.034 53.8948 112.034 53.8948 112.033C53.9273 111.976 53.9614 111.919 53.9978 111.865C54.0885 111.728 54.1907 111.601 54.3035 111.485C54.3035 111.484 54.3035 111.484 54.3047 111.484C54.3582 111.45 54.4132 111.417 54.4691 111.387C54.4908 111.375 54.5122 111.364 54.5344 111.353C54.572 111.333 54.6092 111.315 54.6473 111.298C54.6516 111.296 54.6568 111.294 54.6619 111.292C54.6021 111.983 54.4829 112.679 54.2972 113.373ZM58.3606 114.54C58.3206 114.671 58.2723 114.799 58.2161 114.92C58.0874 115.193 57.9171 115.437 57.7139 115.647C57.0328 116.082 56.1612 116.213 55.3228 115.909C55.2892 115.897 55.2563 115.884 55.2238 115.871C55.1914 115.858 55.1597 115.844 55.1288 115.83C55.1276 115.83 55.1268 115.829 55.1264 115.829C55.0939 115.814 55.0623 115.799 55.0314 115.783C55.0017 115.768 54.9724 115.753 54.9439 115.737C54.9419 115.736 54.9399 115.735 54.9387 115.734C54.9197 115.723 54.9007 115.712 54.8817 115.701C54.8429 115.678 54.8053 115.654 54.768 115.63C54.7435 115.614 54.7197 115.597 54.696 115.58C54.673 115.564 54.6504 115.548 54.6282 115.531C54.6231 115.527 54.6179 115.523 54.6128 115.519C54.6084 115.516 54.6041 115.513 54.5993 115.51C54.591 115.503 54.5827 115.496 54.5748 115.49C54.5538 115.473 54.5328 115.456 54.5118 115.439C54.4857 115.417 54.4599 115.394 54.4346 115.37C54.4283 115.365 54.4223 115.36 54.4164 115.353C54.41 115.348 54.4037 115.341 54.3974 115.335C54.6417 114.768 54.848 114.178 55.0124 113.563C55.1185 113.169 55.2032 112.775 55.2694 112.379C55.3422 111.945 55.3917 111.511 55.4191 111.079C55.4286 111.077 55.4381 111.076 55.4476 111.075C55.4642 111.073 55.4804 111.071 55.4971 111.069C55.5046 111.069 55.5117 111.068 55.5193 111.067C55.5422 111.065 55.5648 111.063 55.587 111.062C55.5925 111.061 55.5989 111.061 55.6048 111.061C55.625 111.06 55.6456 111.059 55.6658 111.058C55.6983 111.057 55.7299 111.056 55.7624 111.056C56.0709 111.055 56.3861 111.109 56.6966 111.221C56.7976 111.258 56.8954 111.3 56.9892 111.347C57.0201 111.363 57.0514 111.38 57.0819 111.397C57.1429 111.431 57.2023 111.467 57.2601 111.505C57.2886 111.524 57.3171 111.544 57.3452 111.564C57.3452 111.564 57.3452 111.564 57.346 111.564C57.4019 111.605 57.4557 111.648 57.5084 111.691H57.5092C57.5611 111.737 57.6121 111.783 57.6601 111.83C57.6767 111.847 57.6929 111.863 57.7096 111.881C57.7749 111.948 57.8367 112.019 57.8949 112.093C57.9242 112.13 57.9519 112.167 57.9788 112.206C57.9923 112.225 58.0054 112.244 58.0181 112.264C58.0212 112.269 58.0252 112.274 58.0283 112.279C58.0608 112.327 58.0913 112.378 58.1198 112.428C58.1345 112.454 58.1483 112.48 58.1618 112.505C58.184 112.546 58.2042 112.589 58.224 112.632C58.2438 112.674 58.2628 112.717 58.2798 112.76C58.2798 112.76 58.2806 112.76 58.2806 112.761C58.3491 112.933 58.401 113.111 58.4343 113.293C58.4398 113.327 58.4457 113.361 58.4509 113.395C58.4517 113.403 58.4529 113.411 58.4541 113.419C58.4548 113.424 58.4552 113.43 58.456 113.436C58.4592 113.461 58.4616 113.487 58.4644 113.512C58.4655 113.526 58.4667 113.541 58.4683 113.555C58.4695 113.569 58.4707 113.584 58.4715 113.599C58.4735 113.624 58.4746 113.65 58.4754 113.675C58.4818 113.86 58.4683 114.046 58.4354 114.233C58.4164 114.337 58.3923 114.439 58.363 114.538C58.3606 114.538 58.361 114.539 58.3606 114.54Z" fill="#C4D7F2"/>
<path d="M83.4812 119.773C83.653 120.027 84.0348 120.093 84.2696 119.911L85.6996 118.799C85.8327 118.695 86.0219 118.661 86.2017 118.709L88.4609 119.313C88.5956 119.349 88.714 119.429 88.7912 119.534L90.3752 121.699C90.5313 121.912 90.8528 121.975 91.0706 121.835L92.7604 120.743C92.9608 120.613 93.2249 120.579 93.474 120.65C94.458 120.935 96.8448 121.823 96.3644 123.62C96.3304 123.746 96.2943 123.869 96.2575 123.988C96.1035 124.478 95.9237 124.897 95.7395 125.251C95.616 125.488 95.4916 125.696 95.372 125.876C95.3249 125.946 95.2786 126.013 95.2326 126.076C95.2136 126.102 95.195 126.127 95.1768 126.152C95.0924 126.263 95.0133 126.36 94.942 126.442C94.9297 126.456 94.919 126.468 94.9079 126.481C94.9051 126.484 94.9028 126.487 94.9004 126.49C94.8849 126.507 94.8703 126.523 94.8556 126.539C94.8295 126.567 94.805 126.592 94.7824 126.616C94.6612 126.738 94.4846 126.786 94.3183 126.741L68.4219 119.817L69.8855 114.342L75.2074 115.765L81.6932 117.504C81.8845 117.555 82.0508 117.67 82.1549 117.824L83.4812 119.773Z" fill="url(#paint0_linear_5274_20701)"/>
<path d="M68.9966 116.699L96.258 123.987C96.104 124.477 95.9242 124.896 95.74 125.251C95.6165 125.487 95.4921 125.695 95.3725 125.875C95.3254 125.946 95.2791 126.012 95.2331 126.075C95.2141 126.101 95.1955 126.127 95.1773 126.151C95.0929 126.263 95.0138 126.36 94.9425 126.442C94.9302 126.456 94.9195 126.468 94.9084 126.48C94.9056 126.484 94.9033 126.486 94.9009 126.489C94.8854 126.506 94.8708 126.523 94.8561 126.538C94.83 126.566 94.8055 126.592 94.7829 126.616C94.6617 126.738 94.4851 126.785 94.3188 126.74L68.1804 119.752L68.9966 116.699Z" fill="white"/>
<path d="M70.1925 118.421L95.7392 125.251C95.6157 125.487 95.4913 125.695 95.3718 125.875L70.012 119.095L70.1925 118.421Z" fill="#FF8200"/>
<path d="M63.4012 104.591C60.5424 103.826 57.6452 104.279 55.2597 105.631C55.0648 105.742 54.8732 105.859 54.6855 105.98C54.6581 105.997 54.6316 106.015 54.6047 106.032C54.4186 106.156 54.2364 106.285 54.0582 106.421C52.336 107.724 50.9892 109.55 50.2866 111.743C50.2316 111.913 50.1813 112.085 50.1342 112.259C49.5548 114.426 49.6748 116.615 50.3552 118.586C50.4359 118.82 50.5246 119.05 50.6205 119.277C50.6244 119.285 50.6276 119.294 50.6312 119.303C50.6514 119.35 50.672 119.396 50.6925 119.444C50.7123 119.489 50.7325 119.534 50.7535 119.578C50.7694 119.614 50.7864 119.649 50.803 119.685C50.822 119.726 50.8418 119.766 50.8612 119.806C50.8886 119.862 50.9159 119.917 50.9436 119.971C52.2904 122.615 54.7108 124.699 57.8032 125.526C63.5845 127.072 69.5238 123.639 71.0698 117.857C71.1173 117.679 71.1605 117.5 71.1993 117.321C72.4016 111.714 69.0042 106.088 63.4012 104.591ZM56.696 111.221C56.797 111.258 56.8948 111.3 56.9886 111.347C57.0195 111.363 57.0508 111.38 57.0813 111.397C57.1423 111.43 57.2017 111.467 57.2595 111.505C57.288 111.524 57.3165 111.544 57.3446 111.564C57.3446 111.564 57.3446 111.564 57.3454 111.564C57.4013 111.605 57.4551 111.647 57.5078 111.691H57.5086C57.5605 111.737 57.6116 111.783 57.6595 111.83C57.6761 111.847 57.6923 111.863 57.709 111.881C57.7743 111.948 57.8361 112.019 57.8943 112.093C57.9236 112.13 57.9513 112.167 57.9783 112.206C57.9917 112.225 58.0048 112.244 58.0175 112.264C58.0206 112.269 58.0246 112.274 58.0278 112.279C58.0602 112.327 58.0907 112.378 58.1192 112.428C58.1339 112.454 58.1477 112.48 58.1612 112.505C58.1834 112.546 58.2036 112.589 58.2234 112.632C58.2432 112.674 58.2622 112.717 58.2792 112.76C58.2792 112.76 58.28 112.76 58.28 112.761C58.3485 112.932 58.4004 113.111 58.4337 113.293C58.4392 113.327 58.4451 113.361 58.4503 113.395C58.4511 113.403 58.4523 113.411 58.4535 113.419C58.4543 113.424 58.4546 113.43 58.4554 113.436C58.4586 113.461 58.461 113.487 58.4638 113.511C58.4649 113.526 58.4661 113.541 58.4677 113.555C58.4689 113.569 58.4701 113.584 58.4709 113.599C58.4729 113.624 58.4741 113.65 58.4748 113.675C58.4812 113.86 58.4677 114.046 58.4349 114.233C58.4158 114.337 58.3917 114.439 58.3624 114.538C58.3624 114.538 58.3632 114.539 58.3624 114.539C58.3224 114.671 58.2741 114.798 58.2178 114.92C58.0891 115.192 57.9189 115.437 57.7157 115.647C57.0346 116.082 56.163 116.213 55.3246 115.909C55.291 115.897 55.2581 115.884 55.2256 115.87C55.1931 115.858 55.1615 115.844 55.1306 115.83C55.1294 115.83 55.1286 115.829 55.1282 115.828C55.0957 115.814 55.0641 115.799 55.0332 115.783C55.0035 115.768 54.9742 115.752 54.9456 115.737C54.9437 115.736 54.9417 115.735 54.9405 115.733C54.9215 115.723 54.9025 115.712 54.8835 115.701C54.8447 115.678 54.807 115.654 54.7698 115.63C54.7453 115.613 54.7215 115.597 54.6977 115.58C54.6748 115.564 54.6522 115.548 54.63 115.531C54.6249 115.527 54.6197 115.523 54.6146 115.519C54.6102 115.516 54.6059 115.513 54.6011 115.51C54.5928 115.503 54.5845 115.496 54.5766 115.489C54.5556 115.473 54.5346 115.456 54.5136 115.439C54.4875 115.417 54.4617 115.394 54.4364 115.37C54.43 115.365 54.4241 115.36 54.4182 115.353C54.4118 115.348 54.4055 115.341 54.3992 115.335C54.6435 114.768 54.8498 114.178 55.0142 113.563C55.1203 113.169 55.205 112.774 55.2712 112.379C55.344 111.945 55.3935 111.511 55.4209 111.079C55.4304 111.077 55.4399 111.076 55.4494 111.075C55.466 111.072 55.4822 111.071 55.4989 111.069C55.5064 111.068 55.5135 111.068 55.521 111.067C55.544 111.065 55.5666 111.063 55.5888 111.062C55.5943 111.061 55.6006 111.061 55.6066 111.061C55.6268 111.06 55.6474 111.059 55.6676 111.058C55.7 111.057 55.7317 111.056 55.7642 111.056C56.0703 111.055 56.3855 111.109 56.696 111.221ZM53.5858 112.898C53.6234 112.688 53.6828 112.49 53.762 112.303C53.8012 112.209 53.8459 112.12 53.8946 112.033C53.8946 112.033 53.8954 112.033 53.8954 112.032C53.9279 111.975 53.962 111.919 53.9984 111.864C54.0891 111.727 54.1913 111.601 54.3041 111.485C54.3041 111.484 54.3041 111.484 54.3053 111.484C54.3588 111.449 54.4138 111.417 54.4696 111.386C54.4914 111.375 54.5128 111.363 54.535 111.352C54.5726 111.333 54.6098 111.315 54.6479 111.298C54.6522 111.296 54.6574 111.293 54.6625 111.291C54.6027 111.983 54.4835 112.679 54.2978 113.373C54.1806 113.814 54.0388 114.242 53.8764 114.657C53.863 114.633 53.8499 114.609 53.8376 114.584C53.8257 114.56 53.8135 114.536 53.8028 114.512C53.8008 114.509 53.7996 114.506 53.7984 114.503C53.7881 114.482 53.7786 114.461 53.7699 114.44C53.7438 114.379 53.7196 114.319 53.6974 114.256C53.6887 114.23 53.6796 114.204 53.6713 114.178C53.661 114.146 53.6515 114.115 53.6432 114.083C53.6368 114.062 53.6309 114.04 53.6262 114.018C53.6206 113.997 53.6155 113.975 53.6103 113.953C53.604 113.926 53.5984 113.898 53.5933 113.871C53.5909 113.859 53.5889 113.848 53.587 113.836C53.583 113.817 53.5798 113.798 53.5767 113.778C53.5715 113.744 53.5664 113.711 53.5628 113.677V113.674C53.5588 113.644 53.5557 113.614 53.5541 113.584C53.5517 113.559 53.5497 113.534 53.5489 113.508C53.5477 113.492 53.547 113.475 53.5466 113.458C53.5394 113.273 53.5521 113.085 53.5858 112.898Z" fill="white"/>
<path d="M57.714 115.647C56.9885 116.398 55.854 116.703 54.7816 116.29C53.5817 115.829 52.8681 114.557 53.0974 113.291C53.2387 112.507 53.6945 111.874 54.3036 111.485C54.1907 111.601 54.0886 111.728 53.9979 111.864C53.9618 111.919 53.9274 111.975 53.8949 112.032C53.8949 112.033 53.8941 112.033 53.8941 112.033C53.8454 112.12 53.8007 112.21 53.7615 112.303C53.6823 112.489 53.6225 112.688 53.5852 112.898C53.5516 113.085 53.5389 113.273 53.546 113.458C53.5468 113.475 53.5472 113.492 53.5484 113.508C53.5492 113.534 53.5508 113.559 53.5536 113.584C53.5555 113.614 53.5587 113.644 53.5623 113.674V113.677C53.5662 113.711 53.571 113.744 53.5761 113.778C53.5793 113.798 53.5825 113.817 53.5864 113.836C53.5884 113.848 53.5904 113.859 53.5928 113.871C53.5979 113.899 53.6035 113.926 53.6098 113.953C53.6149 113.975 53.6201 113.997 53.6256 114.018C53.6308 114.04 53.6363 114.062 53.6427 114.083C53.651 114.115 53.6605 114.146 53.6708 114.178C53.6791 114.204 53.6878 114.23 53.6969 114.256C53.7191 114.319 53.7432 114.38 53.7694 114.44C53.7781 114.461 53.7876 114.482 53.7979 114.503C53.7991 114.506 53.8003 114.509 53.8023 114.512C53.8129 114.536 53.8252 114.561 53.8371 114.584C53.8494 114.608 53.8624 114.633 53.8759 114.658C54.0383 114.242 54.18 113.814 54.2973 113.373C54.4834 112.679 54.6026 111.983 54.662 111.292C54.6754 111.285 54.6885 111.28 54.7028 111.274C54.744 111.256 54.7851 111.239 54.8279 111.224C54.8398 111.219 54.8525 111.215 54.8647 111.211C54.8861 111.202 54.9087 111.195 54.9301 111.189C54.9388 111.185 54.9471 111.182 54.9554 111.18C54.9752 111.174 54.9942 111.168 55.0136 111.162C55.039 111.155 55.0651 111.148 55.0905 111.141C55.117 111.134 55.1439 111.128 55.1705 111.122C55.1792 111.12 55.1875 111.118 55.1966 111.116C55.2156 111.112 55.2346 111.109 55.2544 111.105C55.2691 111.101 55.2841 111.099 55.2988 111.096C55.319 111.092 55.3399 111.089 55.3609 111.086C55.3685 111.085 55.3756 111.084 55.3831 111.083C55.3887 111.082 55.395 111.081 55.4013 111.08C55.4069 111.079 55.4128 111.078 55.418 111.078C55.3906 111.511 55.3411 111.945 55.2683 112.379C55.2021 112.774 55.1174 113.169 55.0113 113.563C54.8469 114.177 54.6406 114.768 54.3963 115.335C54.4026 115.341 54.4089 115.347 54.4153 115.353C54.4216 115.359 54.4272 115.364 54.4335 115.37C54.4588 115.393 54.485 115.416 54.5107 115.439C54.5317 115.456 54.5527 115.473 54.5737 115.489C54.582 115.496 54.5903 115.503 54.5982 115.509C54.6026 115.513 54.6069 115.516 54.6117 115.519C54.6168 115.523 54.622 115.527 54.6271 115.53C54.6493 115.547 54.6719 115.564 54.6948 115.58C54.7186 115.597 54.7428 115.613 54.7669 115.629C54.8041 115.654 54.8418 115.678 54.8806 115.701C54.8996 115.711 54.9186 115.722 54.9376 115.733C54.9388 115.735 54.9408 115.736 54.9427 115.736C54.9713 115.752 55.0006 115.768 55.0303 115.783C55.0615 115.798 55.0932 115.814 55.1253 115.828C55.1261 115.829 55.1265 115.829 55.1277 115.829C55.159 115.843 55.1906 115.857 55.2227 115.87C55.2552 115.884 55.2881 115.897 55.3217 115.909C56.1609 116.213 57.0329 116.082 57.714 115.647Z" fill="#C4D7F2"/>
<path d="M67.8936 113.637L66.2113 119.929C66.1179 120.278 65.7563 120.487 65.4075 120.394C65.0586 120.3 64.8495 119.939 64.9425 119.59L66.6248 113.298C66.7182 112.949 67.0798 112.74 67.4287 112.833C67.7775 112.927 67.9866 113.288 67.8936 113.637Z" fill="#FF8200"/>
<path opacity="0.18" d="M55.6046 111.061C55.599 111.061 55.5927 111.061 55.5868 111.062C55.5646 111.064 55.5416 111.065 55.5191 111.068C55.5115 111.068 55.5044 111.069 55.4969 111.07C55.4802 111.072 55.464 111.073 55.4474 111.075C55.4379 111.076 55.4284 111.077 55.4189 111.079C55.3915 111.511 55.342 111.945 55.2692 112.38L54.611 112.203C54.6981 111.877 54.7702 111.551 54.8288 111.224C55.1468 109.453 55.0514 107.686 54.6055 106.033C54.632 106.015 54.6589 105.998 54.6863 105.981C54.874 105.859 55.0656 105.743 55.2605 105.632C55.7575 107.355 55.8941 109.203 55.6046 111.061Z" fill="#003889"/>
<path d="M55.4187 111.079C55.3913 111.511 55.3418 111.945 55.269 112.379C55.2028 112.775 55.1181 113.169 55.012 113.564C54.8476 114.178 54.6413 114.769 54.397 115.335C54.3851 115.325 54.3728 115.313 54.3613 115.302C54.3605 115.302 54.3593 115.301 54.3589 115.299C54.3348 115.276 54.3114 115.252 54.2881 115.227C54.2651 115.202 54.2417 115.176 54.2196 115.151C54.1974 115.125 54.1752 115.099 54.1534 115.072C54.132 115.046 54.111 115.019 54.0905 114.992C54.0703 114.964 54.0505 114.937 54.0307 114.908C54.0109 114.88 53.9926 114.853 53.974 114.823C53.9558 114.795 53.938 114.766 53.9206 114.736C53.9055 114.71 53.8909 114.684 53.8762 114.657V114.656C54.0386 114.241 54.1803 113.813 54.2976 113.372C54.4837 112.678 54.6029 111.982 54.6623 111.29C54.6758 111.284 54.6888 111.279 54.7031 111.273C54.7443 111.255 54.7854 111.238 54.8282 111.223C54.8401 111.218 54.8528 111.214 54.865 111.21C54.8864 111.201 54.909 111.194 54.9304 111.187C54.9391 111.184 54.9474 111.181 54.9557 111.179C54.9755 111.173 54.9945 111.166 55.0139 111.161C55.0393 111.154 55.0654 111.147 55.0908 111.14C55.1173 111.133 55.1442 111.127 55.1708 111.121C55.1795 111.119 55.1878 111.117 55.1969 111.115C55.2159 111.111 55.2349 111.107 55.2547 111.104C55.2694 111.1 55.2844 111.098 55.2991 111.095C55.3193 111.091 55.3403 111.088 55.3612 111.085C55.3688 111.084 55.3759 111.083 55.3834 111.082C55.389 111.081 55.3953 111.08 55.4016 111.079C55.408 111.08 55.4135 111.079 55.4187 111.079Z" fill="white"/>
<path d="M54.6117 115.52C54.6169 115.524 54.622 115.528 54.6272 115.532C54.6177 115.524 54.6078 115.518 54.5983 115.511C54.5686 115.488 54.5393 115.463 54.5107 115.44C54.5317 115.457 54.5527 115.474 54.5737 115.49C54.586 115.5 54.5987 115.511 54.6117 115.52Z" fill="white"/>
<path d="M54.6952 115.581C54.6904 115.577 54.6853 115.574 54.6805 115.571C54.6635 115.559 54.6461 115.546 54.629 115.533C54.6286 115.532 54.6278 115.532 54.6274 115.532C54.6496 115.548 54.6722 115.565 54.6952 115.581Z" fill="white"/>
<path d="M54.7676 115.63C54.7431 115.614 54.7193 115.598 54.6956 115.581C54.7193 115.598 54.7435 115.614 54.7676 115.63Z" fill="white"/>
<path d="M54.881 115.702C54.8422 115.679 54.8046 115.655 54.7673 115.63C54.8046 115.655 54.8422 115.679 54.881 115.702Z" fill="white"/>
<path d="M54.4695 111.387C54.4137 111.417 54.3586 111.45 54.3052 111.484V111.483C54.3582 111.449 54.4137 111.417 54.4695 111.387Z" fill="white"/>
<path d="M55.4472 111.075C55.4377 111.076 55.4282 111.077 55.4187 111.079C55.3913 111.511 55.3418 111.945 55.269 112.379C55.2028 112.775 55.1181 113.169 55.012 113.563C54.8476 114.178 54.6413 114.768 54.397 115.335C54.4033 115.342 54.4096 115.348 54.416 115.353C54.4096 115.348 54.4025 115.342 54.3962 115.336C54.3843 115.325 54.3728 115.313 54.3613 115.301C54.3605 115.301 54.3593 115.3 54.3589 115.299C54.3348 115.275 54.3114 115.251 54.2881 115.226C54.2651 115.202 54.2417 115.176 54.2196 115.151C54.1974 115.125 54.1752 115.099 54.1534 115.072C54.132 115.046 54.111 115.018 54.0905 114.991C54.0703 114.964 54.0505 114.936 54.0307 114.908C54.0109 114.88 53.9926 114.852 53.974 114.823C53.9558 114.794 53.938 114.766 53.9206 114.736C53.9055 114.709 53.8909 114.684 53.8762 114.657V114.656C54.0386 114.24 54.1803 113.813 54.2976 113.371C54.4837 112.677 54.6029 111.981 54.6623 111.29C54.6571 111.292 54.652 111.294 54.6476 111.296C54.6528 111.294 54.6571 111.291 54.6623 111.289C54.6758 111.284 54.6888 111.277 54.7031 111.272C54.7443 111.254 54.7854 111.237 54.8282 111.223C54.8401 111.218 54.8528 111.213 54.865 111.209C54.8864 111.201 54.909 111.193 54.9304 111.187C54.9391 111.184 54.9474 111.181 54.9557 111.179C54.9755 111.172 54.9945 111.166 55.0139 111.161C55.0393 111.153 55.0654 111.146 55.0908 111.14C55.1173 111.133 55.1442 111.126 55.1708 111.12C55.1795 111.118 55.1878 111.116 55.1969 111.115C55.2159 111.111 55.2349 111.107 55.2547 111.103C55.2694 111.1 55.2844 111.098 55.2991 111.095C55.3193 111.091 55.3403 111.088 55.3612 111.084C55.3688 111.083 55.3759 111.082 55.3834 111.081C55.389 111.08 55.3953 111.079 55.4016 111.079C55.4072 111.078 55.4123 111.077 55.4183 111.077C55.4282 111.077 55.4377 111.075 55.4472 111.075Z" fill="white"/>
<path d="M57.259 111.505C57.2012 111.467 57.1418 111.431 57.0808 111.397C57.1414 111.431 57.2012 111.467 57.259 111.505Z" fill="white"/>
<path d="M57.5066 111.691C57.4539 111.647 57.4001 111.605 57.3442 111.564C57.4001 111.604 57.4539 111.647 57.5066 111.691Z" fill="white"/>
<path d="M57.6592 111.831C57.6109 111.783 57.5602 111.737 57.5083 111.692C57.5602 111.736 57.6109 111.781 57.6592 111.831Z" fill="white"/>
<path d="M57.7083 111.88C57.7744 111.948 57.8358 112.019 57.8936 112.092C57.8354 112.019 57.7736 111.948 57.7083 111.88Z" fill="white"/>
<path d="M58.1185 112.428C58.0948 112.386 58.069 112.345 58.0429 112.304C58.0346 112.29 58.0259 112.277 58.0167 112.264C58.0041 112.244 57.9906 112.225 57.9775 112.206C57.9946 112.23 58.0112 112.254 58.027 112.278C58.0342 112.29 58.0417 112.302 58.0488 112.313C58.0575 112.326 58.0659 112.339 58.0734 112.352C58.0849 112.37 58.0955 112.389 58.1062 112.407C58.111 112.415 58.115 112.422 58.1185 112.428Z" fill="white"/>
<path d="M58.3613 114.539C58.3221 114.671 58.2738 114.798 58.2168 114.92C58.273 114.798 58.3213 114.671 58.3613 114.539Z" fill="white"/>
<path d="M58.4342 114.233C58.4152 114.338 58.391 114.44 58.3613 114.539C58.3906 114.44 58.4148 114.337 58.4338 114.233C58.4667 114.046 58.4801 113.86 58.4738 113.676C58.4797 113.859 58.4671 114.047 58.4342 114.233Z" fill="white"/>
<path d="M54.6854 105.981V105.98C54.603 105.754 54.5147 105.529 54.4193 105.307C52.9382 101.844 49.9401 99.0699 46.0283 98.0241C39.2677 96.2167 32.2968 100.246 30.4895 107.007C28.6813 113.769 32.7111 120.74 39.4717 122.547C43.6349 123.661 47.8777 122.56 50.944 119.971C50.9158 119.917 50.8889 119.862 50.8616 119.806C50.8418 119.766 50.8224 119.726 50.8034 119.685C50.7867 119.649 50.7697 119.614 50.7539 119.578C50.7329 119.534 50.7127 119.489 50.6929 119.444C50.6719 119.396 50.6517 119.35 50.6315 119.303C50.6275 119.294 50.6244 119.285 50.6208 119.276C47.7213 121.807 43.6527 122.9 39.6629 121.833C33.296 120.131 29.501 113.565 31.2031 107.198C32.9059 100.831 39.4709 97.0356 45.8379 98.7384C49.5928 99.7423 52.4543 102.438 53.8197 105.787C53.9053 105.996 53.9849 106.207 54.0585 106.421V106.422C54.5852 107.959 54.805 109.612 54.6628 111.291V111.292C54.603 111.984 54.4838 112.679 54.2981 113.374C54.1809 113.815 54.0391 114.242 53.8768 114.658V114.659C53.8914 114.686 53.9061 114.712 53.9211 114.738C53.9381 114.768 53.956 114.796 53.9746 114.825C53.9928 114.854 54.0114 114.882 54.0312 114.91C54.051 114.939 54.0704 114.966 54.091 114.993C54.1112 115.021 54.1322 115.048 54.154 115.074C54.1754 115.101 54.1979 115.127 54.2201 115.153C54.2423 115.178 54.2656 115.204 54.2886 115.229C54.312 115.253 54.3357 115.277 54.3595 115.301C54.3603 115.303 54.3615 115.303 54.3619 115.303C54.3734 115.315 54.3848 115.327 54.3967 115.338L54.3975 115.337C54.6418 114.77 54.8482 114.18 55.0125 113.565C55.1186 113.171 55.2034 112.776 55.2695 112.381C55.3424 111.947 55.3919 111.513 55.4192 111.081V111.08C55.5293 109.316 55.2667 107.585 54.6854 105.981Z" fill="#FF8200"/>
<path d="M144.269 44.0479H131.331C127.629 44.0479 124.6 47.0769 124.6 50.7788C124.6 54.4806 127.629 57.5097 131.331 57.5097H131.961C131.961 57.5097 130.121 62.2047 130.121 62.3952C130.121 62.5857 139.831 57.5097 139.831 57.5097H144.269C147.971 57.5097 151 54.4806 151 50.7788C151 47.0769 147.971 44.0479 144.269 44.0479Z" fill="url(#paint1_linear_5274_20701)"/>
<path d="M132.874 50.5208L131.46 50.5335L132.451 49.5244L131.792 48.8778L130.801 49.8868L130.789 48.4727L129.866 48.481L129.878 49.8951L128.87 48.9043L128.222 49.5629L129.232 50.5537L127.817 50.5663L127.826 51.4894L129.24 51.4768L128.249 52.4854L128.908 53.1324L129.898 52.1234L129.911 53.5376L130.834 53.5292L130.821 52.1151L131.831 53.1059L132.477 52.4474L131.468 51.4566L132.882 51.4439L132.874 50.5208Z" fill="white"/>
<path d="M140.324 50.5208L138.91 50.5335L139.901 49.5244L139.242 48.8778L138.251 49.8868L138.239 48.4727L137.315 48.481L137.328 49.8951L136.319 48.9043L135.672 49.5629L136.681 50.5537L135.267 50.5663L135.276 51.4894L136.69 51.4768L135.699 52.4854L136.358 53.1324L137.348 52.1234L137.361 53.5376L138.284 53.5292L138.271 52.1151L139.28 53.1059L139.927 52.4474L138.918 51.4566L140.332 51.4439L140.324 50.5208Z" fill="white"/>
<path d="M147.774 50.5208L146.36 50.5335L147.351 49.5244L146.692 48.8778L145.701 49.8868L145.688 48.4727L144.766 48.481L144.778 49.8951L143.769 48.9043L143.123 49.5629L144.132 50.5537L142.718 50.5663L142.726 51.4894L144.14 51.4768L143.149 52.4854L143.807 53.1324L144.799 52.1234L144.811 53.5376L145.734 53.5292L145.721 52.1151L146.73 53.1059L147.377 52.4474L146.368 51.4566L147.782 51.4439L147.774 50.5208Z" fill="white"/>
<path d="M15.7309 68.1168H28.6688C32.3707 68.1168 35.3997 71.1459 35.3997 74.8477C35.3997 78.5496 32.3707 81.5786 28.6688 81.5786H28.0384C28.0384 81.5786 29.8786 86.2737 29.8786 86.4641C29.8786 86.6546 20.1689 81.5786 20.1689 81.5786H15.7309C12.029 81.5786 9 78.5496 9 74.8477C9 71.1459 12.029 68.1168 15.7309 68.1168Z" fill="url(#paint2_linear_5274_20701)"/>
<path d="M27.1258 74.5895L28.5395 74.6022L27.5487 73.5932L28.2072 72.9465L29.198 73.9555L29.2111 72.5414L30.1338 72.5497L30.1211 73.9638L31.1302 72.973L31.7768 73.6316L30.7678 74.6224L32.1819 74.6351L32.1736 75.5581L30.7595 75.5455L31.7507 76.5541L31.0921 77.2012L30.1009 76.1922L30.0883 77.6063L29.1652 77.598L29.1782 76.1838L28.1692 77.1746L27.5225 76.5161L28.5312 75.5253L27.1174 75.5126L27.1258 74.5895Z" fill="white"/>
<path d="M19.6756 74.5895L21.0897 74.6022L20.0985 73.5932L20.757 72.9465L21.7482 73.9555L21.7609 72.5414L22.684 72.5497L22.6709 73.9638L23.68 72.973L24.3266 73.6316L23.318 74.6224L24.7321 74.6351L24.7238 75.5581L23.3097 75.5455L24.3005 76.5541L23.6419 77.2012L22.6511 76.1922L22.6381 77.6063L21.7154 77.598L21.728 76.1838L20.719 77.1746L20.0723 76.5161L21.0814 75.5253L19.6672 75.5126L19.6756 74.5895Z" fill="white"/>
<path d="M12.2266 74.5895L13.6407 74.6022L12.6499 73.5932L13.3085 72.9465L14.2993 73.9555L14.3119 72.5414L15.235 72.5497L15.2224 73.9638L16.231 72.973L16.8781 73.6316L15.869 74.6224L17.2832 74.6351L17.2749 75.5581L15.8607 75.5455L16.8515 76.5541L16.193 77.2012L15.2022 76.1922L15.1895 77.6063L14.2664 77.598L14.2791 76.1838L13.2701 77.1746L12.6234 76.5161L13.6324 75.5253L12.2183 75.5126L12.2266 74.5895Z" fill="white"/>
<path d="M116.377 75.3025C118.252 75.3025 119.773 73.782 119.773 71.9064C119.773 70.0308 118.252 68.5103 116.377 68.5103C114.501 68.5103 112.981 70.0308 112.981 71.9064C112.981 73.782 114.501 75.3025 116.377 75.3025Z" fill="white"/>
<path d="M29.5109 30.6939C32.15 28.0548 32.15 23.776 29.5109 21.1369C26.8719 18.4979 22.5931 18.4979 19.954 21.1369C17.3149 23.776 17.3149 28.0548 19.954 30.6939C22.5931 33.3329 26.8719 33.3329 29.5109 30.6939Z" fill="url(#paint3_linear_5274_20701)"/>
<path d="M132.883 103.166C135.533 103.166 137.68 101.018 137.68 98.3691C137.68 95.7199 135.533 93.5723 132.883 93.5723C130.234 93.5723 128.087 95.7199 128.087 98.3691C128.087 101.018 130.234 103.166 132.883 103.166Z" fill="white"/>
<path d="M135.412 98.3538C135.332 98.0572 135.199 97.7883 135.028 97.5543C134.944 97.4394 134.799 97.3863 134.662 97.4236L134.39 97.4976L134.137 96.5658C133.893 95.6709 132.967 95.1406 132.072 95.3841C131.177 95.6277 130.647 96.5539 130.89 97.4489L131.144 98.3807L130.872 98.4548C130.734 98.492 130.637 98.6116 130.623 98.7534C130.589 99.0939 130.625 99.4487 130.746 99.7976C131.142 100.943 132.345 101.632 133.533 101.392C134.933 101.109 135.781 99.7097 135.412 98.3538ZM131.435 97.3008C131.273 96.706 131.625 96.0902 132.22 95.9287C132.815 95.7667 133.431 96.1191 133.592 96.7139L133.846 97.6457L131.688 98.2326L131.435 97.3008Z" fill="#ECF3FE"/>
<path d="M133.549 99.0189C133.481 98.7678 133.222 98.6197 132.971 98.6882C132.72 98.7567 132.572 99.0153 132.64 99.2664C132.689 99.4446 132.833 99.5701 133.003 99.6042L133.132 100.082C133.163 100.193 133.279 100.26 133.39 100.23C133.502 100.199 133.568 100.084 133.538 99.9721L133.408 99.4941C133.537 99.3785 133.597 99.1971 133.549 99.0189Z" fill="white"/>
<path d="M68.2258 31.9761C70.099 30.1028 70.099 27.0657 68.2258 25.1924C66.3525 23.3192 63.3154 23.3191 61.4421 25.1924C59.5689 27.0657 59.5689 30.1028 61.4421 31.9761C63.3154 33.8493 66.3525 33.8493 68.2258 31.9761Z" fill="white"/>
<path d="M67.3626 28.5694C67.2818 28.2728 67.1495 28.0039 66.978 27.7698C66.8941 27.655 66.7496 27.6019 66.6125 27.6391L66.3405 27.7132L66.087 26.7814C65.8435 25.8864 64.9172 25.3562 64.0223 25.5997C63.1273 25.8433 62.597 26.7695 62.8406 27.6645L63.094 28.5963L62.822 28.6703C62.6846 28.7076 62.5871 28.8272 62.5729 28.9693C62.5388 29.3099 62.5757 29.6647 62.6964 30.0136C63.0924 31.1592 64.2955 31.8475 65.4835 31.6079C66.883 31.3248 67.7312 29.9253 67.3626 28.5694ZM63.3847 27.5164C63.2227 26.9216 63.5752 26.3058 64.17 26.1442C64.7648 25.9823 65.3806 26.3347 65.5421 26.9295L65.7956 27.8613L63.6381 28.4482L63.3847 27.5164Z" fill="#ECF3FE"/>
<path d="M65.4993 29.2345C65.4312 28.9834 65.1722 28.8353 64.9211 28.9038C64.6701 28.9719 64.522 29.2309 64.5905 29.482C64.6388 29.6602 64.7833 29.7857 64.9528 29.8198L65.0827 30.2978C65.1132 30.409 65.2288 30.4756 65.3405 30.4455C65.4518 30.415 65.5183 30.2993 65.4882 30.1877L65.3583 29.7097C65.4866 29.5941 65.5476 29.4127 65.4993 29.2345Z" fill="white"/>
<defs>
<linearGradient id="paint0_linear_5274_20701" x1="82.0523" y1="122.168" x2="82.0747" y2="114.936" gradientUnits="userSpaceOnUse">
<stop stop-color="#FD836F"/>
<stop offset="1" stop-color="#FF8200"/>
</linearGradient>
<linearGradient id="paint1_linear_5274_20701" x1="137.449" y1="55.6162" x2="137.501" y2="44.9261" gradientUnits="userSpaceOnUse">
<stop stop-color="#FD836F"/>
<stop offset="1" stop-color="#FF8200"/>
</linearGradient>
<linearGradient id="paint2_linear_5274_20701" x1="21.8488" y1="79.6852" x2="21.9008" y2="68.995" gradientUnits="userSpaceOnUse">
<stop stop-color="#FD836F"/>
<stop offset="1" stop-color="#FF8200"/>
</linearGradient>
<linearGradient id="paint3_linear_5274_20701" x1="25.851" y1="27.2882" x2="20.3233" y2="21.6825" gradientUnits="userSpaceOnUse">
<stop stop-color="#FD836F"/>
<stop offset="1" stop-color="#FF8200"/>
</linearGradient>
</defs>
</svg>
