<svg width="50" height="50" viewBox="0 0 50 50" fill="none" xmlns="http://www.w3.org/2000/svg">
<g clip-path="url(#clip0_5274_23843)">
<path d="M8.21701 38.0453C8.02186 37.7064 7.5802 37.5934 7.24125 37.7886L5.45407 38.8259V36.7614C5.45407 36.3711 5.13567 36.0527 4.74536 36.0527C4.35506 36.0527 4.03665 36.3711 4.03665 36.7614V38.8259L2.24947 37.7886C1.91052 37.5934 1.46886 37.7064 1.27371 38.0453C1.07856 38.3843 1.19154 38.8259 1.53049 39.0211L3.32794 40.0688L1.53049 41.1164C1.19154 41.3116 1.07856 41.7532 1.27371 42.0922C1.46886 42.4311 1.91052 42.5441 2.24947 42.349L4.03665 41.3116V43.3761C4.03665 43.7664 4.35506 44.0848 4.74536 44.0848C5.13567 44.0848 5.45407 43.7664 5.45407 43.3761V41.3116L7.24125 42.349C7.5802 42.5441 8.02186 42.4311 8.21701 42.0922C8.41217 41.7532 8.29918 41.3116 7.96023 41.1164L6.16278 40.0688L7.96023 39.0211C8.29918 38.8157 8.42244 38.3843 8.21701 38.0453Z" fill="url(#paint0_linear_5274_23843)"/>
<path d="M14.7803 42.0814C14.9755 42.4204 15.4171 42.5334 15.7561 42.3382L17.5432 41.3008V43.3653C17.5432 43.7556 17.8616 44.074 18.252 44.074C18.6423 44.074 18.9607 43.7556 18.9607 43.3653V41.3008L20.7478 42.3382C21.0868 42.5334 21.5285 42.4204 21.7236 42.0814C21.9188 41.7425 21.8058 41.3008 21.4668 41.1057L19.6694 40.058L21.4668 39.0104C21.8058 38.8152 21.9188 38.3735 21.7236 38.0346C21.5285 37.6956 21.0868 37.5827 20.7478 37.7778L18.9607 38.8152V36.7507C18.9607 36.3604 18.6423 36.042 18.252 36.042C17.8616 36.042 17.5432 36.3604 17.5432 36.7507V38.8152L15.7561 37.7881C15.4171 37.5929 14.9755 37.7059 14.7803 38.0449C14.5851 38.3838 14.6981 38.8255 15.0371 39.0206L16.8345 40.0683L15.0371 41.1057C14.6981 41.3008 14.5851 41.7425 14.7803 42.0814Z" fill="url(#paint1_linear_5274_23843)"/>
<path d="M13.5066 47.4643V48.7174C13.5066 49.0152 13.7531 49.2617 14.051 49.2617H22.463C22.7609 49.2617 23.0074 49.0152 23.0074 48.7174V47.4643C23.0074 47.1664 22.7609 46.9199 22.463 46.9199H14.051C13.7428 46.9199 13.5066 47.1664 13.5066 47.4643Z" fill="url(#paint2_linear_5274_23843)"/>
<path d="M34.0078 12.4393H33.9462V9.64556C33.9462 4.7873 29.9713 0.658294 25.1233 0.740464C20.4088 0.822633 16.5879 4.68459 16.5879 9.41959V9.68664C16.5879 10.0872 16.9166 10.4159 17.3172 10.4159H19.6488C20.0493 10.4159 20.378 10.0872 20.378 9.68664V9.60447C20.378 6.9956 22.3398 4.70513 24.9487 4.54079C27.7835 4.36618 30.1459 6.61557 30.1459 9.40932V12.429H22.9561V12.4393H16.3106C15.0781 12.4804 14.0818 13.4767 14.0818 14.7195V27.353C14.0818 28.6164 15.1089 29.6435 16.3723 29.6435H33.9976C35.2609 29.6435 36.288 28.6164 36.288 27.353V14.7298C36.2983 13.4664 35.2712 12.4393 34.0078 12.4393ZM26.551 21.6115C26.3764 21.7347 26.325 21.8682 26.325 22.0737C26.3353 22.9981 26.3353 23.9225 26.325 24.8571C26.3455 25.2474 26.1504 25.6172 25.8012 25.7918C24.9898 26.2027 24.1783 25.6275 24.1783 24.8571C24.1783 24.8571 24.1783 24.8571 24.1783 24.8469C24.1783 23.9225 24.1783 22.9878 24.1783 22.0634C24.1783 21.8785 24.1373 21.745 23.9729 21.6217C23.1307 21.0055 22.8534 19.9475 23.2745 19.0129C23.6853 18.109 24.6816 17.5749 25.6163 17.77C26.664 17.9755 27.3932 18.828 27.4035 19.8654C27.4343 20.5946 27.1364 21.1903 26.551 21.6115Z" fill="url(#paint3_linear_5274_23843)"/>
<path d="M27.0029 47.4643V48.7174C27.0029 49.0152 27.2494 49.2617 27.5473 49.2617H35.9594C36.2572 49.2617 36.5038 49.0152 36.5038 48.7174V47.4643C36.5038 47.1664 36.2572 46.9199 35.9594 46.9199H27.5473C27.2494 46.9199 27.0029 47.1664 27.0029 47.4643Z" fill="url(#paint4_linear_5274_23843)"/>
<path d="M28.2764 42.0814C28.4715 42.4204 28.9132 42.5334 29.2522 42.3382L31.0393 41.3008V43.3653C31.0393 43.7556 31.3577 44.074 31.748 44.074C32.1384 44.074 32.4568 43.7556 32.4568 43.3653V41.3008L34.2439 42.3382C34.5829 42.5334 35.0245 42.4204 35.2197 42.0814C35.4149 41.7425 35.3019 41.3008 34.9629 41.1057L33.1655 40.058L34.9629 39.0104C35.3019 38.8152 35.4149 38.3735 35.2197 38.0346C35.0245 37.6956 34.5829 37.5827 34.2439 37.7778L32.4568 38.8152V36.7507C32.4568 36.3604 32.1384 36.042 31.748 36.042C31.3577 36.042 31.0393 36.3604 31.0393 36.7507V38.8152L29.2522 37.7778C28.9132 37.5827 28.4715 37.6956 28.2764 38.0346C28.0812 38.3735 28.1942 38.8152 28.5332 39.0104L30.3306 40.058L28.5332 41.1057C28.1942 41.3008 28.0812 41.7425 28.2764 42.0814Z" fill="url(#paint5_linear_5274_23843)"/>
<path d="M49.4557 46.9199H41.0436C40.7458 46.9199 40.4993 47.1664 40.4993 47.4643V48.7174C40.4993 49.0152 40.7458 49.2617 41.0436 49.2617H49.4557C49.7536 49.2617 50.0001 49.0152 50.0001 48.7174V47.4643C50.0001 47.1664 49.7536 46.9199 49.4557 46.9199Z" fill="url(#paint6_linear_5274_23843)"/>
<path d="M0.544371 49.2617H8.95645C9.25431 49.2617 9.50082 49.0152 9.50082 48.7174V47.4643C9.50082 47.1664 9.25431 46.9199 8.95645 46.9199H0.544371C0.246508 46.9199 0 47.1664 0 47.4643V48.7174C0 49.0152 0.246508 49.2617 0.544371 49.2617Z" fill="url(#paint7_linear_5274_23843)"/>
<path d="M41.7832 42.0814C41.9783 42.4204 42.42 42.5334 42.7589 42.3382L44.5461 41.3008V43.3653C44.5461 43.7556 44.8645 44.074 45.2548 44.074C45.6451 44.074 45.9635 43.7556 45.9635 43.3653V41.3008L47.7507 42.3382C48.0897 42.5334 48.5313 42.4204 48.7265 42.0814C48.9216 41.7425 48.8086 41.3008 48.4697 41.1057L46.6722 40.058L48.4697 39.0104C48.8086 38.8152 48.9216 38.3735 48.7265 38.0346C48.5313 37.6956 48.0897 37.5827 47.7507 37.7778L45.9635 38.8152V36.7507C45.9635 36.3604 45.6451 36.042 45.2548 36.042C44.8645 36.042 44.5461 36.3604 44.5461 36.7507V38.8152L42.7589 37.7778C42.42 37.5827 41.9783 37.6956 41.7832 38.0346C41.588 38.3735 41.701 38.8152 42.0399 39.0104L43.8374 40.058L42.0399 41.1057C41.701 41.3008 41.5777 41.7425 41.7832 42.0814Z" fill="url(#paint8_linear_5274_23843)"/>
<circle cx="26.1111" cy="21.6668" r="6.11111" fill="url(#paint9_linear_5274_23843)"/>
<path d="M29.886 19.0004C29.7342 18.8527 29.488 18.8527 29.3361 19.0004L24.6769 23.5321L22.8861 21.7902C22.7342 21.6425 22.488 21.6425 22.3361 21.7902C22.1842 21.9379 22.1842 22.1774 22.3361 22.3251L24.402 24.3345C24.5538 24.4822 24.8002 24.4821 24.9519 24.3345L29.886 19.5354C30.0379 19.3877 30.0379 19.1482 29.886 19.0004Z" fill="white"/>
</g>
<defs>
<linearGradient id="paint0_linear_5274_23843" x1="4.65271" y1="41.1157" x2="4.68955" y2="36.4373" gradientUnits="userSpaceOnUse">
<stop stop-color="#FD836F"/>
<stop offset="1" stop-color="#FF8200"/>
</linearGradient>
<linearGradient id="paint1_linear_5274_23843" x1="18.1571" y1="41.1049" x2="18.1939" y2="36.4265" gradientUnits="userSpaceOnUse">
<stop stop-color="#FD836F"/>
<stop offset="1" stop-color="#FF8200"/>
</linearGradient>
<linearGradient id="paint2_linear_5274_23843" x1="18.1307" y1="48.3961" x2="18.133" y2="47.032" gradientUnits="userSpaceOnUse">
<stop stop-color="#FD836F"/>
<stop offset="1" stop-color="#FF8200"/>
</linearGradient>
<linearGradient id="paint3_linear_5274_23843" x1="24.8896" y1="18.9588" x2="25.043" y2="2.12339" gradientUnits="userSpaceOnUse">
<stop stop-color="#FD836F"/>
<stop offset="1" stop-color="#FF8200"/>
</linearGradient>
<linearGradient id="paint4_linear_5274_23843" x1="31.627" y1="48.3961" x2="31.6294" y2="47.032" gradientUnits="userSpaceOnUse">
<stop stop-color="#FD836F"/>
<stop offset="1" stop-color="#FF8200"/>
</linearGradient>
<linearGradient id="paint5_linear_5274_23843" x1="31.6532" y1="41.1049" x2="31.69" y2="36.4265" gradientUnits="userSpaceOnUse">
<stop stop-color="#FD836F"/>
<stop offset="1" stop-color="#FF8200"/>
</linearGradient>
<linearGradient id="paint6_linear_5274_23843" x1="45.1233" y1="48.3961" x2="45.1257" y2="47.032" gradientUnits="userSpaceOnUse">
<stop stop-color="#FD836F"/>
<stop offset="1" stop-color="#FF8200"/>
</linearGradient>
<linearGradient id="paint7_linear_5274_23843" x1="4.62407" y1="48.3961" x2="4.62642" y2="47.032" gradientUnits="userSpaceOnUse">
<stop stop-color="#FD836F"/>
<stop offset="1" stop-color="#FF8200"/>
</linearGradient>
<linearGradient id="paint8_linear_5274_23843" x1="45.1576" y1="41.1049" x2="45.1944" y2="36.4265" gradientUnits="userSpaceOnUse">
<stop stop-color="#FD836F"/>
<stop offset="1" stop-color="#FF8200"/>
</linearGradient>
<linearGradient id="paint9_linear_5274_23843" x1="25.9486" y1="23.2598" x2="25.9984" y2="16.1407" gradientUnits="userSpaceOnUse">
<stop stop-color="#FD836F"/>
<stop offset="1" stop-color="#FF8200"/>
</linearGradient>
<clipPath id="clip0_5274_23843">
<rect width="50" height="50" fill="white"/>
</clipPath>
</defs>
</svg>
