<svg width="15" height="16" viewBox="0 0 15 16" fill="none" xmlns="http://www.w3.org/2000/svg">
<g id="expense 1">
<path id="Vector" d="M12.669 8.1725L7.332 14H2.5C1.673 14 1 13.327 1 12.5V9C1 8.173 1.673 7.5 2.5 7.5H4.5V7C3.673 7 3 6.327 3 5.5H4C4 5.776 4.2245 6 4.5 6H5.688C5.86 6 6 5.86 6 5.688C6 5.5345 5.8905 5.4055 5.739 5.38L4.0965 5.1065C3.461 5.0005 3 4.456 3 3.812C3 3.0885 3.5885 2.5 4.312 2.5H4.5V2H5.5V2.5C6.327 2.5 7 3.173 7 4H6C6 3.724 5.7755 3.5 5.5 3.5H4.312C4.14 3.5 4 3.64 4 3.812C4 3.9655 4.1095 4.0945 4.261 4.12L5.9035 4.3935C6.539 4.4995 7 5.044 7 5.688C7 6.4115 6.4115 7 5.688 7H5.5V7.5H6.8935C7.5035 7.5 8 7.9965 8 8.6065C8 9.1535 7.592 9.6245 7.05 9.702L4.9295 10.005L5.071 10.9945L7.1915 10.6915C8.2225 10.5445 9 9.648 9 8.6065C9 8.497 8.984 8.392 8.9675 8.2875L10.738 6.419C10.9655 6.169 11.2865 6.0175 11.635 6.0015C11.981 5.9845 12.3165 6.106 12.574 6.3405C13.1 6.8195 13.143 7.6415 12.6685 8.173L12.669 8.1725ZM9.24 5.273L9.947 5.98L11.192 4.735C11.3905 4.5365 11.5 4.2725 11.5 3.9915C11.5 3.7105 11.3905 3.4465 11.192 3.2485L9.968 2.0245L9.261 2.7315L10.029 3.5H8V4.5H10.013L9.24 5.273Z" fill="#FB6B00"/>
</g>
</svg>
