<svg width="49" height="55" viewBox="0 0 49 55" fill="none" xmlns="http://www.w3.org/2000/svg">
<g id="019---Video-Ad-Views">
<g id="Group 1597886078">
<path id="Path" d="M48.5862 39.4755V50.7516C48.5862 52.8274 46.9034 54.5102 44.8275 54.5102H4.73501C2.65916 54.5102 0.976341 52.8274 0.976341 50.7516V39.4755L2.22923 38.2227H47.3333L48.5862 39.4755Z" fill="#CCD0DA"/>
<path id="Path_2" d="M48.5861 39.4775V9.88997C48.5861 8.23995 47.2485 6.90234 45.5984 6.90234H4.73491C2.65906 6.90234 0.976242 8.58516 0.976242 10.661V39.4775H48.5861Z" fill="#1F6BB2"/>
<g id="Group">
<path id="Vector" fill-rule="evenodd" clip-rule="evenodd" d="M20.9615 23.3926C18.745 24.6723 17.6367 25.3122 17.6367 25.3122L22.4967 33.7298C22.756 34.1787 23.3335 34.3335 23.7825 34.0743L25.477 33.096C25.9259 32.8367 26.0807 32.2592 25.8216 31.8102L20.9615 23.3926Z" fill="#E9E9FF"/>
<path id="Vector_2" fill-rule="evenodd" clip-rule="evenodd" d="M23.7887 16.2678C24.9068 18.2043 24.2371 20.7035 22.3006 21.8215L14.5266 26.3099C12.5902 27.4278 10.091 26.7582 8.973 24.8218C7.85489 22.8853 8.52462 20.3861 10.4611 19.2682L18.2349 14.7799C20.1715 13.6618 22.6707 14.3314 23.7887 16.2678Z" fill="#E9E9FF"/>
<path id="Vector_3" d="M33.708 14.8834C36.1007 14.8834 38.0403 12.9438 38.0403 10.5511C38.0403 8.15841 36.1007 6.21875 33.708 6.21875C31.3153 6.21875 29.3756 8.15841 29.3756 10.5511C29.3756 12.9438 31.3153 14.8834 33.708 14.8834Z" fill="#B8B7FF"/>
<g id="Group 1597886080">
<path id="Vector_4" fill-rule="evenodd" clip-rule="evenodd" d="M16.4509 13.4352L11.5995 16.2362C10.6684 16.7738 10.3475 17.9716 10.8851 18.9027L15.0501 26.1165C15.5877 27.0476 16.7854 27.3685 17.7165 26.8311L22.568 24.0301L37.7246 20.6854C38.1167 20.5654 38.4044 20.2993 38.5546 19.9177C38.7049 19.5362 38.6758 19.1454 38.4707 18.7902L28.9401 2.28291C28.7351 1.92779 28.4112 1.70719 28.0056 1.64653C27.6 1.58588 27.2257 1.70203 26.9257 1.98165L16.4509 13.4352Z" fill="#B8B7FF"/>
<path id="Vector_5" fill-rule="evenodd" clip-rule="evenodd" d="M10.9365 18.8993L10.9379 18.9017L15.1029 26.1155C15.6405 27.0466 16.8383 27.3675 17.7694 26.8301L22.6207 24.0291L37.7773 20.6844C38.1694 20.5644 38.4571 20.2983 38.6073 19.9167C38.7576 19.5352 38.7285 19.1444 38.5234 18.7893L37.8861 17.6855C38.0882 18.0393 38.1163 18.4279 37.9668 18.8074C37.8166 19.189 37.5289 19.455 37.1368 19.5751L21.9801 22.9198L17.1288 25.7208C16.1977 26.2584 15 25.9374 14.4624 25.0063L10.9365 18.8993Z" fill="#B8B7FF"/>
<path id="Vector_6" fill-rule="evenodd" clip-rule="evenodd" d="M21.5422 22.25C20.187 19.9027 18.8318 17.5555 17.4766 15.2081C17.1347 14.6159 16.7928 14.0237 16.4509 13.4316L11.5995 16.2326C10.6684 16.7701 10.3474 17.968 10.8851 18.8991L10.9349 18.9852L15.0004 26.027L15.0501 26.1131C15.5876 27.0442 16.7855 27.3652 17.7166 26.8276L18.2994 26.4912L21.6241 24.5716L22.568 24.0266C22.2259 23.4343 21.8839 22.8422 21.5422 22.25Z" fill="#B8B7FF"/>
<path id="Vector_7" fill-rule="evenodd" clip-rule="evenodd" d="M11.1399 16.6133C10.578 17.2247 10.4488 18.1561 10.8851 18.9117L10.9348 18.9977L15.0003 26.0396L15.05 26.1256C15.5875 27.0567 16.7854 27.3778 17.7165 26.8402L18.2993 26.5038L21.624 24.5842L22.5679 24.0392L21.9274 22.9299L18.1854 25.0903C17.2543 25.6278 16.0565 25.3069 15.5189 24.3758L11.3539 17.162C11.2526 16.9864 11.1819 16.8014 11.1399 16.6133Z" fill="#B8B7FF"/>
</g>
<path id="Vector_8" fill-rule="evenodd" clip-rule="evenodd" d="M25.9534 1.11637C27.0192 0.501135 28.3944 0.869599 29.0096 1.93523L38.8122 18.9136C39.4274 19.9793 39.059 21.3546 37.9933 21.9698H37.9932C36.9276 22.5851 35.5523 22.2166 34.937 21.151L25.1346 4.17256C24.5194 3.10694 24.8878 1.73161 25.9534 1.11637Z" fill="#FFD3A6"/>
</g>
<g id="Group_2">
<path id="Path_3" d="M41.0383 45.2026H8.89871C8.0112 45.2026 7.29173 44.675 7.29173 44.0242C7.29173 43.3733 8.0112 42.8457 8.89871 42.8457H41.0383C41.9258 42.8457 42.6453 43.3733 42.6453 44.0242C42.6453 44.675 41.9258 45.2026 41.0383 45.2026Z" fill="white"/>
<path id="Path_4" d="M28.5397 50.7558H8.49341C7.80146 50.7558 7.24052 50.1948 7.24052 49.5029C7.24052 48.8109 7.80146 48.25 8.49341 48.25H28.5397C29.2316 48.25 29.7925 48.8109 29.7925 49.5029C29.7925 50.1948 29.2316 50.7558 28.5397 50.7558Z" fill="white"/>
</g>
</g>
</g>
</svg>
